<svg width="454" height="549" viewBox="0 0 454 549" fill="none" xmlns="http://www.w3.org/2000/svg">
<g clip-path="url(#clip0_4311_69)">
<rect x="1" y="0.999512" width="322.998" height="449.313" fill="#EDF6FF" stroke="#259DFF" stroke-width="2"/>
<path d="M227.055 484.482C187.984 479.387 159.95 470.513 146.173 460.31C132.371 450.089 132.987 438.641 150.545 428.36C168.102 418.078 199.688 410.669 237.013 407.114C274.273 403.566 316.884 403.904 355.954 408.999C395.025 414.093 423.059 422.967 436.836 433.17C450.638 443.391 450.023 454.839 432.465 465.121C414.907 475.403 383.321 482.812 345.996 486.366C308.736 489.914 266.125 489.577 227.055 484.482Z" fill="#EDF6FF" stroke="#259DFF" stroke-width="2"/>
<path d="M226.815 477.002C187.744 471.908 159.71 463.034 145.933 452.831C132.131 442.61 132.746 431.162 150.304 420.88C167.862 410.598 199.448 403.189 236.773 399.635C274.033 396.087 316.644 396.424 355.714 401.519C394.785 406.614 422.819 415.488 436.596 425.691C450.398 435.912 449.782 447.36 432.224 457.641C414.667 467.923 383.081 475.332 345.756 478.887C308.496 482.435 265.885 482.097 226.815 477.002Z" fill="#EDF6FF" stroke="#259DFF" stroke-width="2"/>
<path d="M389.966 342.001C389.966 402.749 340.516 452.002 279.508 452.002C218.5 452.002 169.05 402.749 169.05 342.001C169.05 281.253 218.5 232 279.508 232C340.516 232 389.966 281.253 389.966 342.001Z" fill="#EDF6FF" stroke="#259DFF" stroke-width="2"/>
<path d="M400.929 342.001C400.929 402.745 351.279 452.002 290.014 452.002C228.75 452.002 179.1 402.745 179.1 342.001C179.1 281.256 228.75 232 290.014 232C351.279 232 400.929 281.256 400.929 342.001Z" fill="#EDF6FF" stroke="#259DFF" stroke-width="2"/>
<path d="M406.269 103.485L413.248 125.66C413.971 127.959 415.826 129.723 418.158 130.332L440.499 136.162C445.482 137.462 445.482 144.537 440.499 145.838L418.158 151.667C415.826 152.276 413.971 154.04 413.248 156.339L406.269 178.514C404.801 183.179 398.199 183.179 396.731 178.514L389.752 156.339C389.029 154.04 387.174 152.276 384.842 151.667L362.501 145.838C357.518 144.537 357.518 137.462 362.501 136.162L384.842 130.332C387.174 129.723 389.029 127.959 389.752 125.66L396.731 103.485C398.199 98.82 404.801 98.82 406.269 103.485Z" fill="#EDF6FF" stroke="#259DFF" stroke-width="2"/>
</g>
<defs>
<clipPath id="clip0_4311_69">
<rect width="453.333" height="549" fill="white"/>
</clipPath>
</defs>
</svg>
