<svg width="129" height="129" viewBox="0 0 129 129" fill="none" xmlns="http://www.w3.org/2000/svg">
<path id="Star 4" d="M60.2008 4.5974C61.508 0.369797 67.492 0.369799 68.7992 4.5974L81.0741 44.2965C81.6105 46.0316 82.9689 47.3899 84.7039 47.9264L124.403 60.2013C128.631 61.5085 128.631 67.4925 124.403 68.7997L84.7039 81.0746C82.9689 81.611 81.6106 82.9694 81.0741 84.7044L68.7992 124.404C67.492 128.631 61.508 128.631 60.2008 124.404L47.9259 84.7044C47.3894 82.9694 46.0311 81.611 44.2961 81.0746L4.59691 68.7997C0.369309 67.4925 0.369311 61.5085 4.59691 60.2013L44.2961 47.9264C46.0311 47.3899 47.3894 46.0316 47.9259 44.2965L60.2008 4.5974Z" fill="#259DFF" stroke="#EDF6FF"/>
</svg>
