<svg width="454" height="453" viewBox="0 0 454 453" fill="none" xmlns="http://www.w3.org/2000/svg">
<g clip-path="url(#clip0_4293_29)">
<rect x="0.333496" width="453.333" height="453" rx="226.5" fill="#EDF6FF"/>
<mask id="path-3-inside-1_4293_29" fill="white">
<path fill-rule="evenodd" clip-rule="evenodd" d="M240.034 95.203C243.567 117.263 234.592 137.042 219.989 139.381C216.382 139.959 212.768 139.418 209.318 137.944C209.002 138.935 208.66 139.941 208.29 140.958C209.332 141.645 210.374 142.407 211.408 143.241C228.449 152.552 245.872 175.621 256.369 205.434C260.347 216.731 262.943 227.896 264.228 238.383C270.247 250.66 270.998 270.878 265.779 293.12C273.882 327.11 277.02 384.167 272.956 448.42C266.469 550.988 244.09 633.052 222.971 631.717C206.008 630.644 195.017 576.096 194.709 501.521C187.926 479.03 186.22 439.949 191.333 396.191C192.04 390.142 192.853 384.21 193.761 378.425C193.366 378.308 192.973 378.184 192.581 378.053C170.517 370.666 159.869 343.054 168.799 316.38C174.068 300.643 184.974 288.748 197.563 283.156C198.267 281.134 199.006 279.147 199.775 277.199C190.517 265.837 182.16 250.887 176.107 233.695C172.461 223.339 169.975 213.094 168.597 203.38C166.435 197.199 165.159 189.671 165.14 181.545C165.124 174.116 166.161 167.18 167.97 161.311C169.662 154.321 172.916 146.265 177.523 138.308C182.046 130.496 187.15 124.029 192.026 119.543C189.769 114.816 188.077 109.453 187.151 103.672C183.618 81.6121 192.592 61.833 207.195 59.4942C221.798 57.1555 236.501 73.1428 240.034 95.203Z"/>
</mask>
<path fill-rule="evenodd" clip-rule="evenodd" d="M240.034 95.203C243.567 117.263 234.592 137.042 219.989 139.381C216.382 139.959 212.768 139.418 209.318 137.944C209.002 138.935 208.66 139.941 208.29 140.958C209.332 141.645 210.374 142.407 211.408 143.241C228.449 152.552 245.872 175.621 256.369 205.434C260.347 216.731 262.943 227.896 264.228 238.383C270.247 250.66 270.998 270.878 265.779 293.12C273.882 327.11 277.02 384.167 272.956 448.42C266.469 550.988 244.09 633.052 222.971 631.717C206.008 630.644 195.017 576.096 194.709 501.521C187.926 479.03 186.22 439.949 191.333 396.191C192.04 390.142 192.853 384.21 193.761 378.425C193.366 378.308 192.973 378.184 192.581 378.053C170.517 370.666 159.869 343.054 168.799 316.38C174.068 300.643 184.974 288.748 197.563 283.156C198.267 281.134 199.006 279.147 199.775 277.199C190.517 265.837 182.16 250.887 176.107 233.695C172.461 223.339 169.975 213.094 168.597 203.38C166.435 197.199 165.159 189.671 165.14 181.545C165.124 174.116 166.161 167.18 167.97 161.311C169.662 154.321 172.916 146.265 177.523 138.308C182.046 130.496 187.15 124.029 192.026 119.543C189.769 114.816 188.077 109.453 187.151 103.672C183.618 81.6121 192.592 61.833 207.195 59.4942C221.798 57.1555 236.501 73.1428 240.034 95.203Z" fill="#78C2FF"/>
<path d="M219.989 139.381L220.306 141.356L220.306 141.356L219.989 139.381ZM240.034 95.203L238.059 95.5192L238.059 95.5192L240.034 95.203ZM209.318 137.944L210.104 136.104L208.08 135.239L207.412 137.337L209.318 137.944ZM208.29 140.958L206.41 140.276L205.872 141.759L207.189 142.628L208.29 140.958ZM211.408 143.241L210.153 144.798L210.293 144.911L210.449 144.996L211.408 143.241ZM256.369 205.434L258.256 204.77L258.256 204.77L256.369 205.434ZM264.228 238.383L262.243 238.626L262.284 238.961L262.432 239.263L264.228 238.383ZM265.779 293.12L263.832 292.663L263.724 293.124L263.834 293.584L265.779 293.12ZM272.956 448.42L274.952 448.546L274.952 448.546L272.956 448.42ZM222.971 631.717L223.097 629.721L223.097 629.721L222.971 631.717ZM194.709 501.521L196.709 501.513L196.707 501.222L196.623 500.944L194.709 501.521ZM191.333 396.191L193.32 396.423L193.32 396.423L191.333 396.191ZM193.761 378.425L195.736 378.735L196.008 377.005L194.329 376.507L193.761 378.425ZM192.581 378.053L193.216 376.156L193.216 376.156L192.581 378.053ZM168.799 316.38L170.696 317.015L170.696 317.015L168.799 316.38ZM197.563 283.156L198.375 284.984L199.167 284.632L199.452 283.814L197.563 283.156ZM199.775 277.199L201.635 277.934L202.066 276.844L201.326 275.935L199.775 277.199ZM176.107 233.695L177.993 233.031L177.993 233.031L176.107 233.695ZM168.597 203.38L170.577 203.099L170.549 202.905L170.485 202.72L168.597 203.38ZM165.14 181.545L163.14 181.55L165.14 181.545ZM167.97 161.311L169.881 161.901L169.899 161.842L169.914 161.782L167.97 161.311ZM177.523 138.308L175.792 137.306L175.792 137.306L177.523 138.308ZM192.026 119.543L193.38 121.014L194.468 120.014L193.831 118.681L192.026 119.543ZM187.151 103.672L189.126 103.356L189.126 103.356L187.151 103.672ZM220.306 141.356C228.479 140.047 234.83 133.897 238.634 125.514C242.445 117.114 243.828 106.249 242.009 94.8867L238.059 95.5192C239.772 106.217 238.435 116.272 234.991 123.861C231.54 131.467 226.102 136.376 219.673 137.406L220.306 141.356ZM208.532 139.783C212.29 141.389 216.285 142 220.306 141.356L219.673 137.406C216.478 137.918 213.246 137.447 210.104 136.104L208.532 139.783ZM207.412 137.337C207.105 138.302 206.771 139.282 206.41 140.276L210.17 141.641C210.548 140.599 210.9 139.567 211.224 138.55L207.412 137.337ZM207.189 142.628C208.175 143.278 209.166 144.002 210.153 144.798L212.664 141.684C211.582 140.812 210.489 140.012 209.391 139.288L207.189 142.628ZM210.449 144.996C226.892 153.98 244.074 176.536 254.483 206.098L258.256 204.77C247.67 174.706 230.007 151.124 212.367 141.486L210.449 144.996ZM254.483 206.098C258.415 217.265 260.976 228.289 262.243 238.626L266.213 238.14C264.91 227.503 262.279 216.197 258.256 204.77L254.483 206.098ZM262.432 239.263C268.157 250.941 269.004 270.62 263.832 292.663L267.727 293.577C272.991 271.137 272.336 250.379 266.024 237.503L262.432 239.263ZM263.834 293.584C271.871 327.296 275.018 384.127 270.96 448.294L274.952 448.546C279.021 384.207 275.894 326.924 267.725 292.657L263.834 293.584ZM270.96 448.294C267.723 499.485 260.521 545.502 251.521 578.506C247.017 595.024 242.089 608.179 237.039 617.077C234.512 621.53 232.01 624.815 229.599 626.926C227.193 629.033 225.032 629.843 223.097 629.721L222.844 633.713C226.189 633.924 229.348 632.463 232.234 629.936C235.113 627.414 237.876 623.706 240.518 619.051C245.807 609.732 250.839 596.21 255.38 579.558C264.471 546.222 271.703 499.923 274.952 448.546L270.96 448.294ZM223.097 629.721C219.97 629.523 216.568 626.786 213.208 620.469C209.914 614.278 206.988 605.237 204.551 593.767C199.683 570.858 196.862 538.726 196.709 501.513L192.709 501.53C192.863 538.891 195.692 571.321 200.638 594.598C203.108 606.221 206.129 615.679 209.676 622.348C213.157 628.891 217.49 633.374 222.844 633.713L223.097 629.721ZM196.623 500.944C189.956 478.835 188.22 440.071 193.32 396.423L189.347 395.959C184.221 439.827 185.895 479.225 192.794 502.099L196.623 500.944ZM193.32 396.423C194.024 390.4 194.833 384.494 195.736 378.735L191.785 378.115C190.873 383.926 190.057 389.884 189.347 395.959L193.32 396.423ZM194.329 376.507C193.957 376.397 193.586 376.28 193.216 376.156L191.946 379.949C192.36 380.088 192.776 380.219 193.192 380.342L194.329 376.507ZM193.216 376.156C172.52 369.227 161.999 342.994 170.696 317.015L166.903 315.745C157.74 343.114 168.514 372.104 191.946 379.949L193.216 376.156ZM170.696 317.015C175.802 301.763 186.342 290.329 198.375 284.984L196.751 281.329C183.606 287.167 172.334 299.523 166.903 315.745L170.696 317.015ZM199.452 283.814C200.147 281.817 200.876 279.856 201.635 277.934L197.915 276.464C197.135 278.438 196.387 280.45 195.674 282.499L199.452 283.814ZM201.326 275.935C192.23 264.773 183.98 250.032 177.993 233.031L174.22 234.359C180.341 251.743 188.804 266.901 198.225 278.462L201.326 275.935ZM177.993 233.031C174.389 222.794 171.936 212.677 170.577 203.099L166.616 203.661C168.014 213.51 170.532 223.884 174.22 234.359L177.993 233.031ZM170.485 202.72C168.405 196.773 167.158 189.469 167.14 181.541L163.14 181.55C163.159 189.872 164.466 197.625 166.709 204.04L170.485 202.72ZM167.14 181.541C167.124 174.294 168.137 167.559 169.881 161.901L166.059 160.722C164.185 166.801 163.123 173.939 163.14 181.55L167.14 181.541ZM169.914 161.782C171.555 155.003 174.729 147.125 179.254 139.31L175.792 137.306C171.103 145.405 167.77 153.639 166.026 160.841L169.914 161.782ZM179.254 139.31C183.698 131.635 188.682 125.337 193.38 121.014L190.672 118.071C185.619 122.72 180.395 129.356 175.792 137.306L179.254 139.31ZM185.176 103.989C186.131 109.952 187.88 115.5 190.221 120.404L193.831 118.681C191.659 114.133 190.022 108.953 189.126 103.356L185.176 103.989ZM206.879 57.5194C198.705 58.8285 192.354 64.9783 188.551 73.3614C184.74 81.7611 183.356 92.6258 185.176 103.989L189.126 103.356C187.413 92.6586 188.75 82.6036 192.193 75.0141C195.644 67.4078 201.082 62.4987 207.512 61.4691L206.879 57.5194ZM242.009 94.8867C240.189 83.5239 235.482 73.6347 229.238 66.8452C223.007 60.0693 215.053 56.2103 206.879 57.5194L207.512 61.4691C213.941 60.4394 220.64 63.4048 226.294 69.5528C231.935 75.6874 236.346 84.8219 238.059 95.5192L242.009 94.8867Z" fill="#259DFF" mask="url(#path-3-inside-1_4293_29)"/>
<path d="M340.261 91.888V116.464H338.981V109.04H304.677V116.464H303.397V91.888H304.677V99.312H338.981V91.888H340.261ZM352.421 59.12V81.776H351.141V69.616H292.517V81.776H291.237V59.12H352.421ZM288.805 150V127.344H290.085V139.504H353.573V127.344H354.853V150H288.805Z" fill="#259DFF"/>
<path d="M124.586 90.12V89.48H133.418V97.032H133.546C134.25 94.344 135.722 89.096 142.762 89.096C147.946 89.096 149.802 92.04 149.802 97.992V132.616H144.682V96.2C144.682 91.592 143.146 90.12 140.778 90.12C136.746 90.12 133.546 94.536 133.546 103.24V117H128.426V90.12H124.586ZM145.834 73.992C141.61 73.992 139.37 69.128 136.106 69.128C134.058 69.128 132.842 70.984 132.714 73.928H132.394C132.394 70.344 132.97 65.736 137.13 65.736C141.354 65.736 143.594 70.6 146.858 70.6C148.906 70.6 150.122 68.744 150.25 65.8H150.57C150.57 69.384 149.994 73.992 145.834 73.992ZM133.418 129.48C130.794 129.48 128.682 128.328 128.682 125.704C128.682 125.192 128.746 123.976 129.258 122.12H132.586C132.266 126.664 132.97 128.648 134.826 128.648C136.426 128.648 137.258 127.24 137.77 126.024L138.218 126.216C137.642 127.688 136.746 129.48 133.418 129.48ZM138.794 75.592H142.698C142.698 78.408 140.778 82.504 137.642 86.472H137.258C138.346 83.144 139.306 79.944 138.794 75.592Z" fill="#259DFF"/>
<path d="M111.201 297.448C124.769 301.928 132.832 313.96 132.832 327.016C132.832 340.584 124.512 353.768 112.097 353.768C105.056 353.768 100.576 349.288 98.4005 341.48C96.2245 349.288 91.7445 353.768 84.3205 353.768C71.0085 353.768 63.9685 340.84 63.9685 328.552C63.9685 313.96 72.1605 301.928 86.1125 297.448L86.3685 298.088C78.8165 302.44 74.8485 315.496 74.8485 328.296C74.8485 339.432 76.5125 352.872 84.4485 352.872C90.9765 352.872 93.4085 344.936 93.4085 329.064V319.08H103.392V329.064C103.392 344.936 105.824 352.872 112.224 352.872C119.777 352.872 121.952 339.432 121.952 327.144C121.952 314.6 117.856 302.312 110.944 298.088L111.201 297.448ZM93.5365 289.256L92.8965 288.872C99.5525 280.936 99.9365 276.2 99.9365 272.488C99.9365 268.776 100.576 266.216 101.6 264.552C102.624 262.888 104.16 262.12 106.08 262.12C108 262.12 110.049 263.656 110.049 266.984C110.049 271.976 104.928 277.608 93.5365 289.256Z" fill="#259DFF"/>
<path d="M367.427 375H349.699V374.232C354.819 370.968 358.467 361.24 358.467 351.768C358.467 341.784 357.059 329.688 346.819 329.688C336.579 329.688 335.171 341.784 335.171 351.768C335.171 361.24 338.819 370.968 343.939 374.232V375H326.211V363.608H326.851C327.683 370.072 330.499 374.36 336.195 374.36H343.043C334.595 370.84 328.515 362.712 328.515 351.768C328.515 339.288 334.467 329.176 346.819 329.176C359.171 329.176 365.123 339.288 365.123 351.768C365.123 362.584 358.979 370.84 350.531 374.36H357.443C363.139 374.36 365.955 370.072 366.787 363.608H367.427V375ZM327.107 337.816C322.883 337.816 320.643 332.952 317.379 332.952C315.331 332.952 314.115 334.808 313.987 337.752H313.667C313.667 334.168 314.243 329.56 318.403 329.56C322.627 329.56 324.867 334.424 328.131 334.424C330.179 334.424 331.395 332.568 331.523 329.624H331.843C331.843 333.208 331.267 337.816 327.107 337.816ZM350.467 387.48C347.843 387.48 345.731 386.328 345.731 383.704C345.731 383.192 345.795 381.976 346.307 380.12H349.635C349.315 384.664 350.019 386.648 351.875 386.648C353.475 386.648 354.307 385.24 354.819 384.024L355.267 384.216C354.691 385.688 353.795 387.48 350.467 387.48ZM319.811 339.416H323.715C323.203 343.768 324.163 346.968 325.251 350.296H324.867C321.731 346.328 319.811 342.232 319.811 339.416Z" fill="#259DFF"/>
</g>
<rect x="1.3335" y="1" width="451.333" height="451" rx="225.5" stroke="#259DFF" stroke-width="2"/>
<defs>
<clipPath id="clip0_4293_29">
<rect x="0.333496" width="453.333" height="453" rx="226.5" fill="white"/>
</clipPath>
</defs>
</svg>
