<svg width="419" height="515" viewBox="0 0 419 515" fill="none" xmlns="http://www.w3.org/2000/svg">
<mask id="path-1-inside-1_2137_414" fill="white">
<path fill-rule="evenodd" clip-rule="evenodd" d="M272.062 46.4661C249.618 30.9924 223.611 29.4021 210.889 43.8465C207.778 47.3799 205.718 51.5809 204.648 56.2086C204.187 55.799 203.725 55.3895 203.26 54.9803C163.403 19.8776 124 -0.525767 115.251 9.40796C106.502 19.3417 131.721 55.8509 171.578 90.9535C189.609 106.833 207.546 119.704 222.595 128.12C218.301 155.372 215.204 193.573 214.351 235.906C213.748 265.85 214.349 293.773 215.883 317.25C201.542 350.884 192.312 378.475 190.461 393.396C183.855 400.261 176.99 414.005 172.542 430.604C165.752 455.944 167.167 478.34 175.703 480.627C184.238 482.914 196.662 464.226 203.452 438.886C208.102 421.53 208.903 405.555 206.204 396.477C211.146 391.08 217.02 383.408 223.536 373.886C223.9 375.183 224.273 376.389 224.653 377.501C218.6 384.859 212.816 399.067 209.65 415.926C204.809 441.709 207.925 463.933 216.61 465.563C225.295 467.194 236.26 447.615 241.101 421.832C244.888 401.663 243.806 383.672 238.997 376.013C242.118 367.169 244.996 353.211 247.406 335.596C257.103 318.833 267.325 299.83 277.471 279.471C303.743 226.758 322.459 179.114 327.602 154.095C338.167 151.157 350.316 146.387 362.775 140.023C395.728 123.189 418.367 101.569 413.343 91.7325C408.318 81.896 377.531 87.5681 344.578 104.402C342.899 105.26 341.246 106.13 339.622 107.011C337.861 93.0547 329.372 77.5799 315.361 65.2408C301.748 53.2513 285.856 46.8069 272.062 46.4661ZM302.665 157.286C302.095 157.215 301.549 157.126 301.026 157.022C292.785 169.838 276.93 176.468 261.423 172.313C258.636 171.566 256.013 170.512 253.581 169.197C254.529 189.515 254.832 212.45 254.343 236.712L254.338 236.974C272.06 203.517 289.246 175.362 302.665 157.286Z"/>
</mask>
<path fill-rule="evenodd" clip-rule="evenodd" d="M272.062 46.4661C249.618 30.9924 223.611 29.4021 210.889 43.8465C207.778 47.3799 205.718 51.5809 204.648 56.2086C204.187 55.799 203.725 55.3895 203.26 54.9803C163.403 19.8776 124 -0.525767 115.251 9.40796C106.502 19.3417 131.721 55.8509 171.578 90.9535C189.609 106.833 207.546 119.704 222.595 128.12C218.301 155.372 215.204 193.573 214.351 235.906C213.748 265.85 214.349 293.773 215.883 317.25C201.542 350.884 192.312 378.475 190.461 393.396C183.855 400.261 176.99 414.005 172.542 430.604C165.752 455.944 167.167 478.34 175.703 480.627C184.238 482.914 196.662 464.226 203.452 438.886C208.102 421.53 208.903 405.555 206.204 396.477C211.146 391.08 217.02 383.408 223.536 373.886C223.9 375.183 224.273 376.389 224.653 377.501C218.6 384.859 212.816 399.067 209.65 415.926C204.809 441.709 207.925 463.933 216.61 465.563C225.295 467.194 236.26 447.615 241.101 421.832C244.888 401.663 243.806 383.672 238.997 376.013C242.118 367.169 244.996 353.211 247.406 335.596C257.103 318.833 267.325 299.83 277.471 279.471C303.743 226.758 322.459 179.114 327.602 154.095C338.167 151.157 350.316 146.387 362.775 140.023C395.728 123.189 418.367 101.569 413.343 91.7325C408.318 81.896 377.531 87.5681 344.578 104.402C342.899 105.26 341.246 106.13 339.622 107.011C337.861 93.0547 329.372 77.5799 315.361 65.2408C301.748 53.2513 285.856 46.8069 272.062 46.4661ZM302.665 157.286C302.095 157.215 301.549 157.126 301.026 157.022C292.785 169.838 276.93 176.468 261.423 172.313C258.636 171.566 256.013 170.512 253.581 169.197C254.529 189.515 254.832 212.45 254.343 236.712L254.338 236.974C272.06 203.517 289.246 175.362 302.665 157.286Z" fill="#259DFF"/>
<path d="M272.062 46.4661L270.927 48.1127L271.417 48.4508L272.013 48.4655L272.062 46.4661ZM210.889 43.8465L212.39 45.1683L212.39 45.1683L210.889 43.8465ZM204.648 56.2086L203.319 57.7033L205.838 59.9425L206.597 56.659L204.648 56.2086ZM203.26 54.9803L204.582 53.4794L204.582 53.4794L203.26 54.9803ZM115.251 9.40796L113.75 8.08611L115.251 9.40796ZM171.578 90.9535L170.256 92.4544L171.578 90.9535ZM222.595 128.12L224.57 128.431L224.787 127.055L223.571 126.374L222.595 128.12ZM214.351 235.906L212.351 235.866L214.351 235.906ZM215.883 317.25L217.723 318.034L217.91 317.596L217.879 317.12L215.883 317.25ZM190.461 393.396L191.902 394.783L192.364 394.303L192.446 393.643L190.461 393.396ZM206.204 396.477L204.729 395.126L203.964 395.961L204.287 397.047L206.204 396.477ZM223.536 373.886L225.461 373.345L224.304 369.222L221.885 372.756L223.536 373.886ZM224.653 377.501L226.198 378.772L226.907 377.91L226.545 376.853L224.653 377.501ZM209.65 415.926L207.685 415.557L209.65 415.926ZM216.61 465.563L216.979 463.598L216.61 465.563ZM241.101 421.832L243.066 422.201L241.101 421.832ZM238.997 376.013L237.111 375.348L236.79 376.258L237.304 377.076L238.997 376.013ZM247.406 335.596L245.675 334.594L245.478 334.935L245.424 335.325L247.406 335.596ZM277.471 279.471L275.681 278.579L277.471 279.471ZM327.602 154.095L327.066 152.168L325.889 152.496L325.643 153.692L327.602 154.095ZM362.775 140.023L363.685 141.804L363.685 141.804L362.775 140.023ZM413.343 91.7325L415.124 90.8227L415.124 90.8227L413.343 91.7325ZM344.578 104.402L343.669 102.621L344.578 104.402ZM339.622 107.011L337.638 107.261L338.004 110.164L340.576 108.769L339.622 107.011ZM315.361 65.2408L314.039 66.7417L315.361 65.2408ZM301.026 157.022L301.419 155.061L300.081 154.792L299.343 155.94L301.026 157.022ZM302.665 157.286L304.271 158.478L306.311 155.729L302.914 155.302L302.665 157.286ZM253.581 169.197L254.533 167.438L251.418 165.753L251.584 169.29L253.581 169.197ZM254.343 236.712L256.342 236.752L256.342 236.752L254.343 236.712ZM254.338 236.974L252.338 236.934L256.105 237.91L254.338 236.974ZM273.198 44.8196C261.72 36.9067 249.254 32.4864 237.926 31.9393C226.597 31.3922 216.255 34.7286 209.389 42.5246L212.39 45.1683C218.246 38.52 227.268 35.4293 237.733 35.9347C248.201 36.4402 259.96 40.5519 270.927 48.1127L273.198 44.8196ZM209.389 42.5246C206.04 46.3272 203.838 50.8348 202.7 55.7582L206.597 56.659C207.598 52.327 209.515 48.4326 212.39 45.1683L209.389 42.5246ZM205.977 54.714C205.514 54.3022 205.049 53.8907 204.582 53.4794L201.938 56.4812C202.401 56.8884 202.861 57.2957 203.319 57.7033L205.977 54.714ZM204.582 53.4794C184.568 35.8528 164.619 21.871 148.509 13.5295C140.469 9.36597 133.283 6.55361 127.465 5.43737C121.802 4.35079 116.695 4.74215 113.75 8.08611L116.752 10.7298C118.181 9.10691 121.28 8.32354 126.711 9.3657C131.988 10.3782 138.784 12.998 146.67 17.0815C162.414 25.2338 182.095 39.0051 201.938 56.4812L204.582 53.4794ZM113.75 8.08611C110.805 11.4301 111.062 16.5458 112.856 22.026C114.698 27.6557 118.396 34.4291 123.542 41.8791C133.852 56.8052 150.242 74.8278 170.256 92.4544L172.9 89.4526C153.057 71.9765 136.909 54.1932 126.833 39.6057C121.786 32.2989 118.328 25.8884 116.657 20.7819C114.937 15.5258 115.323 12.3527 116.752 10.7298L113.75 8.08611ZM170.256 92.4544C188.368 108.405 206.42 121.366 221.619 129.866L223.571 126.374C208.672 118.042 190.849 105.261 172.9 89.4526L170.256 92.4544ZM220.619 127.809C216.307 155.177 213.206 193.473 212.351 235.866L216.351 235.946C217.202 193.673 220.295 155.568 224.57 128.431L220.619 127.809ZM212.351 235.866C211.747 265.858 212.349 293.839 213.887 317.38L217.879 317.12C216.349 293.707 215.748 265.841 216.351 235.946L212.351 235.866ZM214.043 316.466C199.705 350.094 190.365 377.918 188.476 393.15L192.446 393.643C194.258 379.031 203.38 351.674 217.723 318.034L214.043 316.466ZM189.02 392.01C182.076 399.225 175.096 413.343 170.61 430.087L174.474 431.122C178.883 414.667 185.633 401.297 191.902 394.783L189.02 392.01ZM170.61 430.087C167.175 442.908 165.79 455.064 166.379 464.386C166.673 469.036 167.465 473.097 168.82 476.208C170.164 479.295 172.215 481.763 175.185 482.559L176.221 478.695C174.924 478.347 173.596 477.158 172.487 474.611C171.388 472.087 170.65 468.536 170.372 464.134C169.817 455.351 171.12 443.64 174.474 431.122L170.61 430.087ZM175.185 482.559C178.156 483.355 181.166 482.243 183.873 480.241C186.602 478.225 189.318 475.104 191.897 471.224C197.068 463.445 201.948 452.225 205.383 439.404L201.52 438.369C198.166 450.887 193.438 461.681 188.566 469.009C186.124 472.683 183.71 475.389 181.496 477.025C179.262 478.676 177.518 479.042 176.221 478.695L175.185 482.559ZM205.383 439.404C210.069 421.916 210.977 405.511 208.121 395.907L204.287 397.047C206.83 405.6 206.135 421.144 201.52 438.369L205.383 439.404ZM207.679 397.828C212.712 392.333 218.645 384.574 225.186 375.015L221.885 372.756C215.394 382.242 209.581 389.828 204.729 395.126L207.679 397.828ZM221.61 374.426C221.983 375.754 222.367 376.997 222.761 378.149L226.545 376.853C226.179 375.782 225.817 374.612 225.461 373.345L221.61 374.426ZM223.109 376.231C216.748 383.963 210.878 398.55 207.685 415.557L211.616 416.295C214.754 399.583 220.453 385.756 226.198 378.772L223.109 376.231ZM207.685 415.557C205.235 428.603 204.78 440.83 206.077 450.08C206.724 454.694 207.823 458.682 209.41 461.681C210.986 464.657 213.218 466.961 216.241 467.529L216.979 463.598C215.659 463.35 214.245 462.265 212.945 459.809C211.658 457.377 210.651 453.892 210.039 449.524C208.817 440.809 209.224 429.033 211.616 416.295L207.685 415.557ZM216.241 467.529C219.264 468.096 222.18 466.759 224.728 464.557C227.295 462.339 229.765 459.02 232.042 454.955C236.606 446.805 240.617 435.246 243.066 422.201L239.135 421.463C236.744 434.2 232.852 445.322 228.552 453C226.397 456.849 224.195 459.731 222.112 461.531C220.01 463.347 218.299 463.845 216.979 463.598L216.241 467.529ZM243.066 422.201C244.985 411.985 245.677 402.287 245.27 394.131C244.867 386.053 243.373 379.22 240.691 374.95L237.304 377.076C239.431 380.465 240.882 386.457 241.275 394.331C241.664 402.128 241.004 411.509 239.135 421.463L243.066 422.201ZM240.884 376.679C244.074 367.637 246.973 353.515 249.387 335.867L245.424 335.325C243.019 352.907 240.162 366.701 237.111 375.348L240.884 376.679ZM249.137 336.597C258.857 319.796 269.098 300.756 279.261 280.363L275.681 278.579C265.552 298.903 255.35 317.87 245.675 334.594L249.137 336.597ZM279.261 280.363C305.545 227.626 324.363 179.787 329.561 154.498L325.643 153.692C320.555 178.442 301.941 225.891 275.681 278.579L279.261 280.363ZM328.138 156.022C338.85 153.042 351.124 148.221 363.685 141.804L361.865 138.242C349.508 144.554 337.484 149.271 327.066 152.168L328.138 156.022ZM363.685 141.804C380.284 133.325 394.355 123.607 403.682 114.7C408.335 110.256 411.893 105.933 413.966 101.991C416.007 98.1069 416.823 94.1494 415.124 90.8227L411.561 92.6424C412.374 94.2339 412.245 96.6677 410.425 100.13C408.636 103.534 405.416 107.513 400.919 111.807C391.944 120.379 378.219 129.888 361.865 138.242L363.685 141.804ZM415.124 90.8227C413.424 87.496 409.739 85.8376 405.396 85.2153C400.987 84.5837 395.399 84.933 389.071 86.0989C376.388 88.4355 360.268 94.1411 343.669 102.621L345.488 106.183C361.842 97.8286 377.59 92.2814 389.796 90.0327C395.911 88.9059 401.022 88.6295 404.829 89.1749C408.7 89.7296 410.748 91.0508 411.561 92.6424L415.124 90.8227ZM343.669 102.621C341.974 103.486 340.307 104.364 338.669 105.253L340.576 108.769C342.185 107.896 343.823 107.033 345.488 106.183L343.669 102.621ZM314.039 66.7417C327.757 78.8225 335.949 93.8767 337.638 107.261L341.607 106.76C339.773 92.2326 330.987 76.3373 316.683 63.7399L314.039 66.7417ZM272.013 48.4655C285.258 48.7927 300.713 55.0053 314.039 66.7417L316.683 63.7399C302.782 51.4974 286.455 44.8211 272.112 44.4668L272.013 48.4655ZM300.632 158.982C301.207 159.098 301.802 159.193 302.415 159.271L302.914 155.302C302.389 155.236 301.891 155.155 301.419 155.061L300.632 158.982ZM260.906 174.245C277.277 178.632 294.011 171.63 302.708 158.103L299.343 155.94C291.56 168.046 276.583 174.305 261.941 170.382L260.906 174.245ZM252.63 170.956C255.198 172.345 257.966 173.458 260.906 174.245L261.941 170.382C259.306 169.675 256.828 168.679 254.533 167.438L252.63 170.956ZM256.342 236.752C256.832 212.45 256.53 189.47 255.579 169.103L251.584 169.29C252.529 189.56 252.831 212.45 252.343 236.672L256.342 236.752ZM256.337 237.015L256.342 236.752L252.343 236.671L252.338 236.934L256.337 237.015ZM301.059 156.094C287.556 174.283 270.316 202.536 252.57 236.038L256.105 237.91C273.804 204.498 290.936 176.441 304.271 158.478L301.059 156.094Z" fill="#EDF6FF" mask="url(#path-1-inside-1_2137_414)"/>
<path d="M297.331 138.692C293.659 152.396 286.606 163.758 278.221 171.06C269.832 178.368 260.206 181.544 251.29 179.154C242.373 176.765 235.625 169.202 232.013 158.679C228.404 148.162 227.976 134.797 231.648 121.092C235.32 107.388 242.373 96.027 250.757 88.7242C259.147 81.4166 268.773 78.2409 277.689 80.6301C286.606 83.0192 293.354 90.5822 296.966 101.106C300.575 111.622 301.003 124.988 297.331 138.692Z" fill="#EDF6FF" stroke="#259DFF" stroke-width="2"/>
</svg>
