<svg width="636" height="576" viewBox="0 0 636 576" fill="none" xmlns="http://www.w3.org/2000/svg">
<path d="M299.714 137.65L297.956 144.702C289.469 178.742 244.849 186.954 224.798 158.167C209.618 136.372 178.003 134.632 160.522 154.628L150.746 165.811C142.892 174.796 138.336 186.19 137.83 198.112L133.403 302.378C133.179 307.669 131.542 312.803 128.664 317.249L104.347 354.802C95.08 369.113 110.382 386.603 125.797 379.32C128.878 377.864 131.448 375.513 133.171 372.574L144.868 352.63C167.893 313.369 196.333 317.466 241.811 315.648C250.276 315.309 260.091 314.671 271.465 313.685C342.598 307.515 298.958 215.396 360.536 179.255C370.025 173.685 377.53 171.091 379.338 172.24C387.44 177.389 345.785 278.556 344.526 284.495C324.678 378.133 413.61 241.378 415.026 321.324C416.442 401.27 495.383 360.759 511.761 339.106C562.759 271.681 495.956 241.397 481.964 234.78C478.14 232.971 473.661 228.906 469.143 223.873C457.45 210.849 467.278 191.421 484.714 189.888C490.288 189.398 496.287 191.455 495.689 197.018C493.781 214.779 470.807 251.617 555.174 253.499C638.544 255.359 603.588 202.226 592.972 171.431C589.468 161.266 590.609 150.053 590.103 139.313L587.922 93.052C587.457 83.1883 580.577 74.7976 570.995 72.4087C565.298 70.9881 559.27 71.8658 554.214 74.8522L520.935 94.5094C473.331 122.627 442.112 75.6606 387.051 70.6599C383.659 70.3518 379.939 70.3439 375.85 70.6763C330.337 74.3772 326.001 95.5964 312.076 114.379C306.803 121.493 301.856 129.058 299.714 137.65Z" fill="#EDF6FF" stroke="#259DFF" stroke-width="2"/>
<rect x="1.17432" y="1" width="315.859" height="246" rx="123" fill="#78C2FF" stroke="#259DFF" stroke-width="2"/>
<rect x="97.9948" y="149.662" width="173.06" height="134.586" rx="67.2928" transform="rotate(-45 97.9948 149.662)" fill="#EDF6FF" stroke="#259DFF" stroke-width="2"/>
<rect x="96.5806" y="27.9608" width="173.06" height="134.586" rx="67.2928" transform="rotate(45 96.5806 27.9608)" fill="#259DFF" stroke="#259DFF" stroke-width="2"/>
<path d="M125.337 321.533C127.999 317.272 134.579 319.159 134.578 324.183L134.566 395.382C134.566 397.796 135.81 400.04 137.858 401.32L198.244 439.039C202.505 441.701 200.619 448.281 195.594 448.28L124.396 448.268C121.981 448.268 119.737 449.512 118.458 451.56L80.7381 511.946C78.0762 516.207 71.4966 514.32 71.4974 509.296L71.509 438.098C71.5094 435.683 70.2654 433.439 68.2175 432.159L7.83165 394.44C3.57015 391.778 5.45681 385.198 10.4814 385.199L81.6798 385.211C84.0944 385.211 86.3387 383.967 87.6179 381.919L125.337 321.533Z" fill="#78C2FF" stroke="#259DFF" stroke-width="2"/>
<path d="M533.155 17.0492C534.262 13.1851 539.738 13.1851 540.845 17.0492L549.53 47.3559C550.1 49.3454 551.656 50.9007 553.645 51.4708L583.952 60.1558C587.816 61.2631 587.816 66.7389 583.952 67.8462L553.645 76.5311C551.656 77.1013 550.1 78.6566 549.53 80.6461L540.845 110.953C539.738 114.817 534.262 114.817 533.155 110.953L524.47 80.6461C523.9 78.6566 522.344 77.1013 520.355 76.5311L490.048 67.8462C486.184 66.7389 486.184 61.2631 490.048 60.1558L520.355 51.4708C522.344 50.9007 523.9 49.3454 524.47 47.3559L533.155 17.0492Z" fill="#EDF6FF" stroke="#259DFF" stroke-width="2"/>
<mask id="path-7-inside-1_4204_903" fill="white">
<path d="M546 333H372V498H546V333Z"/>
</mask>
<path d="M546 333H372V498H546V333Z" fill="#EDF6FF"/>
<path d="M546 498H548V500H546V498ZM372 496H546V500H372V496ZM544 498V333H548V498H544Z" fill="#259DFF" mask="url(#path-7-inside-1_4204_903)"/>
<path d="M371.149 495.198V333.304L313.76 285.48V431.433L371.149 495.198Z" fill="#EDF6FF" stroke="#259DFF" stroke-width="2"/>
<path d="M542.891 332L477.39 285H311.815L369.61 332H542.891Z" fill="#EDF6FF" stroke="#259DFF" stroke-width="2"/>
<mask id="path-11-inside-2_4204_903" fill="white">
<path fill-rule="evenodd" clip-rule="evenodd" d="M382.189 2.53798L382.579 3.15077C391.504 4.81913 400.402 16.9861 403.672 33.0349C407.456 51.6042 402.273 68.3386 392.095 70.4124C386.573 71.5375 380.715 68.1154 375.907 61.7832L374.93 64.4005C376.192 67.2182 377.283 70.3145 378.135 73.6115C379.87 80.3206 380.339 86.7813 379.714 92.1466C381.685 91.2306 383.652 90.4595 385.603 89.8404C386.927 89.4202 388.244 89.07 389.55 88.7921C398.489 84.5809 410.199 80.2041 423.24 76.402C453.282 67.6429 479.009 65.2502 480.702 71.0579C482.395 76.8655 459.414 88.6741 429.372 97.4332C425.953 98.4302 422.589 99.3447 419.311 100.174L419.317 100.184C421.126 100.527 423.012 101.057 424.932 101.77C433.488 101.247 442.816 102.279 452.227 105.079C482.22 114.006 501.689 137.521 495.713 157.602C492.679 167.796 483.671 175.145 471.613 178.744C476.815 187.736 482.089 207.916 484.866 231.359C487.221 251.239 487.224 268.758 485.295 279.09C489.824 279.706 495.221 281.094 500.809 283.207C514.256 288.291 523.711 295.646 521.927 299.634C520.143 303.622 507.796 302.733 494.349 297.648C481.16 292.661 471.812 285.491 473.139 281.455C468.37 271.563 463.718 252.795 461.168 231.278C458.59 209.516 458.831 190.583 461.339 180.809C451.869 181.881 441.28 180.983 430.585 177.8C425.216 176.202 420.184 174.137 415.575 171.707C415.12 172.66 414.65 173.612 414.166 174.563C413.143 176.571 412.076 178.529 410.971 180.436C411.231 182.276 411.46 184.138 411.658 186.021C412.875 197.592 412.762 208.658 411.539 218.576C423.622 228.047 432.273 243.275 434.149 261.121C437.511 293.107 417.833 321.391 390.196 324.296C382.729 325.08 375.444 323.932 368.722 321.206L259.058 554.081C253.624 565.621 239.864 570.57 228.324 565.136L225.785 563.94C214.245 558.506 209.296 544.746 214.73 533.206L222.005 517.757C213.172 511.883 209.288 500.47 213.286 490.174L317.646 221.424C320.215 214.808 325.497 210.048 331.727 207.922C325.76 197.123 324.493 181.393 328.143 164.245C321.727 166.708 314.573 169.121 306.965 171.339C276.923 180.098 251.197 182.491 249.503 176.683C248.204 172.225 261.442 164.232 281.252 156.796C279.599 156.8 277.931 156.791 276.249 156.768C237.05 156.224 205.378 148.221 205.508 138.893C205.6 132.237 221.859 126.705 245.408 124.279C242.593 119.939 241.068 115.187 241.137 110.222C241.412 90.3912 267.001 74.6668 298.291 75.1009C323.548 75.4513 344.799 86.2227 351.911 100.793C354.595 100.396 357.124 100.09 359.469 99.8781C355.646 95.3562 352.275 88.655 350.25 80.8211C348.224 72.9879 347.925 65.4933 349.077 59.6853C343.241 63.7106 335.139 64.2024 328.618 59.6051L320.953 54.2013C315.085 50.0641 314.821 41.4564 320.423 36.9663C321.141 36.3912 321.929 35.9102 322.768 35.5351L340.832 27.4627C341.407 23.3824 342.787 19.3603 345.096 15.5416C352.116 3.93181 362.639 -2.58064 382.189 2.53798Z"/>
</mask>
<path fill-rule="evenodd" clip-rule="evenodd" d="M382.189 2.53798L382.579 3.15077C391.504 4.81913 400.402 16.9861 403.672 33.0349C407.456 51.6042 402.273 68.3386 392.095 70.4124C386.573 71.5375 380.715 68.1154 375.907 61.7832L374.93 64.4005C376.192 67.2182 377.283 70.3145 378.135 73.6115C379.87 80.3206 380.339 86.7813 379.714 92.1466C381.685 91.2306 383.652 90.4595 385.603 89.8404C386.927 89.4202 388.244 89.07 389.55 88.7921C398.489 84.5809 410.199 80.2041 423.24 76.402C453.282 67.6429 479.009 65.2502 480.702 71.0579C482.395 76.8655 459.414 88.6741 429.372 97.4332C425.953 98.4302 422.589 99.3447 419.311 100.174L419.317 100.184C421.126 100.527 423.012 101.057 424.932 101.77C433.488 101.247 442.816 102.279 452.227 105.079C482.22 114.006 501.689 137.521 495.713 157.602C492.679 167.796 483.671 175.145 471.613 178.744C476.815 187.736 482.089 207.916 484.866 231.359C487.221 251.239 487.224 268.758 485.295 279.09C489.824 279.706 495.221 281.094 500.809 283.207C514.256 288.291 523.711 295.646 521.927 299.634C520.143 303.622 507.796 302.733 494.349 297.648C481.16 292.661 471.812 285.491 473.139 281.455C468.37 271.563 463.718 252.795 461.168 231.278C458.59 209.516 458.831 190.583 461.339 180.809C451.869 181.881 441.28 180.983 430.585 177.8C425.216 176.202 420.184 174.137 415.575 171.707C415.12 172.66 414.65 173.612 414.166 174.563C413.143 176.571 412.076 178.529 410.971 180.436C411.231 182.276 411.46 184.138 411.658 186.021C412.875 197.592 412.762 208.658 411.539 218.576C423.622 228.047 432.273 243.275 434.149 261.121C437.511 293.107 417.833 321.391 390.196 324.296C382.729 325.08 375.444 323.932 368.722 321.206L259.058 554.081C253.624 565.621 239.864 570.57 228.324 565.136L225.785 563.94C214.245 558.506 209.296 544.746 214.73 533.206L222.005 517.757C213.172 511.883 209.288 500.47 213.286 490.174L317.646 221.424C320.215 214.808 325.497 210.048 331.727 207.922C325.76 197.123 324.493 181.393 328.143 164.245C321.727 166.708 314.573 169.121 306.965 171.339C276.923 180.098 251.197 182.491 249.503 176.683C248.204 172.225 261.442 164.232 281.252 156.796C279.599 156.8 277.931 156.791 276.249 156.768C237.05 156.224 205.378 148.221 205.508 138.893C205.6 132.237 221.859 126.705 245.408 124.279C242.593 119.939 241.068 115.187 241.137 110.222C241.412 90.3912 267.001 74.6668 298.291 75.1009C323.548 75.4513 344.799 86.2227 351.911 100.793C354.595 100.396 357.124 100.09 359.469 99.8781C355.646 95.3562 352.275 88.655 350.25 80.8211C348.224 72.9879 347.925 65.4933 349.077 59.6853C343.241 63.7106 335.139 64.2024 328.618 59.6051L320.953 54.2013C315.085 50.0641 314.821 41.4564 320.423 36.9663C321.141 36.3912 321.929 35.9102 322.768 35.5351L340.832 27.4627C341.407 23.3824 342.787 19.3603 345.096 15.5416C352.116 3.93181 362.639 -2.58064 382.189 2.53798Z" fill="#EDF6FF"/>
<path d="M382.579 3.15077L380.891 4.2237L381.357 4.95706L382.211 5.11672L382.579 3.15077ZM382.189 2.53798L383.877 1.46506L383.456 0.802148L382.696 0.603195L382.189 2.53798ZM403.672 33.0349L401.712 33.4343L403.672 33.0349ZM392.095 70.4124L392.494 72.3721L392.095 70.4124ZM375.907 61.7832L377.5 60.5738L375.305 57.6818L374.034 61.0833L375.907 61.7832ZM374.93 64.4005L373.056 63.7007L372.769 64.4694L373.105 65.2183L374.93 64.4005ZM378.135 73.6115L376.199 74.1121L376.199 74.1121L378.135 73.6115ZM379.714 92.1466L377.727 91.9152L377.313 95.4671L380.556 93.9604L379.714 92.1466ZM385.603 89.8404L384.998 87.934L385.603 89.8404ZM389.55 88.7921L389.966 90.7482L390.193 90.7L390.402 90.6013L389.55 88.7921ZM423.24 76.402L423.8 78.322L423.24 76.402ZM480.702 71.0579L482.622 70.498L482.622 70.498L480.702 71.0579ZM429.372 97.4332L428.812 95.5132L429.372 97.4332ZM419.311 100.174L418.82 98.235L416.079 98.9283L417.646 101.282L419.311 100.174ZM419.317 100.184L417.652 101.292L418.118 101.992L418.944 102.149L419.317 100.184ZM424.932 101.77L424.235 103.645L424.632 103.792L425.054 103.767L424.932 101.77ZM452.227 105.079L452.798 103.163L452.227 105.079ZM495.713 157.602L493.796 157.032L495.713 157.602ZM471.613 178.744L471.041 176.827L468.613 177.552L469.882 179.745L471.613 178.744ZM484.866 231.359L486.852 231.123L484.866 231.359ZM485.295 279.09L483.329 278.723L482.943 280.789L485.026 281.072L485.295 279.09ZM500.809 283.207L500.101 285.077L500.809 283.207ZM521.927 299.634L520.101 298.817L521.927 299.634ZM494.349 297.648L493.641 299.519L494.349 297.648ZM473.139 281.455L475.039 282.08L475.292 281.313L474.941 280.586L473.139 281.455ZM461.168 231.278L459.182 231.513L461.168 231.278ZM461.339 180.809L463.276 181.306L463.997 178.495L461.114 178.821L461.339 180.809ZM430.585 177.8L430.014 179.717L430.585 177.8ZM415.575 171.707L416.507 169.938L414.667 168.968L413.77 170.845L415.575 171.707ZM414.166 174.563L415.948 175.471L414.166 174.563ZM410.971 180.436L409.241 179.433L408.894 180.031L408.991 180.716L410.971 180.436ZM411.539 218.576L409.554 218.331L409.416 219.453L410.305 220.15L411.539 218.576ZM368.722 321.206L369.474 319.353L367.719 318.642L366.913 320.354L368.722 321.206ZM259.058 554.081L260.868 554.933L259.058 554.081ZM228.324 565.136L227.472 566.946L227.472 566.946L228.324 565.136ZM225.785 563.94L226.637 562.131L226.637 562.131L225.785 563.94ZM214.73 533.206L212.921 532.354L212.921 532.354L214.73 533.206ZM222.005 517.757L223.814 518.609L224.55 517.048L223.112 516.092L222.005 517.757ZM213.286 490.174L215.15 490.898L215.15 490.898L213.286 490.174ZM317.646 221.424L315.782 220.7L315.782 220.7L317.646 221.424ZM331.727 207.922L332.373 209.815L334.632 209.044L333.477 206.955L331.727 207.922ZM328.143 164.245L330.099 164.662L330.866 161.058L327.426 162.378L328.143 164.245ZM306.965 171.339L306.406 169.419L306.965 171.339ZM249.503 176.683L251.424 176.123L249.503 176.683ZM281.252 156.796L281.955 158.668L281.247 154.796L281.252 156.796ZM276.249 156.768L276.221 158.767L276.221 158.767L276.249 156.768ZM205.508 138.893L203.508 138.865L205.508 138.893ZM245.408 124.279L245.613 126.269L248.864 125.934L247.086 123.191L245.408 124.279ZM241.137 110.222L239.138 110.195L239.138 110.195L241.137 110.222ZM298.291 75.1009L298.263 77.1007L298.291 75.1009ZM351.911 100.793L350.113 101.67L350.755 102.986L352.203 102.771L351.911 100.793ZM359.469 99.8781L359.649 101.87L363.479 101.524L360.996 98.5869L359.469 99.8781ZM350.25 80.8211L352.186 80.3205L350.25 80.8211ZM349.077 59.6853L351.038 60.0744L351.997 55.2412L347.941 58.039L349.077 59.6853ZM328.618 59.6051L327.466 61.2397L328.618 59.6051ZM320.953 54.2013L322.106 52.5667L320.953 54.2013ZM320.423 36.9663L321.674 38.5269L321.674 38.5269L320.423 36.9663ZM322.768 35.5351L321.952 33.7091L321.952 33.7091L322.768 35.5351ZM340.832 27.4627L341.648 29.2887L342.658 28.8374L342.812 27.7421L340.832 27.4627ZM345.096 15.5416L346.808 16.5764L346.808 16.5764L345.096 15.5416ZM384.267 2.07784L383.877 1.46506L380.501 3.61091L380.891 4.2237L384.267 2.07784ZM405.632 32.6356C403.949 24.3747 400.807 17.0527 396.874 11.5389C392.975 6.07152 388.125 2.15278 382.946 1.18482L382.211 5.11672C385.958 5.81713 390.019 8.81602 393.618 13.8615C397.183 18.8603 400.125 25.6463 401.712 33.4343L405.632 32.6356ZM392.494 72.3721C398.632 71.1216 402.842 65.5636 405.029 58.5012C407.242 51.3588 407.578 42.185 405.632 32.6356L401.712 33.4343C403.55 42.4541 403.186 50.9322 401.209 57.3178C399.206 63.7834 395.736 67.6294 391.696 68.4526L392.494 72.3721ZM374.315 62.9926C379.292 69.5476 385.836 73.7287 392.494 72.3721L391.696 68.4526C387.31 69.3463 382.139 66.6833 377.5 60.5738L374.315 62.9926ZM376.803 65.1004L377.781 62.4831L374.034 61.0833L373.056 63.7007L376.803 65.1004ZM380.072 73.1109C379.192 69.7085 378.065 66.5059 376.755 63.5828L373.105 65.2183C374.32 67.9305 375.374 70.9205 376.199 74.1121L380.072 73.1109ZM381.7 92.378C382.358 86.7333 381.859 80.0229 380.072 73.1109L376.199 74.1121C377.881 80.6182 378.319 86.8292 377.727 91.9152L381.7 92.378ZM384.998 87.934C382.961 88.5807 380.914 89.3834 378.871 90.3328L380.556 93.9604C382.456 93.0777 384.344 92.3383 386.208 91.7467L384.998 87.934ZM389.134 86.8359C387.761 87.128 386.381 87.4952 384.998 87.934L386.208 91.7467C387.473 91.3452 388.727 91.012 389.966 90.7482L389.134 86.8359ZM422.68 74.4819C409.562 78.3068 397.75 82.7183 388.698 86.9828L390.402 90.6013C399.228 86.4436 410.837 82.1014 423.8 78.322L422.68 74.4819ZM482.622 70.498C482.2 69.0491 481.089 68.0941 479.891 67.4807C478.693 66.8672 477.191 66.4756 475.523 66.232C472.175 65.7431 467.68 65.7865 462.417 66.276C451.857 67.2581 437.785 70.0779 422.68 74.4819L423.8 78.322C438.737 73.967 452.55 71.2109 462.787 70.2588C467.923 69.7812 472.055 69.768 474.945 70.19C476.397 70.4021 477.417 70.7079 478.068 71.041C478.718 71.3741 478.781 71.6147 478.782 71.6177L482.622 70.498ZM429.932 99.3533C445.037 94.9492 458.419 89.7646 467.852 84.9176C472.553 82.5018 476.367 80.1228 478.928 77.9109C480.204 76.8094 481.26 75.6718 481.94 74.5106C482.621 73.3495 483.045 71.947 482.622 70.498L478.782 71.6177C478.783 71.6206 478.859 71.8575 478.489 72.4881C478.12 73.1185 477.424 73.9247 476.314 74.8838C474.103 76.7931 470.611 79.0027 466.024 81.3598C456.879 86.0588 443.749 91.1581 428.812 95.5132L429.932 99.3533ZM419.801 102.113C423.103 101.278 426.49 100.357 429.932 99.3533L428.812 95.5132C425.416 96.5035 422.075 97.4117 418.82 98.235L419.801 102.113ZM420.982 99.0756L420.976 99.0659L417.646 101.282L417.652 101.292L420.982 99.0756ZM425.628 99.8955C423.612 99.1464 421.618 98.5843 419.69 98.2186L418.944 102.149C420.634 102.469 422.411 102.967 424.235 103.645L425.628 99.8955ZM452.798 103.163C443.173 100.298 433.61 99.2359 424.81 99.774L425.054 103.767C433.366 103.258 442.46 104.259 451.657 106.996L452.798 103.163ZM497.63 158.173C500.867 147.295 497.144 135.719 488.999 125.882C480.844 116.033 468.121 107.723 452.798 103.163L451.657 106.996C466.326 111.362 478.334 119.273 485.918 128.433C493.512 137.605 496.535 147.827 493.796 157.032L497.63 158.173ZM472.185 180.66C484.656 176.939 494.343 169.216 497.63 158.173L493.796 157.032C491.015 166.376 482.686 173.352 471.041 176.827L472.185 180.66ZM486.852 231.123C485.455 219.327 483.427 208.334 481.087 199.139C478.757 189.984 476.084 182.479 473.344 177.742L469.882 179.745C472.344 184.001 474.909 191.082 477.211 200.126C479.502 209.13 481.5 219.948 482.88 231.594L486.852 231.123ZM487.261 279.457C489.244 268.834 489.217 251.083 486.852 231.123L482.88 231.594C485.226 251.394 485.203 268.681 483.329 278.723L487.261 279.457ZM501.516 281.336C495.811 279.179 490.266 277.747 485.564 277.109L485.026 281.072C489.381 281.664 494.631 283.009 500.101 285.077L501.516 281.336ZM523.753 300.451C524.602 298.552 523.954 296.592 522.959 295.027C521.94 293.424 520.307 291.808 518.307 290.253C514.286 287.125 508.369 283.927 501.516 281.336L500.101 285.077C506.695 287.571 512.23 290.593 515.852 293.41C517.674 294.828 518.911 296.116 519.583 297.173C520.279 298.268 520.144 298.722 520.101 298.817L523.753 300.451ZM493.641 299.519C500.497 302.111 507.139 303.661 512.368 304.038C514.971 304.225 517.333 304.131 519.234 303.663C521.066 303.213 522.928 302.294 523.753 300.451L520.101 298.817C520.034 298.968 519.684 299.433 518.279 299.779C516.943 300.108 515.043 300.22 512.655 300.048C507.903 299.706 501.647 298.27 495.056 295.777L493.641 299.519ZM471.24 280.83C470.619 282.715 471.355 284.596 472.385 286.111C473.448 287.675 475.088 289.256 477.086 290.784C481.099 293.852 486.918 296.977 493.641 299.519L495.056 295.777C488.591 293.333 483.141 290.378 479.515 287.606C477.693 286.213 476.421 284.933 475.693 283.862C474.931 282.742 474.996 282.212 475.039 282.08L471.24 280.83ZM459.182 231.513C461.74 253.106 466.425 272.134 471.338 282.323L474.941 280.586C470.315 270.992 465.695 252.484 463.154 231.043L459.182 231.513ZM459.402 180.312C456.799 190.458 456.598 209.696 459.182 231.513L463.154 231.043C460.583 209.336 460.864 190.707 463.276 181.306L459.402 180.312ZM430.014 179.717C440.951 182.972 451.811 183.901 461.564 182.796L461.114 178.821C451.927 179.862 441.608 178.994 431.155 175.883L430.014 179.717ZM414.642 173.477C419.368 175.968 424.521 178.082 430.014 179.717L431.155 175.883C425.91 174.322 420.999 172.306 416.507 169.938L414.642 173.477ZM415.948 175.471C416.44 174.505 416.917 173.538 417.379 172.57L413.77 170.845C413.322 171.783 412.86 172.719 412.383 173.655L415.948 175.471ZM412.702 181.439C413.825 179.501 414.908 177.511 415.948 175.471L412.383 173.655C411.377 175.631 410.328 177.558 409.241 179.433L412.702 181.439ZM413.647 185.812C413.447 183.905 413.215 182.019 412.952 180.156L408.991 180.716C409.247 182.532 409.474 184.37 409.669 186.23L413.647 185.812ZM413.524 218.821C414.767 208.742 414.878 197.524 413.647 185.812L409.669 186.23C410.871 197.661 410.758 208.573 409.554 218.331L413.524 218.821ZM436.138 260.912C434.209 242.555 425.303 226.824 412.773 217.002L410.305 220.15C421.941 229.271 430.338 243.996 432.16 261.33L436.138 260.912ZM390.406 326.285C419.403 323.237 439.586 293.713 436.138 260.912L432.16 261.33C435.436 292.5 416.262 319.545 389.987 322.307L390.406 326.285ZM367.971 323.06C374.981 325.902 382.595 327.106 390.406 326.285L389.987 322.307C382.862 323.055 375.907 321.961 369.474 319.353L367.971 323.06ZM260.868 554.933L370.532 322.058L366.913 320.354L257.249 553.229L260.868 554.933ZM227.472 566.946C240.011 572.85 254.963 567.472 260.868 554.933L257.249 553.229C252.285 563.769 239.717 568.29 229.176 563.327L227.472 566.946ZM224.933 565.75L227.472 566.946L229.176 563.327L226.637 562.131L224.933 565.75ZM212.921 532.354C207.016 544.893 212.394 559.845 224.933 565.75L226.637 562.131C216.097 557.167 211.576 544.599 216.539 534.058L212.921 532.354ZM220.196 516.905L212.921 532.354L216.539 534.058L223.814 518.609L220.196 516.905ZM211.422 489.45C207.077 500.639 211.299 513.04 220.897 519.423L223.112 516.092C215.045 510.727 211.5 500.3 215.15 490.898L211.422 489.45ZM315.782 220.7L211.422 489.45L215.15 490.898L319.51 222.148L315.782 220.7ZM331.081 206.029C324.317 208.338 318.573 213.511 315.782 220.7L319.51 222.148C321.857 216.105 326.678 211.758 332.373 209.815L331.081 206.029ZM326.187 163.829C322.48 181.247 323.693 197.519 329.976 208.889L333.477 206.955C327.826 196.727 326.507 181.538 330.099 164.662L326.187 163.829ZM307.525 173.259C315.182 171.027 322.389 168.596 328.859 166.113L327.426 162.378C321.065 164.819 313.963 167.215 306.406 169.419L307.525 173.259ZM247.583 177.243C248.006 178.692 249.117 179.647 250.315 180.26C251.513 180.874 253.015 181.265 254.683 181.509C258.031 181.998 262.526 181.954 267.789 181.465C278.349 180.483 292.42 177.663 307.525 173.259L306.406 169.419C291.469 173.774 277.656 176.53 267.418 177.482C262.283 177.96 258.151 177.973 255.261 177.551C253.809 177.339 252.789 177.033 252.138 176.7C251.488 176.367 251.424 176.126 251.424 176.123L247.583 177.243ZM280.549 154.923C270.581 158.665 262.186 162.575 256.408 166.156C253.533 167.938 251.203 169.701 249.656 171.389C248.212 172.965 246.941 175.04 247.583 177.243L251.424 176.123C251.416 176.097 251.313 175.501 252.604 174.092C253.792 172.796 255.767 171.259 258.515 169.556C263.984 166.167 272.113 162.363 281.955 158.668L280.549 154.923ZM276.221 158.767C277.914 158.791 279.593 158.8 281.257 158.796L281.247 154.796C279.605 154.8 277.947 154.791 276.277 154.768L276.221 158.767ZM203.508 138.865C203.459 142.39 206.357 145.163 209.989 147.274C213.784 149.479 219.16 151.426 225.64 153.063C238.633 156.346 256.513 158.494 276.221 158.767L276.277 154.768C256.786 154.497 239.231 152.372 226.62 149.185C220.299 147.588 215.331 145.752 211.999 143.815C208.504 141.785 207.492 140.061 207.507 138.921L203.508 138.865ZM245.203 122.29C233.348 123.511 223.219 125.523 215.986 128.117C212.381 129.411 209.38 130.889 207.236 132.568C205.117 134.229 203.543 136.328 203.508 138.865L207.507 138.921C207.518 138.131 208.012 137.042 209.703 135.717C211.37 134.411 213.923 133.107 217.337 131.882C224.144 129.44 233.919 127.473 245.613 126.269L245.203 122.29ZM239.138 110.195C239.062 115.604 240.728 120.738 243.73 125.367L247.086 123.191C244.458 119.139 243.074 114.77 243.137 110.25L239.138 110.195ZM298.319 73.1011C282.354 72.8796 267.749 76.7752 257.037 83.3582C246.349 89.9258 239.288 99.3542 239.138 110.195L243.137 110.25C243.262 101.259 249.133 92.9099 259.131 86.7661C269.104 80.6377 282.938 76.8881 298.263 77.1007L298.319 73.1011ZM353.708 99.9157C349.9 92.1128 342.407 85.5042 332.781 80.8164C323.134 76.1182 311.214 73.28 298.319 73.1011L298.263 77.1007C310.625 77.2722 321.959 79.9949 331.03 84.4126C340.122 88.8406 346.81 94.9028 350.113 101.67L353.708 99.9157ZM359.289 97.8862C356.901 98.102 354.334 98.4127 351.618 98.8145L352.203 102.771C354.855 102.379 357.346 102.078 359.649 101.87L359.289 97.8862ZM348.313 81.3217C350.397 89.3832 353.886 96.3728 357.942 101.169L360.996 98.5869C357.405 94.3396 354.152 87.9268 352.186 80.3205L348.313 81.3217ZM347.115 59.2962C345.893 65.457 346.229 73.261 348.313 81.3217L352.186 80.3205C350.219 72.7149 349.956 65.5296 351.038 60.0744L347.115 59.2962ZM347.941 58.039C342.742 61.625 335.555 62.0489 329.771 57.9706L327.466 61.2397C334.722 66.356 343.74 65.7962 350.212 61.3316L347.941 58.039ZM329.771 57.9706L322.106 52.5667L319.801 55.8359L327.466 61.2397L329.771 57.9706ZM322.106 52.5667C317.326 49.1965 317.11 42.1846 321.674 38.5269L319.172 35.4057C312.531 40.7282 312.845 50.9317 319.801 55.8359L322.106 52.5667ZM321.674 38.5269C322.258 38.0585 322.9 37.6667 323.584 37.361L321.952 33.7091C320.957 34.1538 320.023 34.724 319.172 35.4057L321.674 38.5269ZM323.584 37.361L341.648 29.2887L340.016 25.6367L321.952 33.7091L323.584 37.361ZM343.385 14.5068C340.934 18.5605 339.464 22.8403 338.851 27.1833L342.812 27.7421C343.351 23.9245 344.641 20.16 346.808 16.5764L343.385 14.5068ZM382.696 0.603195C372.64 -2.02961 364.654 -1.7352 358.185 0.916045C351.713 3.56864 347.036 8.46769 343.385 14.5068L346.808 16.5764C350.176 11.0057 354.27 6.84366 359.702 4.61723C365.137 2.38945 372.188 1.98695 381.683 4.47277L382.696 0.603195Z" fill="#259DFF" mask="url(#path-11-inside-2_4204_903)"/>
<mask id="path-13-inside-3_4204_903" fill="white">
<path fill-rule="evenodd" clip-rule="evenodd" d="M308.677 117.216C302.614 120.802 315.955 148.059 338.475 178.097C360.995 208.134 384.166 229.576 390.229 225.99C390.735 225.691 391.106 225.226 391.347 224.61C400.043 220.13 411.893 201.719 420.32 178.481C426.007 162.8 428.934 148.232 428.925 138.038C435.125 140.54 442.978 142.774 451.471 144.278C471.039 147.744 486.595 146.028 486.215 140.445C485.835 134.863 469.664 127.527 450.095 124.061C432.814 121 418.662 121.981 415.852 126.097C407.47 132.388 396.966 149.538 389.297 170.686C385.785 180.372 383.325 189.633 381.96 197.701C376.578 188.081 369.2 176.806 360.431 165.109C337.911 135.072 314.74 113.63 308.677 117.216Z"/>
</mask>
<path fill-rule="evenodd" clip-rule="evenodd" d="M308.677 117.216C302.614 120.802 315.955 148.059 338.475 178.097C360.995 208.134 384.166 229.576 390.229 225.99C390.735 225.691 391.106 225.226 391.347 224.61C400.043 220.13 411.893 201.719 420.32 178.481C426.007 162.8 428.934 148.232 428.925 138.038C435.125 140.54 442.978 142.774 451.471 144.278C471.039 147.744 486.595 146.028 486.215 140.445C485.835 134.863 469.664 127.527 450.095 124.061C432.814 121 418.662 121.981 415.852 126.097C407.47 132.388 396.966 149.538 389.297 170.686C385.785 180.372 383.325 189.633 381.96 197.701C376.578 188.081 369.2 176.806 360.431 165.109C337.911 135.072 314.74 113.63 308.677 117.216Z" fill="#EDF6FF"/>
<path d="M338.475 178.097L340.076 176.897L338.475 178.097ZM308.677 117.216L309.695 118.937V118.937L308.677 117.216ZM390.229 225.99L389.211 224.268L389.211 224.268L390.229 225.99ZM391.347 224.61L389.485 223.88L389.76 223.177L390.431 222.832L391.347 224.61ZM420.32 178.481L422.2 179.163L420.32 178.481ZM428.925 138.038L426.925 138.04L426.923 135.073L429.674 136.183L428.925 138.038ZM451.471 144.278L451.122 146.247L451.471 144.278ZM450.095 124.061L449.747 126.031L450.095 124.061ZM415.852 126.097L417.504 127.225L417.317 127.498L417.053 127.697L415.852 126.097ZM389.297 170.686L391.177 171.368L389.297 170.686ZM381.96 197.701L383.932 198.035L382.985 203.63L380.214 198.678L381.96 197.701ZM360.431 165.109L362.031 163.909L360.431 165.109ZM336.875 179.296C325.565 164.211 316.525 149.779 311.061 138.616C308.338 133.053 306.452 128.199 305.652 124.433C305.254 122.56 305.093 120.817 305.315 119.334C305.54 117.828 306.207 116.353 307.659 115.495L309.695 118.937C309.631 118.975 309.389 119.137 309.271 119.925C309.15 120.736 309.213 121.946 309.565 123.602C310.264 126.894 311.985 131.404 314.654 136.858C319.975 147.73 328.865 161.945 340.076 176.897L336.875 179.296ZM391.247 227.711C389.854 228.536 388.221 228.498 386.722 228.138C385.197 227.773 383.516 227.007 381.742 225.97C378.184 223.889 373.893 220.495 369.165 216.12C359.689 207.35 348.186 194.383 336.875 179.296L340.076 176.897C351.284 191.847 362.628 204.62 371.882 213.184C376.52 217.476 380.566 220.648 383.762 222.517C385.365 223.455 386.664 224.011 387.655 224.249C388.671 224.492 389.089 224.341 389.211 224.268L391.247 227.711ZM393.21 225.339C392.833 226.301 392.197 227.149 391.247 227.711L389.211 224.268C389.273 224.232 389.379 224.152 389.485 223.88L393.21 225.339ZM390.431 222.832C394.274 220.852 399.171 215.531 404.244 207.51C409.259 199.583 414.268 189.304 418.44 177.799L422.2 179.163C417.946 190.896 412.816 201.441 407.625 209.649C402.492 217.763 397.117 223.887 392.263 226.388L390.431 222.832ZM418.44 177.799C424.08 162.245 426.933 147.919 426.925 138.04L430.925 138.036C430.934 148.545 427.933 163.355 422.2 179.163L418.44 177.799ZM429.674 136.183C435.726 138.626 443.443 140.825 451.82 142.309L451.122 146.247C442.513 144.722 434.524 142.455 428.177 139.893L429.674 136.183ZM451.82 142.309C461.486 144.021 470.065 144.433 476.104 143.767C479.147 143.431 481.383 142.838 482.774 142.113C484.177 141.382 484.236 140.817 484.219 140.581L488.21 140.31C488.384 142.865 486.641 144.608 484.623 145.66C482.592 146.719 479.787 147.385 476.543 147.743C470.007 148.464 461.025 148.001 451.122 146.247L451.82 142.309ZM484.219 140.581C484.184 140.06 483.684 139.021 481.9 137.568C480.208 136.191 477.709 134.726 474.525 133.281C468.172 130.399 459.403 127.741 449.747 126.031L450.444 122.092C460.356 123.847 469.457 126.59 476.177 129.638C479.529 131.159 482.367 132.79 484.426 134.467C486.392 136.068 488.056 138.04 488.21 140.31L484.219 140.581ZM449.747 126.031C441.218 124.52 433.523 124.019 427.671 124.384C424.74 124.567 422.34 124.963 420.555 125.521C418.698 126.101 417.821 126.76 417.504 127.225L414.2 124.97C415.288 123.376 417.233 122.369 419.361 121.703C421.559 121.016 424.304 120.586 427.422 120.392C433.669 120.002 441.691 120.541 450.444 122.092L449.747 126.031ZM417.053 127.697C413.169 130.612 408.607 136.211 404.022 143.849C399.464 151.443 394.973 160.9 391.177 171.368L387.417 170.004C391.29 159.324 395.886 149.631 400.593 141.791C405.273 133.994 410.154 127.873 414.652 124.498L417.053 127.697ZM391.177 171.368C387.7 180.956 385.274 190.101 383.932 198.035L379.988 197.367C381.376 189.166 383.869 179.788 387.417 170.004L391.177 171.368ZM362.031 163.909C370.844 175.664 378.272 187.014 383.705 196.725L380.214 198.678C374.883 189.148 367.557 177.948 358.83 166.309L362.031 163.909ZM307.659 115.495C309.052 114.67 310.685 114.708 312.184 115.067C313.709 115.433 315.39 116.198 317.164 117.236C320.722 119.317 325.013 122.711 329.741 127.086C339.217 135.856 350.72 148.823 362.031 163.909L358.83 166.309C347.622 151.359 336.278 138.586 327.024 130.022C322.386 125.73 318.34 122.558 315.144 120.689C313.541 119.751 312.242 119.195 311.251 118.957C310.235 118.713 309.817 118.865 309.695 118.937L307.659 115.495Z" fill="#259DFF" mask="url(#path-13-inside-3_4204_903)"/>
<path d="M367.495 43.1379C369.759 51.5807 373.911 58.611 378.743 63.1631C383.588 67.7279 388.982 69.6955 393.829 68.3958C398.676 67.096 402.362 62.6936 404.274 56.3172C406.179 49.9585 406.257 41.7939 403.994 33.351C401.73 24.9082 397.577 17.8779 392.746 13.3258C387.901 8.76105 382.507 6.79338 377.659 8.09313C372.812 9.39288 369.126 13.7953 367.215 20.1717C365.309 26.5304 365.231 34.695 367.495 43.1379Z" fill="#78C2FF" stroke="#259DFF" stroke-width="2"/>
</svg>
