<svg width="638" height="773" viewBox="0 0 638 773" fill="none" xmlns="http://www.w3.org/2000/svg">
<rect x="107.5" y="106.5" width="477" height="583" rx="238.5" fill="#78C2FF" stroke="#259DFF"/>
<mask id="path-2-inside-1_4200_400" fill="white">
<path fill-rule="evenodd" clip-rule="evenodd" d="M279.899 54.9183L259.683 39.6442C213.873 44.3068 215.825 78.4672 217.936 115.408V115.408L217.936 115.408C218.304 121.862 218.678 128.401 218.803 134.882H256.299C257.288 139.45 258.722 143.672 260.48 147.389C252.238 152.628 244.887 160.961 238.917 171.556C237.172 168.478 234.785 166.282 231.817 165.3C221.535 161.9 208.17 174.351 201.966 193.11C200.803 196.626 199.974 200.114 199.462 203.483C189.946 213.468 178.808 227.497 167.888 243.721C158.405 257.809 150.518 271.426 144.894 283.001C143.106 285.598 141.311 288.233 139.514 290.904C116.956 324.417 99.3277 355.407 91.1755 374.787C86.5318 379.174 81.4711 385.309 76.7831 392.522C65.8995 409.27 61.1457 425.491 66.1651 428.753C71.1845 432.015 84.0765 421.083 94.9601 404.335C99.9077 396.722 103.589 389.217 105.66 382.989C119.407 369.058 138.938 344.468 159.271 314.891C170.423 306.616 187.227 287.275 203.544 263.033C211.221 251.628 217.853 240.531 223.084 230.576C222.926 233.534 222.846 236.529 222.846 239.556C222.846 261.173 226.952 281.161 233.913 297.395C234.424 307.244 235.605 316.653 237.356 325.402C219.116 339.648 207.122 363.79 207.122 391.173C207.122 403.152 209.417 414.51 213.526 424.69L232.125 767.091L359.902 760.15L341.127 414.499C343.085 407.124 344.139 399.291 344.139 391.173C344.139 366.741 334.591 344.889 319.577 330.344C321.326 322.79 322.638 314.681 323.444 306.17C332.946 288.647 338.749 265.252 338.749 239.556C338.749 227.951 337.565 216.816 335.392 206.479C337.185 208.446 339.168 210.363 341.326 212.194C344.15 214.588 347.073 216.663 350.004 218.399C355.698 230.964 364.533 246.547 375.485 262.751C384.995 276.82 394.666 289.234 403.291 298.785C405.028 301.416 406.8 304.067 408.602 306.734C430.873 339.683 452.666 367.287 467.569 382.275C469.141 388.539 478.548 398.716 491.676 407.708C508.155 418.995 524.256 424.141 527.638 419.202C531.021 414.263 520.405 401.109 503.927 389.823C496.848 384.974 489.839 381.259 483.877 378.989C477.392 361.543 460.564 331.131 438.245 297.402C434.751 283.962 423.113 261.136 406.749 236.924C398.762 225.109 390.662 214.461 383.164 205.696C381.003 198.1 375.211 189.509 366.693 182.285C351.623 169.504 333.729 165.839 326.724 174.098C326.128 174.8 325.631 175.566 325.228 176.388C317.351 160.438 306.55 148.792 294.225 143.828C295.235 138.173 295.334 131.679 294.321 124.896C292.35 111.703 286.674 100.788 279.899 95.58V54.9183Z"/>
</mask>
<path fill-rule="evenodd" clip-rule="evenodd" d="M279.899 54.9183L259.683 39.6442C213.873 44.3068 215.825 78.4672 217.936 115.408V115.408L217.936 115.408C218.304 121.862 218.678 128.401 218.803 134.882H256.299C257.288 139.45 258.722 143.672 260.48 147.389C252.238 152.628 244.887 160.961 238.917 171.556C237.172 168.478 234.785 166.282 231.817 165.3C221.535 161.9 208.17 174.351 201.966 193.11C200.803 196.626 199.974 200.114 199.462 203.483C189.946 213.468 178.808 227.497 167.888 243.721C158.405 257.809 150.518 271.426 144.894 283.001C143.106 285.598 141.311 288.233 139.514 290.904C116.956 324.417 99.3277 355.407 91.1755 374.787C86.5318 379.174 81.4711 385.309 76.7831 392.522C65.8995 409.27 61.1457 425.491 66.1651 428.753C71.1845 432.015 84.0765 421.083 94.9601 404.335C99.9077 396.722 103.589 389.217 105.66 382.989C119.407 369.058 138.938 344.468 159.271 314.891C170.423 306.616 187.227 287.275 203.544 263.033C211.221 251.628 217.853 240.531 223.084 230.576C222.926 233.534 222.846 236.529 222.846 239.556C222.846 261.173 226.952 281.161 233.913 297.395C234.424 307.244 235.605 316.653 237.356 325.402C219.116 339.648 207.122 363.79 207.122 391.173C207.122 403.152 209.417 414.51 213.526 424.69L232.125 767.091L359.902 760.15L341.127 414.499C343.085 407.124 344.139 399.291 344.139 391.173C344.139 366.741 334.591 344.889 319.577 330.344C321.326 322.79 322.638 314.681 323.444 306.17C332.946 288.647 338.749 265.252 338.749 239.556C338.749 227.951 337.565 216.816 335.392 206.479C337.185 208.446 339.168 210.363 341.326 212.194C344.15 214.588 347.073 216.663 350.004 218.399C355.698 230.964 364.533 246.547 375.485 262.751C384.995 276.82 394.666 289.234 403.291 298.785C405.028 301.416 406.8 304.067 408.602 306.734C430.873 339.683 452.666 367.287 467.569 382.275C469.141 388.539 478.548 398.716 491.676 407.708C508.155 418.995 524.256 424.141 527.638 419.202C531.021 414.263 520.405 401.109 503.927 389.823C496.848 384.974 489.839 381.259 483.877 378.989C477.392 361.543 460.564 331.131 438.245 297.402C434.751 283.962 423.113 261.136 406.749 236.924C398.762 225.109 390.662 214.461 383.164 205.696C381.003 198.1 375.211 189.509 366.693 182.285C351.623 169.504 333.729 165.839 326.724 174.098C326.128 174.8 325.631 175.566 325.228 176.388C317.351 160.438 306.55 148.792 294.225 143.828C295.235 138.173 295.334 131.679 294.321 124.896C292.35 111.703 286.674 100.788 279.899 95.58V54.9183Z" fill="#259DFF"/>
<path d="M259.683 39.6442L260.495 38.5689L260.073 38.2498L259.547 38.3034L259.683 39.6442ZM279.899 54.9183H281.246V54.2474L280.711 53.843L279.899 54.9183ZM217.936 115.408H219.283V115.369L219.281 115.331L217.936 115.408ZM217.936 115.408H216.588V115.483L216.596 115.557L217.936 115.408ZM217.936 115.408L219.281 115.332L219.279 115.296L219.275 115.26L217.936 115.408ZM218.803 134.882L217.455 134.908L217.48 136.23H218.803V134.882ZM256.299 134.882L257.617 134.597L257.386 133.535H256.299V134.882ZM260.48 147.389L261.203 148.527L262.207 147.889L261.698 146.813L260.48 147.389ZM238.917 171.556L237.744 172.221L238.92 174.295L240.091 172.218L238.917 171.556ZM231.817 165.3L232.24 164.021L231.817 165.3ZM201.966 193.11L200.686 192.687H200.686L201.966 193.11ZM199.462 203.483L200.438 204.412L200.731 204.105L200.795 203.685L199.462 203.483ZM167.888 243.721L166.77 242.968L167.888 243.721ZM144.894 283.001L146.004 283.765L146.061 283.681L146.106 283.59L144.894 283.001ZM139.514 290.904L140.632 291.656L139.514 290.904ZM91.1755 374.787L92.1009 375.767L92.3075 375.572L92.4177 375.31L91.1755 374.787ZM76.7831 392.522L75.653 391.788H75.653L76.7831 392.522ZM66.1651 428.753L66.8995 427.623H66.8995L66.1651 428.753ZM94.9601 404.335L93.83 403.601H93.83L94.9601 404.335ZM105.66 382.989L104.701 382.043L104.481 382.266L104.382 382.564L105.66 382.989ZM159.271 314.891L158.468 313.809L158.287 313.943L158.16 314.128L159.271 314.891ZM203.544 263.033L202.426 262.281L203.544 263.033ZM223.084 230.576L224.43 230.648L221.891 229.949L223.084 230.576ZM233.913 297.395L235.259 297.325L235.247 297.085L235.152 296.864L233.913 297.395ZM237.356 325.402L238.186 326.464L238.841 325.953L238.678 325.138L237.356 325.402ZM213.526 424.69L214.872 424.617L214.86 424.394L214.776 424.186L213.526 424.69ZM232.125 767.091L230.779 767.164L230.852 768.51L232.198 768.437L232.125 767.091ZM359.902 760.15L359.975 761.496L361.321 761.423L361.248 760.077L359.902 760.15ZM341.127 414.499L339.824 414.153L339.77 414.359L339.781 414.572L341.127 414.499ZM319.577 330.344L318.264 330.04L318.093 330.782L318.64 331.312L319.577 330.344ZM323.444 306.17L322.26 305.528L322.129 305.77L322.103 306.043L323.444 306.17ZM335.392 206.479L336.388 205.571L333.055 201.915L334.073 206.756L335.392 206.479ZM341.326 212.194L342.198 211.166L341.326 212.194ZM350.004 218.399L351.232 217.843L351.057 217.456L350.691 217.24L350.004 218.399ZM375.485 262.751L374.369 263.506L375.485 262.751ZM403.291 298.785L404.415 298.042L404.359 297.957L404.291 297.882L403.291 298.785ZM408.602 306.734L409.719 305.979L408.602 306.734ZM467.569 382.275L468.876 381.947L468.786 381.588L468.525 381.325L467.569 382.275ZM491.676 407.708L492.438 406.596L491.676 407.708ZM527.638 419.202L526.527 418.44L527.638 419.202ZM503.927 389.823L503.165 390.935L503.927 389.823ZM483.877 378.989L482.614 379.459L482.827 380.031L483.398 380.249L483.877 378.989ZM438.245 297.402L436.941 297.741L436.998 297.959L437.121 298.146L438.245 297.402ZM406.749 236.924L405.632 237.679L406.749 236.924ZM383.164 205.696L381.867 206.064L381.948 206.348L382.14 206.572L383.164 205.696ZM366.693 182.285L367.564 181.257L366.693 182.285ZM326.724 174.098L327.752 174.97L326.724 174.098ZM325.228 176.388L324.019 176.985L325.232 179.44L326.438 176.981L325.228 176.388ZM294.225 143.828L292.898 143.591L292.706 144.669L293.722 145.078L294.225 143.828ZM294.321 124.896L295.654 124.697L294.321 124.896ZM279.899 95.58H278.551V96.244L279.077 96.6486L279.899 95.58ZM258.871 40.7195L279.086 55.9936L280.711 53.843L260.495 38.5689L258.871 40.7195ZM219.281 115.331C218.221 96.767 217.246 79.3056 222.106 65.8805C224.516 59.226 228.349 53.605 234.319 49.3522C240.304 45.0889 248.528 42.1343 259.82 40.985L259.547 38.3034C247.933 39.4854 239.223 42.5493 232.755 47.1569C226.273 51.7749 222.137 57.877 219.572 64.963C214.483 79.0189 215.54 97.108 216.59 115.485L219.281 115.331ZM219.283 115.408V115.408H216.588V115.408H219.283ZM219.275 115.26L219.275 115.259L216.596 115.557L216.596 115.557L219.275 115.26ZM220.15 134.856C220.025 128.346 219.65 121.781 219.281 115.332L216.59 115.485C216.959 121.944 217.331 128.457 217.455 134.908L220.15 134.856ZM256.299 133.535H218.803V136.23H256.299V133.535ZM261.698 146.813C259.988 143.195 258.585 139.071 257.617 134.597L254.982 135.168C255.991 139.829 257.457 144.15 259.262 147.966L261.698 146.813ZM240.091 172.218C245.983 161.762 253.195 153.617 261.203 148.527L259.757 146.252C251.282 151.639 243.791 160.161 237.743 170.894L240.091 172.218ZM231.394 166.58C233.975 167.434 236.124 169.362 237.744 172.221L240.089 170.892C238.22 167.594 235.596 165.131 232.24 164.021L231.394 166.58ZM203.245 193.534C206.29 184.327 211.074 176.732 216.281 171.881C221.529 166.992 226.938 165.106 231.394 166.58L232.24 164.021C226.415 162.094 220 164.733 214.444 169.909C208.846 175.124 203.846 183.134 200.686 192.687L203.245 193.534ZM200.795 203.685C201.295 200.392 202.106 196.979 203.245 193.533L200.686 192.687C199.5 196.273 198.653 199.835 198.13 203.28L200.795 203.685ZM169.006 244.473C179.894 228.296 190.986 214.331 200.438 204.412L198.487 202.553C188.906 212.606 177.722 226.697 166.77 242.968L169.006 244.473ZM146.106 283.59C151.698 272.081 159.552 258.519 169.006 244.473L166.77 242.968C157.258 257.099 149.338 270.771 143.681 282.412L146.106 283.59ZM140.632 291.656C142.426 288.99 144.218 286.358 146.004 283.765L143.784 282.237C141.993 284.837 140.196 287.477 138.395 290.151L140.632 291.656ZM92.4177 375.31C100.52 356.047 118.093 325.141 140.632 291.656L138.395 290.151C115.819 323.693 98.135 354.766 89.9332 374.265L92.4177 375.31ZM77.9131 393.257C82.5546 386.115 87.5491 380.067 92.1009 375.767L90.25 373.808C85.5145 378.281 80.3877 384.503 75.653 391.788L77.9131 393.257ZM66.8995 427.623C66.193 427.164 65.6063 426.096 65.5227 424.017C65.4408 421.981 65.8636 419.282 66.8038 416.074C68.6791 409.675 72.5221 401.552 77.9131 393.257L75.653 391.788C70.1604 400.24 66.1848 408.602 64.2171 415.316C63.2358 418.664 62.7311 421.679 62.8294 424.125C62.9261 426.528 63.6275 428.711 65.4307 429.883L66.8995 427.623ZM93.83 403.601C88.4391 411.896 82.5776 418.707 77.4919 423.02C74.9422 425.182 72.6478 426.664 70.7539 427.416C68.82 428.184 67.606 428.082 66.8995 427.623L65.4307 429.883C67.2339 431.055 69.5137 430.809 71.7488 429.921C74.0241 429.018 76.574 427.332 79.2352 425.075C84.5712 420.551 90.5975 413.521 96.0901 405.069L93.83 403.601ZM104.382 382.564C102.353 388.661 98.7294 396.062 93.83 403.601L96.0901 405.069C101.086 397.382 104.824 389.774 106.939 383.415L104.382 382.564ZM158.16 314.128C137.847 343.677 118.367 368.193 104.701 382.043L106.62 383.936C120.447 369.923 140.029 345.26 160.381 315.655L158.16 314.128ZM202.426 262.281C186.132 286.489 169.431 305.674 158.468 313.809L160.074 315.974C171.415 307.558 188.322 288.062 204.662 263.786L202.426 262.281ZM221.891 229.949C216.685 239.856 210.079 250.911 202.426 262.281L204.662 263.786C212.364 252.344 219.02 241.205 224.277 231.203L221.891 229.949ZM224.194 239.556C224.194 236.553 224.273 233.582 224.43 230.648L221.738 230.505C221.579 233.486 221.498 236.505 221.498 239.556H224.194ZM235.152 296.864C228.27 280.814 224.194 261.009 224.194 239.556H221.498C221.498 261.336 225.635 281.507 232.674 297.926L235.152 296.864ZM238.678 325.138C236.94 316.455 235.767 307.112 235.259 297.325L232.567 297.464C233.081 307.376 234.27 316.85 236.035 325.666L238.678 325.138ZM208.47 391.173C208.47 364.175 220.296 340.437 238.186 326.464L236.527 324.34C217.937 338.859 205.775 363.405 205.775 391.173H208.47ZM214.776 424.186C210.732 414.166 208.47 402.98 208.47 391.173H205.775C205.775 403.324 208.103 414.853 212.276 425.195L214.776 424.186ZM233.471 767.018L214.872 424.617L212.18 424.763L230.779 767.164L233.471 767.018ZM359.829 758.805L232.052 765.745L232.198 768.437L359.975 761.496L359.829 758.805ZM339.781 414.572L358.557 760.223L361.248 760.077L342.473 414.426L339.781 414.572ZM342.792 391.173C342.792 399.175 341.753 406.891 339.824 414.153L342.43 414.845C344.418 407.358 345.487 399.408 345.487 391.173H342.792ZM318.64 331.312C333.378 345.59 342.792 367.087 342.792 391.173H345.487C345.487 366.394 335.804 344.187 320.515 329.376L318.64 331.312ZM322.103 306.043C321.302 314.497 319.998 322.548 318.264 330.04L320.89 330.648C322.653 323.033 323.975 314.864 324.786 306.297L322.103 306.043ZM337.401 239.556C337.401 265.062 331.639 288.23 322.26 305.528L324.629 306.813C334.253 289.064 340.097 265.442 340.097 239.556H337.401ZM334.073 206.756C336.227 217 337.401 228.042 337.401 239.556H340.097C340.097 227.861 338.904 216.632 336.711 206.201L334.073 206.756ZM342.198 211.166C340.083 209.372 338.142 207.495 336.388 205.571L334.396 207.387C336.229 209.397 338.253 211.354 340.454 213.221L342.198 211.166ZM350.691 217.24C347.826 215.543 344.965 213.513 342.198 211.166L340.454 213.221C343.335 215.664 346.319 217.783 349.318 219.559L350.691 217.24ZM376.602 261.996C365.681 245.84 356.887 230.323 351.232 217.843L348.777 218.956C354.509 231.605 363.385 247.255 374.369 263.506L376.602 261.996ZM404.291 297.882C395.715 288.385 386.083 276.023 376.602 261.996L374.369 263.506C383.907 277.618 393.616 290.083 402.29 299.688L404.291 297.882ZM409.719 305.979C407.919 303.316 406.15 300.669 404.415 298.042L402.166 299.528C403.906 302.162 405.68 304.817 407.486 307.488L409.719 305.979ZM468.525 381.325C453.708 366.423 431.97 338.899 409.719 305.979L407.486 307.488C429.776 340.467 451.624 368.15 466.613 383.226L468.525 381.325ZM466.262 382.603C467.136 386.086 470.086 390.406 474.308 394.892C478.574 399.425 484.284 404.278 490.915 408.82L492.438 406.596C485.941 402.146 480.383 397.415 476.271 393.045C472.114 388.629 469.574 384.729 468.876 381.947L466.262 382.603ZM490.915 408.82C499.231 414.516 507.494 418.693 514.158 420.823C517.482 421.885 520.483 422.463 522.931 422.424C525.336 422.386 527.535 421.738 528.75 419.963L526.527 418.44C526.05 419.135 524.969 419.696 522.888 419.729C520.851 419.762 518.163 419.273 514.979 418.256C508.627 416.226 500.6 412.187 492.438 406.596L490.915 408.82ZM528.75 419.963C529.966 418.189 529.775 415.904 528.942 413.648C528.094 411.351 526.471 408.761 524.279 406.046C519.885 400.602 513.004 394.407 504.688 388.711L503.165 390.935C511.327 396.525 517.994 402.55 522.182 407.739C524.281 410.341 525.708 412.67 526.414 414.582C527.135 416.534 527.003 417.745 526.527 418.44L528.75 419.963ZM504.688 388.711C497.539 383.814 490.436 380.044 484.357 377.73L483.398 380.249C489.241 382.474 496.156 386.134 503.165 390.935L504.688 388.711ZM437.121 298.146C459.428 331.857 476.184 362.163 482.614 379.459L485.141 378.52C478.599 360.922 461.7 330.405 439.369 296.659L437.121 298.146ZM405.632 237.679C421.974 261.857 433.506 284.529 436.941 297.741L439.55 297.063C435.996 283.395 424.253 260.415 407.865 236.17L405.632 237.679ZM382.14 206.572C389.601 215.294 397.671 225.901 405.632 237.679L407.865 236.17C399.854 224.317 391.723 213.628 384.188 204.82L382.14 206.572ZM365.821 183.313C374.189 190.41 379.797 198.786 381.867 206.064L384.46 205.327C382.209 197.414 376.232 188.609 367.564 181.257L365.821 183.313ZM327.752 174.97C330.788 171.39 336.387 170.182 343.414 171.622C350.385 173.05 358.425 177.04 365.821 183.313L367.564 181.257C359.891 174.749 351.449 170.516 343.955 168.981C336.516 167.457 329.665 168.547 325.696 173.226L327.752 174.97ZM326.438 176.981C326.793 176.257 327.23 175.585 327.752 174.97L325.696 173.226C325.027 174.016 324.468 174.875 324.018 175.795L326.438 176.981ZM293.722 145.078C305.632 149.875 316.229 161.209 324.019 176.985L326.436 175.791C318.474 159.667 307.468 147.709 294.729 142.578L293.722 145.078ZM292.988 125.095C293.981 131.746 293.88 138.092 292.898 143.591L295.552 144.065C296.589 138.254 296.687 131.613 295.654 124.697L292.988 125.095ZM279.077 96.6486C285.48 101.57 291.048 112.105 292.988 125.095L295.654 124.697C293.653 111.302 287.869 100.006 280.72 94.5115L279.077 96.6486ZM278.551 54.9183V95.58H281.246V54.9183H278.551Z" fill="#259DFF" mask="url(#path-2-inside-1_4200_400)"/>
<path d="M301.043 68.6655C307.831 79.5295 311.545 90.8455 312.088 100.338C312.632 109.858 309.99 117.372 304.3 120.928C298.609 124.484 290.698 123.565 282.379 118.902C274.086 114.252 265.543 105.954 258.754 95.0901C251.966 84.2262 248.252 72.9102 247.709 63.4178C247.165 53.8973 249.807 46.384 255.497 42.828C261.188 39.2719 269.099 40.1911 277.418 44.8541C285.711 49.5033 294.254 57.8016 301.043 68.6655Z" fill="#EDF6FF" stroke="#259DFF" stroke-width="1.34771"/>
<mask id="path-5-inside-2_4200_400" fill="white">
<path fill-rule="evenodd" clip-rule="evenodd" d="M605.22 89.9771C599.282 70.8708 599.99 53.4668 606.8 51.1042C613.61 48.7416 623.943 62.3151 629.881 81.4214C632.205 88.8995 633.511 96.1167 633.831 102.273C642.874 106.8 635.614 137.791 617.103 172.81C605.286 195.168 591.664 213.905 580.598 224.124C574.804 235.548 534.263 244.889 484.988 245.572C465.219 245.847 446.817 244.689 431.472 242.477L444.769 334.377L451.747 420.208C453.008 435.728 446.819 450.923 435.072 461.144L385.178 504.559L342.101 773.225L215.749 752.966L270.552 411.17C269.375 403.631 269.146 395.731 269.994 387.658C272.548 363.359 284.328 342.626 300.779 329.73C299.83 322.033 299.372 313.83 299.461 305.28C291.843 286.86 288.519 262.988 291.204 237.435C291.41 235.476 291.649 233.534 291.919 231.611C288.832 225.703 286.93 219.466 286.164 213.233C286.055 213.293 285.947 213.352 285.838 213.411C282.404 219.588 277.77 226.304 272.182 232.95C255.773 252.467 237.361 263.991 231.056 258.691C230.52 258.24 230.089 257.683 229.759 257.028C216.053 251.6 193.532 235.121 170.664 212.911C149.126 191.993 132.679 171.234 125.972 157.576C120.712 154.807 115.672 140.517 114.137 122.967C112.396 103.069 115.819 86.5166 121.783 85.9949C127.746 85.4731 133.991 101.18 135.732 121.077C136.464 129.445 136.283 137.221 135.384 143.462C149.029 148.649 171.862 165.278 195.052 187.801C208.778 201.132 220.436 214.399 228.824 225.804C232.362 219.067 237.414 211.58 243.638 204.176C246.824 200.388 250.083 196.897 253.315 193.77C256.857 188.076 262.386 182.342 269.4 177.557C282.05 168.927 295.815 165.92 304.21 169.167C304.619 168.867 305.034 168.573 305.457 168.285C310.807 164.635 316.702 162.323 322.786 161.268C329.76 154.155 337.464 149.178 345.49 146.886C345.077 141.156 345.657 134.688 347.374 128.048C347.479 127.64 347.588 127.234 347.7 126.831C343.775 126.832 340.267 125.79 337.448 123.588C326.304 114.881 330.148 91.3396 346.034 71.0065C359.764 53.4335 377.995 44.0082 389.885 47.3937L390.733 46.883C417.667 52.5155 426.537 66.8416 428.043 85.2526C429.284 100.431 422.637 113.625 411.882 123.236L414.22 123.236L422.176 178.226C423.332 178.551 424.492 178.884 425.658 179.224C447.172 185.497 466.027 192.918 478.732 199.695C480.591 199.644 482.464 199.605 484.35 199.579C515.837 199.142 543.857 202.337 561.578 207.639C564.619 195.007 571.02 178.679 580.171 161.367C591.464 140.002 604.404 121.945 615.187 111.466C611.455 106.056 607.892 98.5771 605.22 89.9771ZM394.969 294.644L392.5 344.609C389.702 340.519 386.542 336.763 383.067 333.408C385.722 324.892 387.88 315.659 389.418 305.92C391.404 302.367 393.261 298.6 394.969 294.644ZM400.985 172.896L403.117 129.74C397.719 133.057 391.737 135.64 385.47 137.363C385.428 137.53 385.386 137.697 385.342 137.864C383.777 143.918 381.455 149.389 378.678 153.955C381.507 156.2 384.17 158.853 386.648 161.87C388.969 164.696 391.126 167.841 393.105 171.268C395.665 171.762 398.295 172.305 400.985 172.896Z"/>
</mask>
<path fill-rule="evenodd" clip-rule="evenodd" d="M605.22 89.9771C599.282 70.8708 599.99 53.4668 606.8 51.1042C613.61 48.7416 623.943 62.3151 629.881 81.4214C632.205 88.8995 633.511 96.1167 633.831 102.273C642.874 106.8 635.614 137.791 617.103 172.81C605.286 195.168 591.664 213.905 580.598 224.124C574.804 235.548 534.263 244.889 484.988 245.572C465.219 245.847 446.817 244.689 431.472 242.477L444.769 334.377L451.747 420.208C453.008 435.728 446.819 450.923 435.072 461.144L385.178 504.559L342.101 773.225L215.749 752.966L270.552 411.17C269.375 403.631 269.146 395.731 269.994 387.658C272.548 363.359 284.328 342.626 300.779 329.73C299.83 322.033 299.372 313.83 299.461 305.28C291.843 286.86 288.519 262.988 291.204 237.435C291.41 235.476 291.649 233.534 291.919 231.611C288.832 225.703 286.93 219.466 286.164 213.233C286.055 213.293 285.947 213.352 285.838 213.411C282.404 219.588 277.77 226.304 272.182 232.95C255.773 252.467 237.361 263.991 231.056 258.691C230.52 258.24 230.089 257.683 229.759 257.028C216.053 251.6 193.532 235.121 170.664 212.911C149.126 191.993 132.679 171.234 125.972 157.576C120.712 154.807 115.672 140.517 114.137 122.967C112.396 103.069 115.819 86.5166 121.783 85.9949C127.746 85.4731 133.991 101.18 135.732 121.077C136.464 129.445 136.283 137.221 135.384 143.462C149.029 148.649 171.862 165.278 195.052 187.801C208.778 201.132 220.436 214.399 228.824 225.804C232.362 219.067 237.414 211.58 243.638 204.176C246.824 200.388 250.083 196.897 253.315 193.77C256.857 188.076 262.386 182.342 269.4 177.557C282.05 168.927 295.815 165.92 304.21 169.167C304.619 168.867 305.034 168.573 305.457 168.285C310.807 164.635 316.702 162.323 322.786 161.268C329.76 154.155 337.464 149.178 345.49 146.886C345.077 141.156 345.657 134.688 347.374 128.048C347.479 127.64 347.588 127.234 347.7 126.831C343.775 126.832 340.267 125.79 337.448 123.588C326.304 114.881 330.148 91.3396 346.034 71.0065C359.764 53.4335 377.995 44.0082 389.885 47.3937L390.733 46.883C417.667 52.5155 426.537 66.8416 428.043 85.2526C429.284 100.431 422.637 113.625 411.882 123.236L414.22 123.236L422.176 178.226C423.332 178.551 424.492 178.884 425.658 179.224C447.172 185.497 466.027 192.918 478.732 199.695C480.591 199.644 482.464 199.605 484.35 199.579C515.837 199.142 543.857 202.337 561.578 207.639C564.619 195.007 571.02 178.679 580.171 161.367C591.464 140.002 604.404 121.945 615.187 111.466C611.455 106.056 607.892 98.5771 605.22 89.9771ZM394.969 294.644L392.5 344.609C389.702 340.519 386.542 336.763 383.067 333.408C385.722 324.892 387.88 315.659 389.418 305.92C391.404 302.367 393.261 298.6 394.969 294.644ZM400.985 172.896L403.117 129.74C397.719 133.057 391.737 135.64 385.47 137.363C385.428 137.53 385.386 137.697 385.342 137.864C383.777 143.918 381.455 149.389 378.678 153.955C381.507 156.2 384.17 158.853 386.648 161.87C388.969 164.696 391.126 167.841 393.105 171.268C395.665 171.762 398.295 172.305 400.985 172.896Z" fill="#EDF6FF"/>
<path d="M606.8 51.1042L607.241 52.3775L606.8 51.1042ZM605.22 89.9771L603.933 90.377L605.22 89.9771ZM629.881 81.4214L631.168 81.0215L629.881 81.4214ZM633.831 102.273L633.228 103.479L632.526 103.127L632.485 102.343L633.831 102.273ZM617.103 172.81L615.912 172.181L617.103 172.81ZM580.598 224.124L579.396 223.514L579.506 223.298L579.684 223.134L580.598 224.124ZM484.988 245.572L485.006 246.92L484.988 245.572ZM431.472 242.477L430.139 242.67L429.88 240.886L431.665 241.143L431.472 242.477ZM444.769 334.377L446.102 334.184L446.108 334.226L446.112 334.268L444.769 334.377ZM451.747 420.208L450.403 420.318L451.747 420.208ZM435.072 461.144L435.957 462.161L435.072 461.144ZM385.178 504.559L383.848 504.345L383.925 503.863L384.294 503.542L385.178 504.559ZM342.101 773.225L343.431 773.439L343.218 774.769L341.887 774.556L342.101 773.225ZM215.749 752.966L215.535 754.297L214.205 754.084L214.418 752.753L215.749 752.966ZM270.552 411.17L271.883 410.962L271.916 411.173L271.882 411.383L270.552 411.17ZM300.779 329.73L302.117 329.565L302.21 330.321L301.611 330.791L300.779 329.73ZM299.461 305.28L300.706 304.765L300.811 305.019L300.808 305.294L299.461 305.28ZM291.919 231.611L293.113 230.987L293.313 231.37L293.253 231.798L291.919 231.611ZM286.164 213.233L285.515 212.052L287.259 211.094L287.501 213.069L286.164 213.233ZM285.838 213.411L284.66 212.756L284.851 212.413L285.196 212.226L285.838 213.411ZM272.182 232.95L273.213 233.818L272.182 232.95ZM231.056 258.691L230.189 259.722L231.056 258.691ZM229.759 257.028L230.255 255.775L230.731 255.963L230.962 256.421L229.759 257.028ZM170.664 212.911L169.725 213.878L170.664 212.911ZM125.972 157.576L126.6 156.384L126.989 156.588L127.182 156.982L125.972 157.576ZM114.137 122.967L112.794 123.084L112.794 123.084L114.137 122.967ZM121.783 85.9949L121.9 87.3375L121.783 85.9949ZM135.732 121.077L137.075 120.96L135.732 121.077ZM135.384 143.462L134.905 144.721L133.896 144.338L134.05 143.269L135.384 143.462ZM195.052 187.801L194.113 188.768L195.052 187.801ZM228.824 225.804L230.017 226.43L229.015 228.338L227.738 226.602L228.824 225.804ZM243.638 204.176L242.607 203.309L243.638 204.176ZM253.315 193.77L254.46 194.482L254.372 194.623L254.252 194.739L253.315 193.77ZM269.4 177.557L270.159 178.671L270.159 178.671L269.4 177.557ZM304.21 169.167L305.007 170.254L304.412 170.69L303.724 170.424L304.21 169.167ZM305.457 168.285L306.216 169.398L305.457 168.285ZM322.786 161.268L323.749 162.212L323.445 162.522L323.017 162.596L322.786 161.268ZM345.49 146.886L346.834 146.789L346.913 147.881L345.86 148.181L345.49 146.886ZM347.374 128.048L346.069 127.71L346.069 127.71L347.374 128.048ZM347.7 126.831L347.7 125.484L349.475 125.483L348.999 127.193L347.7 126.831ZM337.448 123.588L338.278 122.526L337.448 123.588ZM346.034 71.0065L344.972 70.1768L346.034 71.0065ZM389.885 47.3937L390.581 48.548L390.079 48.8502L389.516 48.6899L389.885 47.3937ZM390.733 46.883L390.037 45.7286L390.491 45.4554L391.009 45.5638L390.733 46.883ZM428.043 85.2526L429.386 85.1428L428.043 85.2526ZM411.882 123.236L411.882 124.584L408.351 124.584L410.984 122.231L411.882 123.236ZM414.22 123.236L414.22 121.888L415.387 121.888L415.554 123.043L414.22 123.236ZM422.176 178.226L421.811 179.523L420.968 179.285L420.843 178.419L422.176 178.226ZM425.658 179.224L426.035 177.93L426.035 177.93L425.658 179.224ZM478.732 199.695L478.77 201.042L478.413 201.052L478.098 200.884L478.732 199.695ZM484.35 199.579L484.331 198.231L484.35 199.579ZM561.578 207.639L562.888 207.955L562.555 209.338L561.191 208.93L561.578 207.639ZM580.171 161.367L578.98 160.737L580.171 161.367ZM615.187 111.466L616.296 110.7L616.943 111.638L616.126 112.432L615.187 111.466ZM394.969 294.644L393.732 294.11L396.315 294.711L394.969 294.644ZM392.5 344.609L393.846 344.675L393.649 348.674L391.388 345.37L392.5 344.609ZM383.067 333.408L382.131 334.378L381.533 333.801L381.78 333.007L383.067 333.408ZM389.418 305.92L388.087 305.709L388.124 305.472L388.242 305.262L389.418 305.92ZM403.117 129.74L402.412 128.592L404.59 127.254L404.463 129.807L403.117 129.74ZM400.985 172.896L402.331 172.962L402.252 174.554L400.696 174.212L400.985 172.896ZM385.47 137.363L384.163 137.035L384.354 136.272L385.113 136.063L385.47 137.363ZM385.342 137.864L386.647 138.201L386.647 138.201L385.342 137.864ZM378.678 153.955L377.84 155.01L376.909 154.271L377.527 153.254L378.678 153.955ZM386.648 161.87L387.69 161.015L386.648 161.87ZM393.105 171.268L392.849 172.591L392.245 172.474L391.937 171.941L393.105 171.268ZM607.241 52.3775C606.047 52.7918 604.945 53.9256 604.091 56.001C603.241 58.0654 602.715 60.8881 602.576 64.3165C602.298 71.162 603.572 80.1331 606.507 89.5772L603.933 90.377C600.93 80.7148 599.589 71.4307 599.883 64.207C600.029 60.6008 600.586 57.4354 601.598 54.975C602.607 52.5256 604.147 50.5979 606.358 49.831L607.241 52.3775ZM628.594 81.8214C625.659 72.3762 621.653 64.3585 617.595 59.0284C615.562 56.3581 613.564 54.4261 611.739 53.3065C609.913 52.186 608.421 51.9681 607.241 52.3775L606.358 49.831C608.583 49.0591 610.937 49.6519 613.149 51.009C615.362 52.367 617.596 54.5795 619.74 57.3956C624.035 63.0382 628.166 71.3604 631.168 81.0215L628.594 81.8214ZM632.485 102.343C632.171 96.3135 630.889 89.2074 628.594 81.8214L631.168 81.0215C633.52 88.5915 634.85 95.9198 635.177 102.203L632.485 102.343ZM615.912 172.181C625.131 154.739 631.523 138.345 634.488 125.797C635.973 119.513 636.579 114.272 636.291 110.379C635.998 106.407 634.821 104.276 633.228 103.479L634.434 101.068C637.363 102.534 638.669 105.974 638.98 110.181C639.296 114.466 638.625 120.011 637.111 126.417C634.079 139.251 627.586 155.863 618.295 173.44L615.912 172.181ZM579.684 223.134C590.596 213.056 604.133 194.465 615.912 172.181L618.295 173.44C606.438 195.871 592.732 214.753 581.512 225.114L579.684 223.134ZM484.969 244.225C509.537 243.884 531.894 241.385 548.801 237.561C557.259 235.649 564.309 233.414 569.578 230.976C574.914 228.505 578.166 225.94 579.396 223.514L581.8 224.733C580.133 228.02 576.144 230.906 570.71 233.422C565.207 235.969 557.957 238.254 549.396 240.19C532.265 244.064 509.715 246.577 485.006 246.92L484.969 244.225ZM431.665 241.143C446.93 243.344 465.26 244.498 484.969 244.225L485.006 246.92C465.177 247.195 446.704 246.034 431.28 243.811L431.665 241.143ZM443.435 334.57L430.139 242.67L432.806 242.284L446.102 334.184L443.435 334.57ZM450.403 420.318L443.425 334.487L446.112 334.268L453.09 420.099L450.403 420.318ZM434.188 460.128C445.611 450.188 451.63 435.41 450.403 420.318L453.09 420.099C454.386 436.045 448.027 451.659 435.957 462.161L434.188 460.128ZM384.294 503.542L434.188 460.128L435.957 462.161L386.063 505.575L384.294 503.542ZM340.77 773.012L383.848 504.345L386.509 504.772L343.431 773.439L340.77 773.012ZM215.962 751.635L342.314 771.895L341.887 774.556L215.535 754.297L215.962 751.635ZM271.882 411.383L217.079 753.18L214.418 752.753L269.221 410.956L271.882 411.383ZM271.335 387.799C270.498 395.756 270.725 403.539 271.883 410.962L269.22 411.378C268.026 403.724 267.793 395.706 268.654 387.517L271.335 387.799ZM301.611 330.791C285.461 343.45 273.852 363.845 271.335 387.799L268.654 387.517C271.244 362.874 283.195 341.801 299.948 328.669L301.611 330.791ZM300.808 305.294C300.721 313.787 301.176 321.931 302.117 329.565L299.442 329.895C298.485 322.136 298.024 313.872 298.113 305.266L300.808 305.294ZM292.545 237.576C289.879 262.941 293.187 286.582 300.706 304.765L298.215 305.795C290.5 287.138 287.159 263.036 289.864 237.294L292.545 237.576ZM293.253 231.798C292.986 233.706 292.749 235.633 292.545 237.576L289.864 237.294C290.072 235.32 290.312 233.362 290.584 231.423L293.253 231.798ZM287.501 213.069C288.248 219.141 290.102 225.223 293.113 230.987L290.724 232.235C287.562 226.184 285.612 219.79 284.826 213.398L287.501 213.069ZM285.196 212.226C285.303 212.168 285.409 212.11 285.515 212.052L286.813 214.414C286.702 214.475 286.591 214.536 286.48 214.596L285.196 212.226ZM271.15 232.083C276.689 225.495 281.273 218.849 284.66 212.756L287.016 214.065C283.536 220.326 278.85 227.113 273.213 233.818L271.15 232.083ZM231.923 257.659C233.034 258.593 234.854 258.933 237.541 258.334C240.203 257.74 243.461 256.271 247.115 253.985C254.408 249.42 263.011 241.764 271.15 232.083L273.213 233.818C264.944 243.653 256.136 251.518 248.545 256.269C244.756 258.641 241.204 260.279 238.128 260.965C235.076 261.646 232.23 261.439 230.189 259.722L231.923 257.659ZM230.962 256.421C231.217 256.926 231.538 257.335 231.923 257.659L230.189 259.722C229.502 259.145 228.961 258.439 228.555 257.634L230.962 256.421ZM171.603 211.944C194.442 234.127 216.807 250.449 230.255 255.775L229.262 258.281C215.3 252.751 192.621 236.116 169.725 213.878L171.603 211.944ZM127.182 156.982C133.787 170.432 150.104 191.063 171.603 211.944L169.725 213.878C148.149 192.922 131.571 172.035 124.763 158.17L127.182 156.982ZM115.479 122.849C116.239 131.538 117.865 139.387 119.932 145.375C120.966 148.371 122.098 150.867 123.267 152.761C124.452 154.681 125.597 155.856 126.6 156.384L125.345 158.769C123.718 157.912 122.26 156.262 120.973 154.176C119.669 152.063 118.459 149.371 117.384 146.254C115.231 140.018 113.569 131.946 112.794 123.084L115.479 122.849ZM121.9 87.3375C121.061 87.4109 120.041 88.078 118.991 89.8742C117.962 91.6331 117.067 94.2142 116.39 97.4879C115.04 104.018 114.617 112.994 115.479 122.849L112.794 123.084C111.916 113.043 112.334 103.793 113.751 96.9421C114.457 93.5252 115.428 90.6266 116.664 88.5134C117.878 86.4374 119.523 84.8397 121.665 84.6523L121.9 87.3375ZM134.39 121.195C133.527 111.339 131.552 102.573 129.089 96.377C127.853 93.2705 126.524 90.884 125.206 89.3304C123.859 87.7439 122.739 87.264 121.9 87.3375L121.665 84.6523C123.807 84.4649 125.705 85.7527 127.261 87.5863C128.845 89.4528 130.304 92.1388 131.593 95.381C134.178 101.882 136.196 110.918 137.075 120.96L134.39 121.195ZM134.05 143.269C134.932 137.149 135.114 129.478 134.39 121.195L137.075 120.96C137.814 129.411 137.634 137.293 136.718 143.654L134.05 143.269ZM194.113 188.768C170.948 166.269 148.279 149.806 134.905 144.721L135.863 142.202C149.779 147.492 172.776 164.287 195.991 186.834L194.113 188.768ZM227.738 226.602C219.403 215.268 207.796 202.058 194.113 188.768L195.991 186.834C209.759 200.207 221.47 213.529 229.909 225.005L227.738 226.602ZM244.67 205.044C238.499 212.384 233.504 219.791 230.017 226.43L227.63 225.177C231.22 218.343 236.329 210.776 242.607 203.309L244.67 205.044ZM254.252 194.739C251.055 197.833 247.826 201.289 244.67 205.044L242.607 203.309C245.821 199.486 249.112 195.962 252.378 192.802L254.252 194.739ZM270.159 178.671C263.28 183.364 257.89 188.967 254.46 194.482L252.171 193.059C255.824 187.185 261.493 181.32 268.64 176.444L270.159 178.671ZM303.724 170.424C299.866 168.932 294.624 168.832 288.708 170.22C282.814 171.603 276.362 174.439 270.159 178.671L268.64 176.444C275.088 172.046 281.843 169.063 288.093 167.596C294.32 166.135 300.158 166.155 304.696 167.91L303.724 170.424ZM306.216 169.398C305.807 169.677 305.404 169.963 305.007 170.254L303.412 168.081C303.834 167.771 304.262 167.468 304.697 167.171L306.216 169.398ZM323.017 162.596C317.116 163.619 311.403 165.86 306.216 169.398L304.697 167.171C310.212 163.409 316.288 161.027 322.556 159.94L323.017 162.596ZM345.86 148.181C338.11 150.395 330.601 155.223 323.749 162.212L321.824 160.324C328.92 153.087 336.818 147.96 345.12 145.59L345.86 148.181ZM348.678 128.385C346.995 134.895 346.433 141.217 346.834 146.789L344.146 146.982C343.721 141.096 344.319 134.48 346.069 127.71L348.678 128.385ZM348.999 127.193C348.889 127.588 348.782 127.985 348.678 128.385L346.069 127.71C346.177 127.294 346.288 126.88 346.402 126.469L348.999 127.193ZM338.278 122.526C340.818 124.51 344.017 125.485 347.7 125.484L347.701 128.179C343.533 128.18 339.717 127.07 336.619 124.65L338.278 122.526ZM347.096 71.8363C339.266 81.8593 334.446 92.6224 332.935 101.874C331.415 111.182 333.274 118.616 338.278 122.526L336.619 124.65C330.478 119.853 328.687 111.163 330.275 101.44C331.872 91.661 336.917 80.4868 344.972 70.1768L347.096 71.8363ZM389.516 48.6899C384.043 47.1315 376.889 48.4826 369.283 52.5304C361.711 56.56 353.861 63.1779 347.096 71.8363L344.972 70.1768C351.937 61.2621 360.068 54.3808 368.016 50.1509C375.931 45.9391 383.837 44.2704 390.254 46.0975L389.516 48.6899ZM391.428 48.0373L390.581 48.548L389.19 46.2394L390.037 45.7286L391.428 48.0373ZM426.699 85.3624C425.962 76.3408 423.433 68.4663 417.91 62.1641C412.385 55.8601 403.733 50.9784 390.457 48.2021L391.009 45.5638C404.667 48.4201 413.917 53.5177 419.937 60.3876C425.959 67.2593 428.618 75.7534 429.386 85.1428L426.699 85.3624ZM410.984 122.231C421.485 112.846 427.9 100.045 426.699 85.3624L429.386 85.1428C430.668 100.818 423.789 114.403 412.78 124.241L410.984 122.231ZM414.22 124.584L411.882 124.584L411.882 121.888L414.22 121.888L414.22 124.584ZM420.843 178.419L412.887 123.429L415.554 123.043L423.51 178.033L420.843 178.419ZM425.28 180.518C424.119 180.179 422.962 179.847 421.811 179.523L422.542 176.929C423.701 177.255 424.866 177.589 426.035 177.93L425.28 180.518ZM478.098 200.884C465.499 194.164 446.737 186.774 425.28 180.518L426.035 177.93C447.606 184.219 466.554 191.672 479.367 198.506L478.098 200.884ZM484.368 200.926C482.489 200.952 480.622 200.991 478.77 201.042L478.695 198.348C480.56 198.296 482.439 198.257 484.331 198.231L484.368 200.926ZM561.191 208.93C543.652 203.683 515.783 200.491 484.368 200.926L484.331 198.231C515.891 197.793 544.062 200.992 561.964 206.348L561.191 208.93ZM581.363 161.997C572.248 179.241 565.896 195.462 562.888 207.955L560.267 207.324C563.342 194.552 569.793 178.117 578.98 160.737L581.363 161.997ZM616.126 112.432C605.478 122.78 592.616 140.707 581.363 161.997L578.98 160.737C590.312 139.298 603.33 121.109 614.248 110.499L616.126 112.432ZM606.507 89.5772C609.147 98.0756 612.657 105.425 616.296 110.7L614.078 112.231C610.253 106.687 606.637 99.0786 603.933 90.377L606.507 89.5772ZM396.315 294.711L393.846 344.675L391.154 344.542L393.623 294.577L396.315 294.711ZM391.388 345.37C388.64 341.353 385.538 337.668 382.131 334.378L384.003 332.439C387.546 335.859 390.764 339.685 393.613 343.848L391.388 345.37ZM381.78 333.007C384.415 324.556 386.559 315.388 388.087 305.709L390.749 306.13C389.202 315.931 387.029 325.227 384.354 333.81L381.78 333.007ZM388.242 305.262C390.204 301.751 392.041 298.026 393.732 294.11L396.206 295.178C394.481 299.175 392.604 302.983 390.594 306.577L388.242 305.262ZM404.463 129.807L402.331 172.962L399.639 172.829L401.771 129.674L404.463 129.807ZM385.113 136.063C391.26 134.373 397.125 131.84 402.412 128.592L403.823 130.888C398.313 134.274 392.213 136.907 385.827 138.662L385.113 136.063ZM384.038 137.527C384.08 137.363 384.122 137.199 384.163 137.035L386.777 137.69C386.735 137.86 386.691 138.031 386.647 138.201L384.038 137.527ZM377.527 153.254C380.23 148.809 382.503 143.462 384.038 137.527L386.647 138.201C385.051 144.375 382.679 149.97 379.83 154.655L377.527 153.254ZM385.607 162.726C383.183 159.775 380.587 157.19 377.84 155.01L379.516 152.899C382.427 155.209 385.157 157.932 387.69 161.015L385.607 162.726ZM391.937 171.941C389.992 168.572 387.876 165.489 385.607 162.726L387.69 161.015C390.061 163.903 392.26 167.109 394.272 170.594L391.937 171.941ZM400.696 174.212C398.016 173.624 395.398 173.083 392.849 172.591L393.36 169.944C395.932 170.441 398.573 170.986 401.274 171.58L400.696 174.212Z" fill="#259DFF" mask="url(#path-5-inside-2_4200_400)"/>
<path d="M346.567 71.4217C338.68 81.5165 333.804 92.3823 332.272 101.766C330.735 111.177 332.577 118.926 337.865 123.057C343.153 127.188 351.116 127.101 359.877 123.333C368.611 119.576 377.974 112.217 385.861 102.122C393.748 92.027 398.624 81.1612 400.156 71.7776C401.693 62.3661 399.851 54.6178 394.563 50.4864C389.275 46.355 381.312 46.4422 372.551 50.2102C363.817 53.967 354.454 61.3269 346.567 71.4217Z" fill="#259DFF" stroke="#259DFF" stroke-width="1.34771"/>
<path d="M54.0208 438.101C56.6827 433.84 63.2623 435.727 63.2615 440.751L63.2574 465.808C63.257 468.223 64.501 470.467 66.5489 471.746L87.8005 485.021C92.062 487.683 90.1753 494.262 85.1507 494.261L60.0939 494.257C57.6794 494.257 55.435 495.501 54.1558 497.549L40.8812 518.8C38.2193 523.062 31.6397 521.175 31.6406 516.151L31.6447 491.094C31.6451 488.679 30.401 486.435 28.3531 485.156L7.10155 471.881C2.84007 469.219 4.72674 462.64 9.75129 462.64L34.8081 462.644C37.2227 462.645 39.467 461.401 40.7462 459.353L54.0208 438.101Z" fill="#EDF6FF" stroke="#259DFF" stroke-width="2"/>
<path d="M522.544 12.6884C523.662 4.72722 534.507 3.20307 537.775 10.5479L559.468 59.2908C560.87 62.4422 563.798 64.6483 567.214 65.1278L620.048 72.5443C628.009 73.6619 629.533 84.5069 622.188 87.7755L573.445 109.468C570.294 110.87 568.088 113.798 567.608 117.214L560.192 170.048C559.074 178.009 548.229 179.533 544.96 172.188L523.268 123.445C521.866 120.294 518.938 118.088 515.522 117.608L462.688 110.192C454.727 109.074 453.203 98.2292 460.548 94.9605L509.291 73.2683C512.442 71.8658 514.648 68.9382 515.128 65.5223L522.544 12.6884Z" fill="#259DFF" stroke="#EDF6FF" stroke-width="2"/>
</svg>
