<svg width="454" height="453" viewBox="0 0 454 453" fill="none" xmlns="http://www.w3.org/2000/svg">
<g clip-path="url(#clip0_4293_3)">
<rect width="453.333" height="453" rx="226.5" fill="#EDF6FF"/>
<mask id="path-3-inside-1_4293_3" fill="white">
<path fill-rule="evenodd" clip-rule="evenodd" d="M90.4853 107.53C84.2513 109.51 83.9644 126.119 89.8444 144.626C93.6579 156.629 99.1286 166.482 104.204 171.386C105.832 190.643 114.725 226.642 128.409 266.888C134.311 284.249 140.438 300.44 146.337 314.544C146.958 316.38 147.606 318.231 148.281 320.094C151.597 329.246 155.224 337.764 158.92 345.282C155.358 346.347 151.73 347.509 148.059 348.767C110.244 361.725 82.2112 379.921 85.4462 389.41C86.6019 392.799 91.5917 394.619 99.2528 394.967C112.059 399.042 133.036 402.855 156.916 405.055C179.534 407.14 199.883 407.328 213.342 405.931C216.834 411.378 222.691 417.688 230.059 423.542C244.657 435.141 259.658 440.558 263.565 435.64C267.472 430.723 258.806 417.334 244.208 405.735C233.575 397.288 222.729 392.119 216.111 391.834C203.792 388.023 184.38 384.467 162.219 382.278C168.414 380.094 174.327 377.775 179.862 375.383C181.527 376.544 183.066 377.176 184.437 377.217C191.506 380.189 200.019 381.738 209.112 381.332C226.304 380.565 240.814 373.02 247.128 362.801C253.943 363.978 261.598 364.156 269.575 363.124C276.598 362.214 283.141 360.461 288.899 358.093C287.924 360.873 287.001 363.771 286.145 366.763C285.809 367.937 285.49 369.104 285.188 370.263C282.069 379.372 279.05 389.587 276.338 400.457C269.136 429.323 266.015 455.126 267.504 468.583C263.312 472.025 258.773 480.806 256.013 491.637C252.239 506.452 253.225 519.491 258.215 520.763C263.206 522.034 270.31 511.055 274.084 496.241C275.965 488.855 276.664 481.91 276.273 476.645C284.408 469.539 296.012 441.778 304.564 407.5C306.644 399.164 308.383 391.084 309.77 383.483C310.805 380.563 311.783 377.51 312.686 374.352C316.066 362.531 317.776 351.392 317.833 342.765C321.914 341.639 325.445 339.901 328.077 337.814C334.43 340.233 342.423 340.911 350.744 339.294C368.312 335.88 380.691 323.527 378.394 311.702C376.096 299.877 359.991 293.059 342.422 296.473C327.714 299.331 316.643 308.455 314.776 318.289C313.001 318.262 311.159 318.365 309.278 318.608C308.069 318.765 306.89 318.974 305.747 319.23C296.94 311.738 280.649 307.949 262.733 310.268C257.998 310.881 253.482 311.877 249.278 313.187C241.632 312.979 232.768 313.548 223.414 314.994C206.932 317.541 192.725 322.223 184.416 327.32C182.769 321.482 180.808 315.372 178.546 309.129C173.176 294.309 166.99 281.152 161.019 271.21C159.56 266.663 158.033 262.039 156.442 257.357C142.331 215.854 126.935 181.037 116.453 165.421C117.187 158.443 115.857 148.273 112.42 137.454C106.54 118.947 96.7193 105.549 90.4853 107.53Z"/>
</mask>
<path fill-rule="evenodd" clip-rule="evenodd" d="M90.4853 107.53C84.2513 109.51 83.9644 126.119 89.8444 144.626C93.6579 156.629 99.1286 166.482 104.204 171.386C105.832 190.643 114.725 226.642 128.409 266.888C134.311 284.249 140.438 300.44 146.337 314.544C146.958 316.38 147.606 318.231 148.281 320.094C151.597 329.246 155.224 337.764 158.92 345.282C155.358 346.347 151.73 347.509 148.059 348.767C110.244 361.725 82.2112 379.921 85.4462 389.41C86.6019 392.799 91.5917 394.619 99.2528 394.967C112.059 399.042 133.036 402.855 156.916 405.055C179.534 407.14 199.883 407.328 213.342 405.931C216.834 411.378 222.691 417.688 230.059 423.542C244.657 435.141 259.658 440.558 263.565 435.64C267.472 430.723 258.806 417.334 244.208 405.735C233.575 397.288 222.729 392.119 216.111 391.834C203.792 388.023 184.38 384.467 162.219 382.278C168.414 380.094 174.327 377.775 179.862 375.383C181.527 376.544 183.066 377.176 184.437 377.217C191.506 380.189 200.019 381.738 209.112 381.332C226.304 380.565 240.814 373.02 247.128 362.801C253.943 363.978 261.598 364.156 269.575 363.124C276.598 362.214 283.141 360.461 288.899 358.093C287.924 360.873 287.001 363.771 286.145 366.763C285.809 367.937 285.49 369.104 285.188 370.263C282.069 379.372 279.05 389.587 276.338 400.457C269.136 429.323 266.015 455.126 267.504 468.583C263.312 472.025 258.773 480.806 256.013 491.637C252.239 506.452 253.225 519.491 258.215 520.763C263.206 522.034 270.31 511.055 274.084 496.241C275.965 488.855 276.664 481.91 276.273 476.645C284.408 469.539 296.012 441.778 304.564 407.5C306.644 399.164 308.383 391.084 309.77 383.483C310.805 380.563 311.783 377.51 312.686 374.352C316.066 362.531 317.776 351.392 317.833 342.765C321.914 341.639 325.445 339.901 328.077 337.814C334.43 340.233 342.423 340.911 350.744 339.294C368.312 335.88 380.691 323.527 378.394 311.702C376.096 299.877 359.991 293.059 342.422 296.473C327.714 299.331 316.643 308.455 314.776 318.289C313.001 318.262 311.159 318.365 309.278 318.608C308.069 318.765 306.89 318.974 305.747 319.23C296.94 311.738 280.649 307.949 262.733 310.268C257.998 310.881 253.482 311.877 249.278 313.187C241.632 312.979 232.768 313.548 223.414 314.994C206.932 317.541 192.725 322.223 184.416 327.32C182.769 321.482 180.808 315.372 178.546 309.129C173.176 294.309 166.99 281.152 161.019 271.21C159.56 266.663 158.033 262.039 156.442 257.357C142.331 215.854 126.935 181.037 116.453 165.421C117.187 158.443 115.857 148.273 112.42 137.454C106.54 118.947 96.7193 105.549 90.4853 107.53Z" fill="#259DFF"/>
<path d="M89.8444 144.626L87.9383 145.232L87.9383 145.232L89.8444 144.626ZM90.4853 107.53L91.0909 109.436L90.4853 107.53ZM104.204 171.386L106.196 171.217L106.133 170.469L105.593 169.947L104.204 171.386ZM128.409 266.888L130.302 266.245L130.302 266.245L128.409 266.888ZM146.337 314.544L148.231 313.903L148.209 313.837L148.182 313.773L146.337 314.544ZM148.281 320.094L146.401 320.775L146.401 320.775L148.281 320.094ZM158.92 345.282L159.493 347.199L161.758 346.522L160.715 344.4L158.92 345.282ZM148.059 348.767L147.411 346.875L147.411 346.875L148.059 348.767ZM85.4462 389.41L87.3392 388.764L87.3392 388.764L85.4462 389.41ZM99.2528 394.967L99.8592 393.062L99.6075 392.981L99.3436 392.969L99.2528 394.967ZM156.916 405.055L157.1 403.064L157.1 403.064L156.916 405.055ZM213.342 405.931L215.026 404.852L214.361 403.815L213.136 403.942L213.342 405.931ZM230.059 423.542L228.815 425.108L228.815 425.108L230.059 423.542ZM263.565 435.64L262 434.396L262 434.396L263.565 435.64ZM244.208 405.735L242.963 407.301L242.963 407.301L244.208 405.735ZM216.111 391.834L215.52 393.745L215.767 393.821L216.025 393.833L216.111 391.834ZM162.219 382.278L161.554 380.392L162.023 384.269L162.219 382.278ZM179.862 375.383L181.005 373.743L180.091 373.105L179.068 373.548L179.862 375.383ZM184.437 377.217L185.212 375.374L184.868 375.229L184.496 375.218L184.437 377.217ZM209.112 381.332L209.201 383.33L209.201 383.33L209.112 381.332ZM247.128 362.801L247.468 360.83L246.137 360.6L245.426 361.75L247.128 362.801ZM269.575 363.124L269.831 365.107L269.831 365.107L269.575 363.124ZM288.899 358.093L290.786 358.755L292.262 354.548L288.138 356.244L288.899 358.093ZM286.145 366.763L288.068 367.313L288.068 367.313L286.145 366.763ZM285.188 370.263L287.08 370.91L287.104 370.84L287.123 370.768L285.188 370.263ZM276.338 400.457L278.279 400.942L278.279 400.942L276.338 400.457ZM267.504 468.583L268.774 470.129L269.612 469.441L269.492 468.363L267.504 468.583ZM256.013 491.637L254.075 491.144L254.075 491.144L256.013 491.637ZM258.215 520.763L257.722 522.701L257.722 522.701L258.215 520.763ZM274.084 496.241L272.146 495.747L272.146 495.747L274.084 496.241ZM276.273 476.645L274.957 475.139L274.204 475.796L274.278 476.793L276.273 476.645ZM304.564 407.5L302.624 407.016L302.624 407.016L304.564 407.5ZM309.77 383.483L307.885 382.814L307.831 382.966L307.802 383.124L309.77 383.483ZM312.686 374.352L310.763 373.803L310.763 373.803L312.686 374.352ZM317.833 342.765L317.301 340.837L315.843 341.24L315.833 342.752L317.833 342.765ZM328.077 337.814L328.789 335.945L327.726 335.54L326.834 336.247L328.077 337.814ZM350.744 339.294L351.125 341.258L351.125 341.258L350.744 339.294ZM378.394 311.702L380.357 311.321L380.357 311.321L378.394 311.702ZM342.422 296.473L342.041 294.509L342.422 296.473ZM314.776 318.289L314.747 320.288L316.428 320.313L316.741 318.662L314.776 318.289ZM309.278 318.608L309.535 320.591L309.535 320.591L309.278 318.608ZM305.747 319.23L304.451 320.753L305.211 321.4L306.185 321.181L305.747 319.23ZM262.733 310.268L262.989 312.252L262.989 312.252L262.733 310.268ZM249.278 313.187L249.223 315.186L249.555 315.195L249.873 315.097L249.278 313.187ZM223.414 314.994L223.108 313.017L223.108 313.017L223.414 314.994ZM184.416 327.32L182.491 327.862L183.208 330.406L185.461 329.024L184.416 327.32ZM178.546 309.129L176.665 309.81L176.665 309.81L178.546 309.129ZM161.019 271.21L159.114 271.821L159.185 272.042L159.304 272.24L161.019 271.21ZM156.442 257.357L154.548 258.001L154.548 258.001L156.442 257.357ZM116.453 165.421L114.464 165.212L114.388 165.933L114.793 166.536L116.453 165.421ZM112.42 137.454L110.514 138.059L110.514 138.059L112.42 137.454ZM91.7505 144.021C88.858 134.917 87.5105 126.358 87.6218 119.915C87.6777 116.683 88.0993 114.098 88.7967 112.273C89.5033 110.423 90.3582 109.669 91.0909 109.436L89.8797 105.624C87.4955 106.381 85.9768 108.446 85.06 110.845C84.1341 113.269 83.6826 116.365 83.6224 119.846C83.5018 126.829 84.9508 135.829 87.9383 145.232L91.7505 144.021ZM105.593 169.947C100.859 165.374 95.5181 155.879 91.7505 144.021L87.9383 145.232C91.7976 157.379 97.3978 167.591 102.814 172.824L105.593 169.947ZM130.302 266.245C116.63 226.032 107.803 190.222 106.196 171.217L102.211 171.554C103.86 191.064 112.82 227.252 126.515 267.532L130.302 266.245ZM148.182 313.773C142.303 299.714 136.191 283.566 130.302 266.245L126.515 267.532C132.431 284.932 138.574 301.165 144.491 315.316L148.182 313.773ZM150.161 319.413C149.491 317.563 148.848 315.725 148.231 313.903L144.442 315.185C145.068 317.034 145.721 318.899 146.401 320.775L150.161 319.413ZM160.715 344.4C157.053 336.952 153.454 328.501 150.161 319.413L146.401 320.775C149.74 329.991 153.395 338.577 157.125 346.165L160.715 344.4ZM148.707 350.659C152.353 349.41 155.956 348.256 159.493 347.199L158.347 343.366C154.76 344.438 151.106 345.609 147.411 346.875L148.707 350.659ZM87.3392 388.764C86.8981 387.47 87.3843 385.325 90.069 382.176C92.654 379.143 96.8559 375.697 102.448 372.067C113.605 364.825 129.908 357.101 148.707 350.659L147.411 346.875C128.395 353.391 111.774 361.244 100.27 368.712C94.531 372.437 89.9679 376.128 87.0248 379.581C84.1816 382.917 82.3768 386.604 83.5532 390.055L87.3392 388.764ZM99.3436 392.969C95.621 392.8 92.703 392.277 90.6407 391.467C88.5623 390.652 87.6488 389.672 87.3392 388.764L83.5532 390.055C84.3993 392.537 86.5585 394.162 89.1792 395.191C91.8161 396.226 95.2235 396.786 99.1619 396.965L99.3436 392.969ZM157.1 403.064C133.288 400.87 112.471 397.074 99.8592 393.062L98.6464 396.873C111.647 401.01 132.783 404.84 156.732 407.047L157.1 403.064ZM213.136 403.942C199.853 405.321 179.645 405.141 157.1 403.064L156.732 407.047C179.422 409.138 199.913 409.336 213.549 407.92L213.136 403.942ZM231.303 421.976C224.059 416.22 218.37 410.067 215.026 404.852L211.659 407.01C215.299 412.689 221.324 419.156 228.815 425.108L231.303 421.976ZM262 434.396C261.562 434.947 260.622 435.454 258.732 435.456C256.869 435.458 254.416 434.956 251.501 433.904C245.691 431.806 238.479 427.678 231.303 421.976L228.815 425.108C236.237 431.005 243.825 435.385 250.142 437.666C253.291 438.803 256.233 439.458 258.737 439.456C261.215 439.453 263.616 438.792 265.131 436.885L262 434.396ZM242.963 407.301C250.14 413.003 255.791 419.095 259.147 424.28C260.831 426.882 261.874 429.158 262.293 430.974C262.718 432.815 262.437 433.845 262 434.396L265.131 436.885C266.647 434.977 266.748 432.489 266.191 430.075C265.627 427.635 264.324 424.917 262.505 422.107C258.855 416.468 252.874 410.067 245.452 404.17L242.963 407.301ZM216.025 393.833C218.935 393.958 223.011 395.188 227.775 397.52C232.497 399.832 237.746 403.155 242.963 407.301L245.452 404.17C240.037 399.868 234.547 396.382 229.534 393.928C224.561 391.493 219.906 389.996 216.197 389.836L216.025 393.833ZM162.023 384.269C184.115 386.45 203.38 389.99 215.52 393.745L216.702 389.924C204.204 386.057 184.644 382.483 162.416 380.288L162.023 384.269ZM179.068 373.548C173.578 375.92 167.707 378.223 161.554 380.392L162.884 384.165C169.121 381.966 175.077 379.63 180.655 377.219L179.068 373.548ZM184.496 375.218C183.673 375.194 182.514 374.794 181.005 373.743L178.718 377.024C180.54 378.295 182.459 379.159 184.377 379.216L184.496 375.218ZM209.022 379.334C200.205 379.728 191.989 378.223 185.212 375.374L183.661 379.061C191.023 382.156 199.834 383.748 209.201 383.33L209.022 379.334ZM245.426 361.75C239.564 371.238 225.779 378.586 209.022 379.334L209.201 383.33C226.829 382.543 242.064 374.802 248.829 363.852L245.426 361.75ZM269.318 361.14C261.528 362.149 254.075 361.971 247.468 360.83L246.787 364.772C253.812 365.985 261.668 366.164 269.831 365.107L269.318 361.14ZM288.138 356.244C282.549 358.542 276.176 360.252 269.318 361.14L269.831 365.107C277.02 364.176 283.733 362.38 289.66 359.943L288.138 356.244ZM288.068 367.313C288.913 364.358 289.824 361.497 290.786 358.755L287.012 357.431C286.024 360.248 285.088 363.184 284.222 366.213L288.068 367.313ZM287.123 370.768C287.421 369.625 287.737 368.472 288.068 367.313L284.222 366.213C283.882 367.402 283.559 368.584 283.253 369.757L287.123 370.768ZM278.279 400.942C280.978 390.122 283.981 379.962 287.08 370.91L283.295 369.615C280.158 378.781 277.123 389.051 274.398 399.973L278.279 400.942ZM269.492 468.363C268.044 455.275 271.088 429.76 278.279 400.942L274.398 399.973C267.183 428.887 263.986 454.977 265.517 468.803L269.492 468.363ZM257.951 492.131C259.3 486.837 261.077 482.073 263.008 478.238C264.959 474.363 266.991 471.592 268.774 470.129L266.235 467.037C263.826 469.015 261.491 472.356 259.435 476.439C257.358 480.564 255.486 485.606 254.075 491.144L257.951 492.131ZM258.709 518.825C258.301 518.721 257.673 518.302 257.059 516.938C256.455 515.597 256.012 513.639 255.822 511.128C255.444 506.127 256.103 499.386 257.951 492.131L254.075 491.144C252.149 498.703 251.415 505.89 251.834 511.429C252.042 514.189 252.545 516.655 253.412 518.58C254.268 520.481 255.635 522.169 257.722 522.701L258.709 518.825ZM272.146 495.747C270.298 503.002 267.652 509.236 264.927 513.447C263.558 515.562 262.232 517.069 261.061 517.957C259.869 518.861 259.117 518.928 258.709 518.825L257.722 522.701C259.809 523.232 261.817 522.404 263.478 521.144C265.16 519.869 266.782 517.943 268.285 515.62C271.303 510.956 274.096 504.294 276.022 496.734L272.146 495.747ZM274.278 476.793C274.649 481.79 273.989 488.513 272.146 495.747L276.022 496.734C277.942 489.197 278.678 482.03 278.267 476.497L274.278 476.793ZM302.624 407.016C298.366 424.079 293.355 439.494 288.412 451.501C285.94 457.505 283.496 462.63 281.186 466.671C278.854 470.749 276.736 473.584 274.957 475.139L277.588 478.151C279.876 476.153 282.259 472.853 284.659 468.656C287.079 464.422 289.596 459.132 292.111 453.023C297.142 440.804 302.21 425.198 306.505 407.984L302.624 407.016ZM307.802 383.124C306.424 390.681 304.693 398.72 302.624 407.016L306.505 407.984C308.594 399.609 310.343 391.486 311.737 383.841L307.802 383.124ZM310.763 373.803C309.871 376.921 308.906 379.934 307.885 382.814L311.655 384.151C312.704 381.192 313.695 378.099 314.609 374.902L310.763 373.803ZM315.833 342.752C315.777 351.155 314.106 362.11 310.763 373.803L314.609 374.902C318.026 362.952 319.774 351.629 319.833 342.779L315.833 342.752ZM326.834 336.247C324.449 338.139 321.172 339.769 317.301 340.837L318.365 344.693C322.656 343.509 326.441 341.664 329.32 339.381L326.834 336.247ZM350.362 337.331C342.363 338.885 334.754 338.216 328.789 335.945L327.365 339.683C334.106 342.25 342.482 342.937 351.125 341.258L350.362 337.331ZM376.43 312.084C377.414 317.144 375.302 322.55 370.606 327.237C365.92 331.913 358.809 335.69 350.362 337.331L351.125 341.258C360.247 339.485 368.11 335.378 373.431 330.068C378.742 324.768 381.671 318.085 380.357 311.321L376.43 312.084ZM342.804 298.436C351.251 296.795 359.259 297.634 365.355 300.215C371.465 302.801 375.447 307.023 376.43 312.084L380.357 311.321C379.042 304.556 373.823 299.456 366.914 296.531C359.991 293.6 351.163 292.737 342.041 294.509L342.804 298.436ZM316.741 318.662C318.393 309.96 328.512 301.213 342.804 298.436L342.041 294.509C326.917 297.448 314.893 306.95 312.812 317.916L316.741 318.662ZM309.535 320.591C311.322 320.36 313.068 320.264 314.747 320.288L314.806 316.289C312.934 316.261 310.996 316.369 309.022 316.625L309.535 320.591ZM306.185 321.181C307.267 320.939 308.386 320.74 309.535 320.591L309.022 316.625C307.752 316.789 306.512 317.009 305.309 317.278L306.185 321.181ZM262.989 312.252C280.586 309.974 296.229 313.759 304.451 320.753L307.043 317.707C297.652 309.718 280.712 305.924 262.476 308.285L262.989 312.252ZM249.873 315.097C253.965 313.822 258.367 312.85 262.989 312.252L262.476 308.285C257.629 308.912 253 309.933 248.683 311.278L249.873 315.097ZM223.719 316.97C232.969 315.541 241.711 314.982 249.223 315.186L249.332 311.188C241.552 310.976 232.568 311.555 223.108 313.017L223.719 316.97ZM185.461 329.024C193.457 324.12 207.374 319.496 223.719 316.97L223.108 313.017C206.49 315.585 191.994 320.325 183.37 325.615L185.461 329.024ZM176.665 309.81C178.911 316.009 180.858 322.073 182.491 327.862L186.341 326.777C184.681 320.891 182.704 314.735 180.426 308.448L176.665 309.81ZM159.304 272.24C165.197 282.05 171.331 295.087 176.665 309.81L180.426 308.448C175.022 293.532 168.784 280.253 162.733 270.181L159.304 272.24ZM154.548 258.001C156.136 262.672 157.659 267.285 159.114 271.821L162.923 270.6C161.461 266.041 159.931 261.406 158.335 256.714L154.548 258.001ZM114.793 166.536C125.118 181.918 140.445 216.521 154.548 258.001L158.335 256.714C144.216 215.186 128.752 180.155 118.114 164.306L114.793 166.536ZM110.514 138.059C113.902 148.724 115.159 158.602 114.464 165.212L118.442 165.63C119.215 158.283 117.812 147.821 114.326 136.848L110.514 138.059ZM91.0909 109.436C91.8237 109.203 92.9572 109.326 94.6019 110.428C96.2251 111.517 98.061 113.384 99.9722 115.991C103.782 121.189 107.621 128.955 110.514 138.059L114.326 136.848C111.338 127.445 107.327 119.259 103.198 113.626C101.14 110.819 98.9846 108.551 96.8294 107.106C94.6958 105.676 92.264 104.866 89.8797 105.624L91.0909 109.436Z" fill="#259DFF" mask="url(#path-3-inside-1_4293_3)"/>
<path d="M266.817 159V157.817H275.097L268 134.042H242.332L234.998 157.817H243.278V159H225.772V157.817H233.697L259.838 73.5977H260.902L287.044 157.817H294.969V159H266.817ZM255.58 91.6954L242.686 132.859H267.645L255.58 91.6954ZM268.709 52.8977C260.902 52.8977 256.762 43.908 250.73 43.908C246.945 43.908 244.697 47.3383 244.461 52.7794H243.869C243.869 46.1554 244.934 37.6388 252.622 37.6388C260.429 37.6388 264.569 46.6286 270.602 46.6286C274.387 46.6286 276.634 43.1983 276.871 37.7571H277.462C277.462 44.3811 276.398 52.8977 268.709 52.8977ZM260.548 71.7051C251.558 71.7051 246.59 61.5326 244.816 55.6183L245.289 55.3817C247.773 60.8228 253.924 64.8446 260.548 64.8446C267.172 64.8446 273.322 60.8228 275.806 55.3817L276.28 55.6183C274.505 61.5326 269.537 71.7051 260.548 71.7051Z" fill="#259DFF"/>
<path d="M160.806 143V137.096H160.71C160.038 139.784 158.214 143.288 153.846 143.288C149.094 143.288 145.59 139.16 145.59 133.256C145.59 127.352 149.094 122.072 154.086 122.072C157.974 122.072 159.894 125.288 160.614 127.928H160.71V109.4H157.83V108.92H164.55V142.52H167.43V143H160.806ZM154.566 142.664C157.878 142.664 160.71 138.872 160.71 133.016V132.344C160.71 126.488 157.878 122.696 154.566 122.696C150.342 122.696 149.67 128.984 149.67 132.824C149.67 136.616 150.342 142.664 154.566 142.664ZM170.694 128.168V122.36H185.718V122.84L174.342 142.52H181.926C184.902 142.52 186.054 139.784 186.246 137.192H186.726V143H170.358V142.52L181.734 122.84H175.494C172.518 122.84 171.51 125.096 171.174 128.168H170.694ZM178.182 119C177.894 119 177.702 118.856 177.51 118.52C176.022 115.88 174.438 113.768 170.982 111.224L171.078 111.032C173.67 112.28 176.31 113.72 178.182 115.064C180.054 113.72 182.694 112.28 185.286 111.032L185.382 111.224C181.926 113.768 180.342 115.88 178.854 118.52C178.662 118.856 178.47 119 178.182 119Z" fill="#259DFF"/>
<path d="M193.794 38.408L193.506 37.976L198.786 35.096C196.962 33.32 194.898 31.832 192.738 30.776L192.882 30.44C195.666 31.304 198.258 32.552 200.514 34.136L205.602 31.352L205.89 31.784L200.994 34.472C206.466 38.552 210.066 44.792 210.066 52.76C210.066 60.056 207.09 65.288 200.802 65.288C194.082 65.288 191.346 59.384 191.346 54.728C191.346 49.928 194.226 44.072 200.514 44.072C201.474 44.072 202.338 44.216 203.058 44.552C203.97 44.984 204.738 45.752 205.314 46.904H205.41C204.498 42.632 202.194 38.6 199.17 35.48L193.794 38.408ZM200.706 64.904C205.65 64.904 205.986 59.432 205.986 54.68C205.986 49.928 205.65 44.456 200.706 44.456C195.762 44.456 195.426 49.928 195.426 54.68C195.426 59.432 195.762 64.904 200.706 64.904Z" fill="#259DFF"/>
<path d="M376.613 201.056L371.237 185.024L365.381 201.056H364.853L357.701 179.84H355.493V179.36H364.277V179.84H361.637L366.725 195.92L370.949 184.304L369.461 179.84H366.917V179.36H376.517V179.84H373.397L378.437 195.728L383.765 179.84H380.837V179.36H386.789V179.84H384.245L377.141 201.056H376.613ZM371.189 207.104C369.941 207.104 369.077 206.192 369.077 204.992C369.077 203.792 369.941 202.88 371.189 202.88C372.437 202.88 373.301 203.792 373.301 204.992C373.301 206.192 372.437 207.104 371.189 207.104Z" fill="#259DFF"/>
<path d="M118.71 71.84V71.36H121.59V69.392C121.59 61.904 125.19 57.632 130.422 57.632C134.502 57.632 137.382 60.176 137.382 63.92C137.382 68.048 133.878 71.312 131.43 73.184V73.28C135.558 75.824 140.502 79.28 140.502 84.656C140.502 88.208 137.91 92.288 133.11 92.288C130.326 92.288 127.638 91.088 127.638 88.496C127.638 86.96 128.646 86.336 129.606 86.336C130.662 86.336 131.142 87.056 131.238 88.496C131.334 90.608 131.478 91.904 133.446 91.904C136.038 91.904 137.43 89.744 137.43 86.624C137.43 81.296 132.87 78.464 129.078 75.968V75.872C132.006 72.224 133.782 68.624 133.782 64.304C133.782 60.752 132.918 58.016 129.846 58.016C126.582 58.016 125.43 61.088 125.43 68.912V92H118.71V91.52H121.59V71.84H118.71Z" fill="#259DFF"/>
<path d="M319.955 134.24L319.443 133.856L324.243 126.944C320.531 122.72 318.803 116.384 318.803 109.28C318.803 96.544 324.435 86.176 337.043 86.176C342.355 86.176 346.387 88.032 349.331 91.104L354.131 84.32L354.643 84.704L349.779 91.616C353.491 95.904 355.283 102.24 355.283 109.28C355.283 122.016 349.651 132.384 337.043 132.384C331.731 132.384 327.635 130.592 324.691 127.456L319.955 134.24ZM325.459 109.28C325.459 113.952 325.651 119.072 326.867 123.232L346.899 94.624C345.363 90.016 342.483 86.688 337.043 86.688C326.547 86.688 325.459 99.04 325.459 109.28ZM337.043 131.872C347.539 131.872 348.627 119.52 348.627 109.28C348.627 104.672 348.371 99.552 347.155 95.392L327.123 124C328.659 128.608 331.603 131.872 337.043 131.872Z" fill="#259DFF"/>
</g>
<rect x="1" y="1" width="451.333" height="451" rx="225.5" stroke="#259DFF" stroke-width="2"/>
<defs>
<clipPath id="clip0_4293_3">
<rect width="453.333" height="453" rx="226.5" fill="white"/>
</clipPath>
</defs>
</svg>
