<svg width="1360" height="576" viewBox="0 0 1360 576" fill="none" xmlns="http://www.w3.org/2000/svg">
<g clip-path="url(#clip0_2137_477)">
<path d="M299.714 137.65L297.956 144.702C289.469 178.742 244.849 186.954 224.798 158.167C209.618 136.372 178.003 134.632 160.522 154.628L150.746 165.811C142.892 174.796 138.336 186.19 137.83 198.112L133.403 302.378C133.179 307.669 131.542 312.803 128.664 317.249L104.347 354.802C95.08 369.113 110.382 386.603 125.797 379.32C128.878 377.864 131.448 375.513 133.171 372.574L144.868 352.63C167.893 313.369 196.333 317.466 241.811 315.648C250.276 315.309 260.091 314.671 271.465 313.685C342.598 307.515 298.958 215.396 360.536 179.255C370.025 173.685 377.53 171.091 379.338 172.24C387.44 177.389 345.785 278.556 344.526 284.495C324.678 378.133 413.61 241.378 415.026 321.324C416.442 401.27 495.383 360.759 511.761 339.106C562.759 271.681 495.956 241.397 481.964 234.78C478.14 232.971 473.661 228.906 469.143 223.873C457.45 210.849 467.278 191.421 484.714 189.888C490.288 189.398 496.287 191.455 495.689 197.018C493.781 214.779 470.807 251.617 555.174 253.499C638.544 255.359 603.588 202.226 592.972 171.431C589.468 161.266 590.609 150.053 590.103 139.313L587.922 93.052C587.457 83.1883 580.577 74.7976 570.995 72.4087C565.298 70.9881 559.27 71.8658 554.214 74.8522L520.935 94.5094C473.331 122.627 442.112 75.6606 387.051 70.6599C383.659 70.3518 379.939 70.3439 375.85 70.6763C330.337 74.3772 326.001 95.5964 312.076 114.379C306.803 121.493 301.856 129.058 299.714 137.65Z" fill="#EDF6FF" stroke="#259DFF" stroke-width="2"/>
<rect x="1.17432" y="1" width="315.859" height="246" rx="123" fill="#78C2FF" stroke="#259DFF" stroke-width="2"/>
<rect x="97.9948" y="149.662" width="173.06" height="134.586" rx="67.2928" transform="rotate(-45 97.9948 149.662)" fill="#EDF6FF" stroke="#259DFF" stroke-width="2"/>
<rect x="96.5806" y="27.9608" width="173.06" height="134.586" rx="67.2928" transform="rotate(45 96.5806 27.9608)" fill="#259DFF" stroke="#259DFF" stroke-width="2"/>
<path d="M125.337 321.533C127.999 317.272 134.579 319.159 134.578 324.183L134.566 395.382C134.566 397.796 135.81 400.04 137.858 401.32L198.244 439.039C202.505 441.701 200.619 448.281 195.594 448.28L124.396 448.268C121.981 448.268 119.737 449.512 118.458 451.56L80.7381 511.946C78.0762 516.207 71.4966 514.32 71.4974 509.296L71.509 438.098C71.5094 435.683 70.2654 433.439 68.2175 432.159L7.83165 394.44C3.57015 391.778 5.45681 385.198 10.4814 385.199L81.6798 385.211C84.0944 385.211 86.3387 383.967 87.6179 381.919L125.337 321.533Z" fill="#78C2FF" stroke="#259DFF" stroke-width="2"/>
<path d="M533.155 17.0492C534.262 13.1851 539.738 13.1851 540.845 17.0492L549.53 47.3559C550.1 49.3454 551.656 50.9007 553.645 51.4708L583.952 60.1558C587.816 61.2631 587.816 66.7389 583.952 67.8462L553.645 76.5311C551.656 77.1013 550.1 78.6566 549.53 80.6461L540.845 110.953C539.738 114.817 534.262 114.817 533.155 110.953L524.47 80.6461C523.9 78.6566 522.344 77.1013 520.355 76.5311L490.048 67.8462C486.184 66.7389 486.184 61.2631 490.048 60.1558L520.355 51.4708C522.344 50.9007 523.9 49.3454 524.47 47.3559L533.155 17.0492Z" fill="#EDF6FF" stroke="#259DFF" stroke-width="2"/>
<mask id="path-7-inside-1_2137_477" fill="white">
<path d="M546 333H372V498H546V333Z"/>
</mask>
<path d="M546 333H372V498H546V333Z" fill="#EDF6FF"/>
<path d="M546 498H548V500H546V498ZM372 496H546V500H372V496ZM544 498V333H548V498H544Z" fill="#259DFF" mask="url(#path-7-inside-1_2137_477)"/>
<path d="M371.149 495.198V333.304L313.76 285.48V431.433L371.149 495.198Z" fill="#EDF6FF" stroke="#259DFF" stroke-width="2"/>
<path d="M542.891 332L477.39 285H311.815L369.61 332H542.891Z" fill="#EDF6FF" stroke="#259DFF" stroke-width="2"/>
<mask id="path-11-inside-2_2137_477" fill="white">
<path fill-rule="evenodd" clip-rule="evenodd" d="M382.189 2.53798L382.579 3.15077C391.504 4.81913 400.402 16.9861 403.672 33.0349C407.456 51.6042 402.273 68.3386 392.095 70.4124C386.573 71.5375 380.715 68.1154 375.907 61.7832L374.93 64.4005C376.192 67.2182 377.283 70.3145 378.135 73.6115C379.87 80.3206 380.339 86.7813 379.714 92.1466C381.685 91.2306 383.652 90.4595 385.603 89.8404C386.927 89.4202 388.244 89.07 389.55 88.7921C398.489 84.5809 410.199 80.2041 423.24 76.402C453.282 67.6429 479.009 65.2502 480.702 71.0579C482.395 76.8655 459.414 88.6741 429.372 97.4332C425.953 98.4302 422.589 99.3447 419.311 100.174L419.317 100.184C421.126 100.527 423.012 101.057 424.932 101.77C433.488 101.247 442.816 102.279 452.227 105.079C482.22 114.006 501.689 137.521 495.713 157.602C492.679 167.796 483.671 175.145 471.613 178.744C476.815 187.736 482.089 207.916 484.866 231.359C487.221 251.239 487.224 268.758 485.295 279.09C489.824 279.706 495.221 281.094 500.809 283.207C514.256 288.291 523.711 295.646 521.927 299.634C520.143 303.622 507.796 302.733 494.349 297.648C481.16 292.661 471.812 285.491 473.139 281.455C468.37 271.563 463.718 252.795 461.168 231.278C458.59 209.516 458.831 190.583 461.339 180.809C451.869 181.881 441.28 180.983 430.585 177.8C425.216 176.202 420.184 174.137 415.575 171.707C415.12 172.66 414.65 173.612 414.166 174.563C413.143 176.571 412.076 178.529 410.971 180.436C411.231 182.276 411.46 184.138 411.658 186.021C412.875 197.592 412.762 208.658 411.539 218.576C423.622 228.047 432.273 243.275 434.149 261.121C437.511 293.107 417.833 321.391 390.196 324.296C382.729 325.08 375.444 323.932 368.722 321.206L259.058 554.081C253.624 565.621 239.864 570.57 228.324 565.136L225.785 563.94C214.245 558.506 209.296 544.746 214.73 533.206L222.005 517.757C213.172 511.883 209.288 500.47 213.286 490.174L317.646 221.424C320.215 214.808 325.497 210.048 331.727 207.922C325.76 197.123 324.493 181.393 328.143 164.245C321.727 166.708 314.573 169.121 306.965 171.339C276.923 180.098 251.197 182.491 249.503 176.683C248.204 172.225 261.442 164.232 281.252 156.796C279.599 156.8 277.931 156.791 276.249 156.768C237.05 156.224 205.378 148.221 205.508 138.893C205.6 132.237 221.859 126.705 245.408 124.279C242.593 119.939 241.068 115.187 241.137 110.222C241.412 90.3912 267.001 74.6668 298.291 75.1009C323.548 75.4513 344.799 86.2227 351.911 100.793C354.595 100.396 357.124 100.09 359.469 99.8781C355.646 95.3562 352.275 88.655 350.25 80.8211C348.224 72.9879 347.925 65.4933 349.077 59.6853C343.241 63.7106 335.139 64.2024 328.618 59.6051L320.953 54.2013C315.085 50.0641 314.821 41.4564 320.423 36.9663C321.141 36.3912 321.929 35.9102 322.768 35.5351L340.832 27.4627C341.407 23.3824 342.787 19.3603 345.096 15.5416C352.116 3.93181 362.639 -2.58064 382.189 2.53798Z"/>
</mask>
<path fill-rule="evenodd" clip-rule="evenodd" d="M382.189 2.53798L382.579 3.15077C391.504 4.81913 400.402 16.9861 403.672 33.0349C407.456 51.6042 402.273 68.3386 392.095 70.4124C386.573 71.5375 380.715 68.1154 375.907 61.7832L374.93 64.4005C376.192 67.2182 377.283 70.3145 378.135 73.6115C379.87 80.3206 380.339 86.7813 379.714 92.1466C381.685 91.2306 383.652 90.4595 385.603 89.8404C386.927 89.4202 388.244 89.07 389.55 88.7921C398.489 84.5809 410.199 80.2041 423.24 76.402C453.282 67.6429 479.009 65.2502 480.702 71.0579C482.395 76.8655 459.414 88.6741 429.372 97.4332C425.953 98.4302 422.589 99.3447 419.311 100.174L419.317 100.184C421.126 100.527 423.012 101.057 424.932 101.77C433.488 101.247 442.816 102.279 452.227 105.079C482.22 114.006 501.689 137.521 495.713 157.602C492.679 167.796 483.671 175.145 471.613 178.744C476.815 187.736 482.089 207.916 484.866 231.359C487.221 251.239 487.224 268.758 485.295 279.09C489.824 279.706 495.221 281.094 500.809 283.207C514.256 288.291 523.711 295.646 521.927 299.634C520.143 303.622 507.796 302.733 494.349 297.648C481.16 292.661 471.812 285.491 473.139 281.455C468.37 271.563 463.718 252.795 461.168 231.278C458.59 209.516 458.831 190.583 461.339 180.809C451.869 181.881 441.28 180.983 430.585 177.8C425.216 176.202 420.184 174.137 415.575 171.707C415.12 172.66 414.65 173.612 414.166 174.563C413.143 176.571 412.076 178.529 410.971 180.436C411.231 182.276 411.46 184.138 411.658 186.021C412.875 197.592 412.762 208.658 411.539 218.576C423.622 228.047 432.273 243.275 434.149 261.121C437.511 293.107 417.833 321.391 390.196 324.296C382.729 325.08 375.444 323.932 368.722 321.206L259.058 554.081C253.624 565.621 239.864 570.57 228.324 565.136L225.785 563.94C214.245 558.506 209.296 544.746 214.73 533.206L222.005 517.757C213.172 511.883 209.288 500.47 213.286 490.174L317.646 221.424C320.215 214.808 325.497 210.048 331.727 207.922C325.76 197.123 324.493 181.393 328.143 164.245C321.727 166.708 314.573 169.121 306.965 171.339C276.923 180.098 251.197 182.491 249.503 176.683C248.204 172.225 261.442 164.232 281.252 156.796C279.599 156.8 277.931 156.791 276.249 156.768C237.05 156.224 205.378 148.221 205.508 138.893C205.6 132.237 221.859 126.705 245.408 124.279C242.593 119.939 241.068 115.187 241.137 110.222C241.412 90.3912 267.001 74.6668 298.291 75.1009C323.548 75.4513 344.799 86.2227 351.911 100.793C354.595 100.396 357.124 100.09 359.469 99.8781C355.646 95.3562 352.275 88.655 350.25 80.8211C348.224 72.9879 347.925 65.4933 349.077 59.6853C343.241 63.7106 335.139 64.2024 328.618 59.6051L320.953 54.2013C315.085 50.0641 314.821 41.4564 320.423 36.9663C321.141 36.3912 321.929 35.9102 322.768 35.5351L340.832 27.4627C341.407 23.3824 342.787 19.3603 345.096 15.5416C352.116 3.93181 362.639 -2.58064 382.189 2.53798Z" fill="#EDF6FF"/>
<path d="M382.579 3.15077L380.891 4.2237L381.357 4.95706L382.211 5.11672L382.579 3.15077ZM382.189 2.53798L383.877 1.46506L383.456 0.802148L382.696 0.603195L382.189 2.53798ZM403.672 33.0349L401.712 33.4343L403.672 33.0349ZM392.095 70.4124L392.494 72.3721L392.095 70.4124ZM375.907 61.7832L377.5 60.5738L375.305 57.6818L374.034 61.0833L375.907 61.7832ZM374.93 64.4005L373.056 63.7007L372.769 64.4694L373.105 65.2183L374.93 64.4005ZM378.135 73.6115L376.199 74.1121L376.199 74.1121L378.135 73.6115ZM379.714 92.1466L377.727 91.9152L377.313 95.4671L380.556 93.9604L379.714 92.1466ZM385.603 89.8404L384.998 87.934L385.603 89.8404ZM389.55 88.7921L389.966 90.7482L390.193 90.7L390.402 90.6013L389.55 88.7921ZM423.24 76.402L423.8 78.322L423.24 76.402ZM480.702 71.0579L482.622 70.498L482.622 70.498L480.702 71.0579ZM429.372 97.4332L428.812 95.5132L429.372 97.4332ZM419.311 100.174L418.82 98.235L416.079 98.9283L417.646 101.282L419.311 100.174ZM419.317 100.184L417.652 101.292L418.118 101.992L418.944 102.149L419.317 100.184ZM424.932 101.77L424.235 103.645L424.632 103.792L425.054 103.767L424.932 101.77ZM452.227 105.079L452.798 103.163L452.227 105.079ZM495.713 157.602L493.796 157.032L495.713 157.602ZM471.613 178.744L471.041 176.827L468.613 177.552L469.882 179.745L471.613 178.744ZM484.866 231.359L486.852 231.123L484.866 231.359ZM485.295 279.09L483.329 278.723L482.943 280.789L485.026 281.072L485.295 279.09ZM500.809 283.207L500.101 285.077L500.809 283.207ZM521.927 299.634L520.101 298.817L521.927 299.634ZM494.349 297.648L493.641 299.519L494.349 297.648ZM473.139 281.455L475.039 282.08L475.292 281.313L474.941 280.586L473.139 281.455ZM461.168 231.278L459.182 231.513L461.168 231.278ZM461.339 180.809L463.276 181.306L463.997 178.495L461.114 178.821L461.339 180.809ZM430.585 177.8L430.014 179.717L430.585 177.8ZM415.575 171.707L416.507 169.938L414.667 168.968L413.77 170.845L415.575 171.707ZM414.166 174.563L415.948 175.471L414.166 174.563ZM410.971 180.436L409.241 179.433L408.894 180.031L408.991 180.716L410.971 180.436ZM411.539 218.576L409.554 218.331L409.416 219.453L410.305 220.15L411.539 218.576ZM368.722 321.206L369.474 319.353L367.719 318.642L366.913 320.354L368.722 321.206ZM259.058 554.081L260.868 554.933L259.058 554.081ZM228.324 565.136L227.472 566.946L227.472 566.946L228.324 565.136ZM225.785 563.94L226.637 562.131L226.637 562.131L225.785 563.94ZM214.73 533.206L212.921 532.354L212.921 532.354L214.73 533.206ZM222.005 517.757L223.814 518.609L224.55 517.048L223.112 516.092L222.005 517.757ZM213.286 490.174L215.15 490.898L215.15 490.898L213.286 490.174ZM317.646 221.424L315.782 220.7L315.782 220.7L317.646 221.424ZM331.727 207.922L332.373 209.815L334.632 209.044L333.477 206.955L331.727 207.922ZM328.143 164.245L330.099 164.662L330.866 161.058L327.426 162.378L328.143 164.245ZM306.965 171.339L306.406 169.419L306.965 171.339ZM249.503 176.683L251.424 176.123L249.503 176.683ZM281.252 156.796L281.955 158.668L281.247 154.796L281.252 156.796ZM276.249 156.768L276.221 158.767L276.221 158.767L276.249 156.768ZM205.508 138.893L203.508 138.865L205.508 138.893ZM245.408 124.279L245.613 126.269L248.864 125.934L247.086 123.191L245.408 124.279ZM241.137 110.222L239.138 110.195L239.138 110.195L241.137 110.222ZM298.291 75.1009L298.263 77.1007L298.291 75.1009ZM351.911 100.793L350.113 101.67L350.755 102.986L352.203 102.771L351.911 100.793ZM359.469 99.8781L359.649 101.87L363.479 101.524L360.996 98.5869L359.469 99.8781ZM350.25 80.8211L352.186 80.3205L350.25 80.8211ZM349.077 59.6853L351.038 60.0744L351.997 55.2412L347.941 58.039L349.077 59.6853ZM328.618 59.6051L327.466 61.2397L328.618 59.6051ZM320.953 54.2013L322.106 52.5667L320.953 54.2013ZM320.423 36.9663L321.674 38.5269L321.674 38.5269L320.423 36.9663ZM322.768 35.5351L321.952 33.7091L321.952 33.7091L322.768 35.5351ZM340.832 27.4627L341.648 29.2887L342.658 28.8374L342.812 27.7421L340.832 27.4627ZM345.096 15.5416L346.808 16.5764L346.808 16.5764L345.096 15.5416ZM384.267 2.07784L383.877 1.46506L380.501 3.61091L380.891 4.2237L384.267 2.07784ZM405.632 32.6356C403.949 24.3747 400.807 17.0527 396.874 11.5389C392.975 6.07152 388.125 2.15278 382.946 1.18482L382.211 5.11672C385.958 5.81713 390.019 8.81602 393.618 13.8615C397.183 18.8603 400.125 25.6463 401.712 33.4343L405.632 32.6356ZM392.494 72.3721C398.632 71.1216 402.842 65.5636 405.029 58.5012C407.242 51.3588 407.578 42.185 405.632 32.6356L401.712 33.4343C403.55 42.4541 403.186 50.9322 401.209 57.3178C399.206 63.7834 395.736 67.6294 391.696 68.4526L392.494 72.3721ZM374.315 62.9926C379.292 69.5476 385.836 73.7287 392.494 72.3721L391.696 68.4526C387.31 69.3463 382.139 66.6833 377.5 60.5738L374.315 62.9926ZM376.803 65.1004L377.781 62.4831L374.034 61.0833L373.056 63.7007L376.803 65.1004ZM380.072 73.1109C379.192 69.7085 378.065 66.5059 376.755 63.5828L373.105 65.2183C374.32 67.9305 375.374 70.9205 376.199 74.1121L380.072 73.1109ZM381.7 92.378C382.358 86.7333 381.859 80.0229 380.072 73.1109L376.199 74.1121C377.881 80.6182 378.319 86.8292 377.727 91.9152L381.7 92.378ZM384.998 87.934C382.961 88.5807 380.914 89.3834 378.871 90.3328L380.556 93.9604C382.456 93.0777 384.344 92.3383 386.208 91.7467L384.998 87.934ZM389.134 86.8359C387.761 87.128 386.381 87.4952 384.998 87.934L386.208 91.7467C387.473 91.3452 388.727 91.012 389.966 90.7482L389.134 86.8359ZM422.68 74.4819C409.562 78.3068 397.75 82.7183 388.698 86.9828L390.402 90.6013C399.228 86.4436 410.837 82.1014 423.8 78.322L422.68 74.4819ZM482.622 70.498C482.2 69.0491 481.089 68.0941 479.891 67.4807C478.693 66.8672 477.191 66.4756 475.523 66.232C472.175 65.7431 467.68 65.7865 462.417 66.276C451.857 67.2581 437.785 70.0779 422.68 74.4819L423.8 78.322C438.737 73.967 452.55 71.2109 462.787 70.2588C467.923 69.7812 472.055 69.768 474.945 70.19C476.397 70.4021 477.417 70.7079 478.068 71.041C478.718 71.3741 478.781 71.6147 478.782 71.6177L482.622 70.498ZM429.932 99.3533C445.037 94.9492 458.419 89.7646 467.852 84.9176C472.553 82.5018 476.367 80.1228 478.928 77.9109C480.204 76.8094 481.26 75.6718 481.94 74.5106C482.621 73.3495 483.045 71.947 482.622 70.498L478.782 71.6177C478.783 71.6206 478.859 71.8575 478.489 72.4881C478.12 73.1185 477.424 73.9247 476.314 74.8838C474.103 76.7931 470.611 79.0027 466.024 81.3598C456.879 86.0588 443.749 91.1581 428.812 95.5132L429.932 99.3533ZM419.801 102.113C423.103 101.278 426.49 100.357 429.932 99.3533L428.812 95.5132C425.416 96.5035 422.075 97.4117 418.82 98.235L419.801 102.113ZM420.982 99.0756L420.976 99.0659L417.646 101.282L417.652 101.292L420.982 99.0756ZM425.628 99.8955C423.612 99.1464 421.618 98.5843 419.69 98.2186L418.944 102.149C420.634 102.469 422.411 102.967 424.235 103.645L425.628 99.8955ZM452.798 103.163C443.173 100.298 433.61 99.2359 424.81 99.774L425.054 103.767C433.366 103.258 442.46 104.259 451.657 106.996L452.798 103.163ZM497.63 158.173C500.867 147.295 497.144 135.719 488.999 125.882C480.844 116.033 468.121 107.723 452.798 103.163L451.657 106.996C466.326 111.362 478.334 119.273 485.918 128.433C493.512 137.605 496.535 147.827 493.796 157.032L497.63 158.173ZM472.185 180.66C484.656 176.939 494.343 169.216 497.63 158.173L493.796 157.032C491.015 166.376 482.686 173.352 471.041 176.827L472.185 180.66ZM486.852 231.123C485.455 219.327 483.427 208.334 481.087 199.139C478.757 189.984 476.084 182.479 473.344 177.742L469.882 179.745C472.344 184.001 474.909 191.082 477.211 200.126C479.502 209.13 481.5 219.948 482.88 231.594L486.852 231.123ZM487.261 279.457C489.244 268.834 489.217 251.083 486.852 231.123L482.88 231.594C485.226 251.394 485.203 268.681 483.329 278.723L487.261 279.457ZM501.516 281.336C495.811 279.179 490.266 277.747 485.564 277.109L485.026 281.072C489.381 281.664 494.631 283.009 500.101 285.077L501.516 281.336ZM523.753 300.451C524.602 298.552 523.954 296.592 522.959 295.027C521.94 293.424 520.307 291.808 518.307 290.253C514.286 287.125 508.369 283.927 501.516 281.336L500.101 285.077C506.695 287.571 512.23 290.593 515.852 293.41C517.674 294.828 518.911 296.116 519.583 297.173C520.279 298.268 520.144 298.722 520.101 298.817L523.753 300.451ZM493.641 299.519C500.497 302.111 507.139 303.661 512.368 304.038C514.971 304.225 517.333 304.131 519.234 303.663C521.066 303.213 522.928 302.294 523.753 300.451L520.101 298.817C520.034 298.968 519.684 299.433 518.279 299.779C516.943 300.108 515.043 300.22 512.655 300.048C507.903 299.706 501.647 298.27 495.056 295.777L493.641 299.519ZM471.24 280.83C470.619 282.715 471.355 284.596 472.385 286.111C473.448 287.675 475.088 289.256 477.086 290.784C481.099 293.852 486.918 296.977 493.641 299.519L495.056 295.777C488.591 293.333 483.141 290.378 479.515 287.606C477.693 286.213 476.421 284.933 475.693 283.862C474.931 282.742 474.996 282.212 475.039 282.08L471.24 280.83ZM459.182 231.513C461.74 253.106 466.425 272.134 471.338 282.323L474.941 280.586C470.315 270.992 465.695 252.484 463.154 231.043L459.182 231.513ZM459.402 180.312C456.799 190.458 456.598 209.696 459.182 231.513L463.154 231.043C460.583 209.336 460.864 190.707 463.276 181.306L459.402 180.312ZM430.014 179.717C440.951 182.972 451.811 183.901 461.564 182.796L461.114 178.821C451.927 179.862 441.608 178.994 431.155 175.883L430.014 179.717ZM414.642 173.477C419.368 175.968 424.521 178.082 430.014 179.717L431.155 175.883C425.91 174.322 420.999 172.306 416.507 169.938L414.642 173.477ZM415.948 175.471C416.44 174.505 416.917 173.538 417.379 172.57L413.77 170.845C413.322 171.783 412.86 172.719 412.383 173.655L415.948 175.471ZM412.702 181.439C413.825 179.501 414.908 177.511 415.948 175.471L412.383 173.655C411.377 175.631 410.328 177.558 409.241 179.433L412.702 181.439ZM413.647 185.812C413.447 183.905 413.215 182.019 412.952 180.156L408.991 180.716C409.247 182.532 409.474 184.37 409.669 186.23L413.647 185.812ZM413.524 218.821C414.767 208.742 414.878 197.524 413.647 185.812L409.669 186.23C410.871 197.661 410.758 208.573 409.554 218.331L413.524 218.821ZM436.138 260.912C434.209 242.555 425.303 226.824 412.773 217.002L410.305 220.15C421.941 229.271 430.338 243.996 432.16 261.33L436.138 260.912ZM390.406 326.285C419.403 323.237 439.586 293.713 436.138 260.912L432.16 261.33C435.436 292.5 416.262 319.545 389.987 322.307L390.406 326.285ZM367.971 323.06C374.981 325.902 382.595 327.106 390.406 326.285L389.987 322.307C382.862 323.055 375.907 321.961 369.474 319.353L367.971 323.06ZM260.868 554.933L370.532 322.058L366.913 320.354L257.249 553.229L260.868 554.933ZM227.472 566.946C240.011 572.85 254.963 567.472 260.868 554.933L257.249 553.229C252.285 563.769 239.717 568.29 229.176 563.327L227.472 566.946ZM224.933 565.75L227.472 566.946L229.176 563.327L226.637 562.131L224.933 565.75ZM212.921 532.354C207.016 544.893 212.394 559.845 224.933 565.75L226.637 562.131C216.097 557.167 211.576 544.599 216.539 534.058L212.921 532.354ZM220.196 516.905L212.921 532.354L216.539 534.058L223.814 518.609L220.196 516.905ZM211.422 489.45C207.077 500.639 211.299 513.04 220.897 519.423L223.112 516.092C215.045 510.727 211.5 500.3 215.15 490.898L211.422 489.45ZM315.782 220.7L211.422 489.45L215.15 490.898L319.51 222.148L315.782 220.7ZM331.081 206.029C324.317 208.338 318.573 213.511 315.782 220.7L319.51 222.148C321.857 216.105 326.678 211.758 332.373 209.815L331.081 206.029ZM326.187 163.829C322.48 181.247 323.693 197.519 329.976 208.889L333.477 206.955C327.826 196.727 326.507 181.538 330.099 164.662L326.187 163.829ZM307.525 173.259C315.182 171.027 322.389 168.596 328.859 166.113L327.426 162.378C321.065 164.819 313.963 167.215 306.406 169.419L307.525 173.259ZM247.583 177.243C248.006 178.692 249.117 179.647 250.315 180.26C251.513 180.874 253.015 181.265 254.683 181.509C258.031 181.998 262.526 181.954 267.789 181.465C278.349 180.483 292.42 177.663 307.525 173.259L306.406 169.419C291.469 173.774 277.656 176.53 267.418 177.482C262.283 177.96 258.151 177.973 255.261 177.551C253.809 177.339 252.789 177.033 252.138 176.7C251.488 176.367 251.424 176.126 251.424 176.123L247.583 177.243ZM280.549 154.923C270.581 158.665 262.186 162.575 256.408 166.156C253.533 167.938 251.203 169.701 249.656 171.389C248.212 172.965 246.941 175.04 247.583 177.243L251.424 176.123C251.416 176.097 251.313 175.501 252.604 174.092C253.792 172.796 255.767 171.259 258.515 169.556C263.984 166.167 272.113 162.363 281.955 158.668L280.549 154.923ZM276.221 158.767C277.914 158.791 279.593 158.8 281.257 158.796L281.247 154.796C279.605 154.8 277.947 154.791 276.277 154.768L276.221 158.767ZM203.508 138.865C203.459 142.39 206.357 145.163 209.989 147.274C213.784 149.479 219.16 151.426 225.64 153.063C238.633 156.346 256.513 158.494 276.221 158.767L276.277 154.768C256.786 154.497 239.231 152.372 226.62 149.185C220.299 147.588 215.331 145.752 211.999 143.815C208.504 141.785 207.492 140.061 207.507 138.921L203.508 138.865ZM245.203 122.29C233.348 123.511 223.219 125.523 215.986 128.117C212.381 129.411 209.38 130.889 207.236 132.568C205.117 134.229 203.543 136.328 203.508 138.865L207.507 138.921C207.518 138.131 208.012 137.042 209.703 135.717C211.37 134.411 213.923 133.107 217.337 131.882C224.144 129.44 233.919 127.473 245.613 126.269L245.203 122.29ZM239.138 110.195C239.062 115.604 240.728 120.738 243.73 125.367L247.086 123.191C244.458 119.139 243.074 114.77 243.137 110.25L239.138 110.195ZM298.319 73.1011C282.354 72.8796 267.749 76.7752 257.037 83.3582C246.349 89.9258 239.288 99.3542 239.138 110.195L243.137 110.25C243.262 101.259 249.133 92.9099 259.131 86.7661C269.104 80.6377 282.938 76.8881 298.263 77.1007L298.319 73.1011ZM353.708 99.9157C349.9 92.1128 342.407 85.5042 332.781 80.8164C323.134 76.1182 311.214 73.28 298.319 73.1011L298.263 77.1007C310.625 77.2722 321.959 79.9949 331.03 84.4126C340.122 88.8406 346.81 94.9028 350.113 101.67L353.708 99.9157ZM359.289 97.8862C356.901 98.102 354.334 98.4127 351.618 98.8145L352.203 102.771C354.855 102.379 357.346 102.078 359.649 101.87L359.289 97.8862ZM348.313 81.3217C350.397 89.3832 353.886 96.3728 357.942 101.169L360.996 98.5869C357.405 94.3396 354.152 87.9268 352.186 80.3205L348.313 81.3217ZM347.115 59.2962C345.893 65.457 346.229 73.261 348.313 81.3217L352.186 80.3205C350.219 72.7149 349.956 65.5296 351.038 60.0744L347.115 59.2962ZM347.941 58.039C342.742 61.625 335.555 62.0489 329.771 57.9706L327.466 61.2397C334.722 66.356 343.74 65.7962 350.212 61.3316L347.941 58.039ZM329.771 57.9706L322.106 52.5667L319.801 55.8359L327.466 61.2397L329.771 57.9706ZM322.106 52.5667C317.326 49.1965 317.11 42.1846 321.674 38.5269L319.172 35.4057C312.531 40.7282 312.845 50.9317 319.801 55.8359L322.106 52.5667ZM321.674 38.5269C322.258 38.0585 322.9 37.6667 323.584 37.361L321.952 33.7091C320.957 34.1538 320.023 34.724 319.172 35.4057L321.674 38.5269ZM323.584 37.361L341.648 29.2887L340.016 25.6367L321.952 33.7091L323.584 37.361ZM343.385 14.5068C340.934 18.5605 339.464 22.8403 338.851 27.1833L342.812 27.7421C343.351 23.9245 344.641 20.16 346.808 16.5764L343.385 14.5068ZM382.696 0.603195C372.64 -2.02961 364.654 -1.7352 358.185 0.916045C351.713 3.56864 347.036 8.46769 343.385 14.5068L346.808 16.5764C350.176 11.0057 354.27 6.84366 359.702 4.61723C365.137 2.38945 372.188 1.98695 381.683 4.47277L382.696 0.603195Z" fill="#259DFF" mask="url(#path-11-inside-2_2137_477)"/>
<mask id="path-13-inside-3_2137_477" fill="white">
<path fill-rule="evenodd" clip-rule="evenodd" d="M308.677 117.216C302.614 120.802 315.955 148.059 338.475 178.097C360.995 208.134 384.166 229.576 390.229 225.99C390.735 225.691 391.106 225.226 391.347 224.61C400.043 220.13 411.893 201.719 420.32 178.481C426.007 162.8 428.934 148.232 428.925 138.038C435.125 140.54 442.978 142.774 451.471 144.278C471.039 147.744 486.595 146.028 486.215 140.445C485.835 134.863 469.664 127.527 450.095 124.061C432.814 121 418.662 121.981 415.852 126.097C407.47 132.388 396.966 149.538 389.297 170.686C385.785 180.372 383.325 189.633 381.96 197.701C376.578 188.081 369.2 176.806 360.431 165.109C337.911 135.072 314.74 113.63 308.677 117.216Z"/>
</mask>
<path fill-rule="evenodd" clip-rule="evenodd" d="M308.677 117.216C302.614 120.802 315.955 148.059 338.475 178.097C360.995 208.134 384.166 229.576 390.229 225.99C390.735 225.691 391.106 225.226 391.347 224.61C400.043 220.13 411.893 201.719 420.32 178.481C426.007 162.8 428.934 148.232 428.925 138.038C435.125 140.54 442.978 142.774 451.471 144.278C471.039 147.744 486.595 146.028 486.215 140.445C485.835 134.863 469.664 127.527 450.095 124.061C432.814 121 418.662 121.981 415.852 126.097C407.47 132.388 396.966 149.538 389.297 170.686C385.785 180.372 383.325 189.633 381.96 197.701C376.578 188.081 369.2 176.806 360.431 165.109C337.911 135.072 314.74 113.63 308.677 117.216Z" fill="#EDF6FF"/>
<path d="M338.475 178.097L340.076 176.897L338.475 178.097ZM308.677 117.216L309.695 118.937V118.937L308.677 117.216ZM390.229 225.99L389.211 224.268L389.211 224.268L390.229 225.99ZM391.347 224.61L389.485 223.88L389.76 223.177L390.431 222.832L391.347 224.61ZM420.32 178.481L422.2 179.163L420.32 178.481ZM428.925 138.038L426.925 138.04L426.923 135.073L429.674 136.183L428.925 138.038ZM451.471 144.278L451.122 146.247L451.471 144.278ZM450.095 124.061L449.747 126.031L450.095 124.061ZM415.852 126.097L417.504 127.225L417.317 127.498L417.053 127.697L415.852 126.097ZM389.297 170.686L391.177 171.368L389.297 170.686ZM381.96 197.701L383.932 198.035L382.985 203.63L380.214 198.678L381.96 197.701ZM360.431 165.109L362.031 163.909L360.431 165.109ZM336.875 179.296C325.565 164.211 316.525 149.779 311.061 138.616C308.338 133.053 306.452 128.199 305.652 124.433C305.254 122.56 305.093 120.817 305.315 119.334C305.54 117.828 306.207 116.353 307.659 115.495L309.695 118.937C309.631 118.975 309.389 119.137 309.271 119.925C309.15 120.736 309.213 121.946 309.565 123.602C310.264 126.894 311.985 131.404 314.654 136.858C319.975 147.73 328.865 161.945 340.076 176.897L336.875 179.296ZM391.247 227.711C389.854 228.536 388.221 228.498 386.722 228.138C385.197 227.773 383.516 227.007 381.742 225.97C378.184 223.889 373.893 220.495 369.165 216.12C359.689 207.35 348.186 194.383 336.875 179.296L340.076 176.897C351.284 191.847 362.628 204.62 371.882 213.184C376.52 217.476 380.566 220.648 383.762 222.517C385.365 223.455 386.664 224.011 387.655 224.249C388.671 224.492 389.089 224.341 389.211 224.268L391.247 227.711ZM393.21 225.339C392.833 226.301 392.197 227.149 391.247 227.711L389.211 224.268C389.273 224.232 389.379 224.152 389.485 223.88L393.21 225.339ZM390.431 222.832C394.274 220.852 399.171 215.531 404.244 207.51C409.259 199.583 414.268 189.304 418.44 177.799L422.2 179.163C417.946 190.896 412.816 201.441 407.625 209.649C402.492 217.763 397.117 223.887 392.263 226.388L390.431 222.832ZM418.44 177.799C424.08 162.245 426.933 147.919 426.925 138.04L430.925 138.036C430.934 148.545 427.933 163.355 422.2 179.163L418.44 177.799ZM429.674 136.183C435.726 138.626 443.443 140.825 451.82 142.309L451.122 146.247C442.513 144.722 434.524 142.455 428.177 139.893L429.674 136.183ZM451.82 142.309C461.486 144.021 470.065 144.433 476.104 143.767C479.147 143.431 481.383 142.838 482.774 142.113C484.177 141.382 484.236 140.817 484.219 140.581L488.21 140.31C488.384 142.865 486.641 144.608 484.623 145.66C482.592 146.719 479.787 147.385 476.543 147.743C470.007 148.464 461.025 148.001 451.122 146.247L451.82 142.309ZM484.219 140.581C484.184 140.06 483.684 139.021 481.9 137.568C480.208 136.191 477.709 134.726 474.525 133.281C468.172 130.399 459.403 127.741 449.747 126.031L450.444 122.092C460.356 123.847 469.457 126.59 476.177 129.638C479.529 131.159 482.367 132.79 484.426 134.467C486.392 136.068 488.056 138.04 488.21 140.31L484.219 140.581ZM449.747 126.031C441.218 124.52 433.523 124.019 427.671 124.384C424.74 124.567 422.34 124.963 420.555 125.521C418.698 126.101 417.821 126.76 417.504 127.225L414.2 124.97C415.288 123.376 417.233 122.369 419.361 121.703C421.559 121.016 424.304 120.586 427.422 120.392C433.669 120.002 441.691 120.541 450.444 122.092L449.747 126.031ZM417.053 127.697C413.169 130.612 408.607 136.211 404.022 143.849C399.464 151.443 394.973 160.9 391.177 171.368L387.417 170.004C391.29 159.324 395.886 149.631 400.593 141.791C405.273 133.994 410.154 127.873 414.652 124.498L417.053 127.697ZM391.177 171.368C387.7 180.956 385.274 190.101 383.932 198.035L379.988 197.367C381.376 189.166 383.869 179.788 387.417 170.004L391.177 171.368ZM362.031 163.909C370.844 175.664 378.272 187.014 383.705 196.725L380.214 198.678C374.883 189.148 367.557 177.948 358.83 166.309L362.031 163.909ZM307.659 115.495C309.052 114.67 310.685 114.708 312.184 115.067C313.709 115.433 315.39 116.198 317.164 117.236C320.722 119.317 325.013 122.711 329.741 127.086C339.217 135.856 350.72 148.823 362.031 163.909L358.83 166.309C347.622 151.359 336.278 138.586 327.024 130.022C322.386 125.73 318.34 122.558 315.144 120.689C313.541 119.751 312.242 119.195 311.251 118.957C310.235 118.713 309.817 118.865 309.695 118.937L307.659 115.495Z" fill="#259DFF" mask="url(#path-13-inside-3_2137_477)"/>
<path d="M367.495 43.1379C369.759 51.5807 373.911 58.611 378.743 63.1631C383.588 67.7279 388.982 69.6955 393.829 68.3958C398.676 67.096 402.362 62.6936 404.274 56.3172C406.179 49.9585 406.257 41.7939 403.994 33.351C401.73 24.9082 397.577 17.8779 392.746 13.3258C387.901 8.76105 382.507 6.79338 377.659 8.09313C372.812 9.39288 369.126 13.7953 367.215 20.1717C365.309 26.5304 365.231 34.695 367.495 43.1379Z" fill="#78C2FF" stroke="#259DFF" stroke-width="2"/>
<path d="M698.244 57.078L700.38 50.3583H718.185L716.049 57.078H707.431L702.802 71.5897H708.001L724.453 57.078L726.589 50.3583H741.83L739.694 57.078H733.711L709.995 78.095L719.539 94.3939H728.085L725.948 101.114H708.784L710.921 94.3939H718.684L709.283 78.3095H700.594L695.395 94.3939H703.941L701.805 101.114H684L686.137 94.3939H694.612L706.648 57.078H698.244Z" fill="#259DFF"/>
<path d="M759.216 101.114L761.352 94.3939H767.976L767.904 87.7456H750.598L746.396 94.3939H753.162L751.025 101.114H729.018L731.155 94.3939H738.277L767.691 49.5005H768.332L768.688 94.3939H775.81L773.673 101.114H759.216ZM767.619 61.1528L754.942 81.0259H767.833L767.619 61.1528Z" fill="#259DFF"/>
<path d="M777.898 101.114L780.034 94.3939H788.153L800.19 57.078H791.786L793.922 50.3583H809.306C819.561 50.3583 823.977 54.0756 823.977 59.866C823.977 61.2957 823.692 62.9399 823.122 64.7271C820.843 71.8042 816.641 74.7351 810.445 76.0219C811.87 77.2372 812.724 78.9528 812.724 81.4549C812.724 83.099 812.368 84.8862 811.585 87.2452L810.516 90.5336C810.232 91.32 810.16 92.0348 810.16 92.4637C810.16 93.8935 811.015 94.3939 812.582 94.3939C814.79 94.3939 816.285 93.3931 817.353 91.177L824.903 93.2501C823.193 98.2541 819.917 101.542 814.576 101.542C810.588 101.542 808.736 99.6839 808.736 96.181C808.736 94.6798 809.092 92.8212 809.804 90.6766L810.73 87.8171C811.371 85.887 811.727 84.3858 811.727 83.1705C811.727 80.0251 809.234 78.9528 800.831 78.9528H793.922L788.937 94.3939H797.839L795.703 101.114H777.898ZM807.596 57.078H800.973L796.13 72.2331H802.682C811.513 72.2331 820.06 72.0187 822.481 64.6556C822.766 63.7977 822.909 63.0114 822.909 62.368C822.909 57.221 815.288 57.078 807.596 57.078Z" fill="#259DFF"/>
<path d="M838.875 57.078L841.011 50.3583H860.24L858.104 57.078H848.062L836.026 94.3939H860.098L854.116 85.5296H863.16L858.175 101.114H824.631L826.767 94.3939H835.242L847.278 57.078H838.875Z" fill="#259DFF"/>
<path d="M884.304 101.542C874.689 101.542 870.487 95.3232 870.487 87.1738C870.487 83.6709 871.271 79.3103 872.552 75.0926C876.826 61.1528 886.654 49.9294 899.545 49.9294C909.159 49.9294 913.361 56.1487 913.361 64.2981C913.361 67.801 912.578 72.1616 911.296 76.3793C907.023 90.3192 897.194 101.542 884.304 101.542ZM885.942 94.1079C901.396 94.1079 907.949 85.0292 910.797 75.736C911.581 73.1624 912.222 70.0885 912.222 67.5865C912.222 61.8676 908.803 57.364 897.907 57.364C882.452 57.364 875.9 66.4427 873.051 75.736C872.268 78.3095 871.627 81.3834 871.627 83.8854C871.627 89.6043 875.045 94.1079 885.942 94.1079Z" fill="#259DFF"/>
<path d="M945.723 65.9423L957.474 57.078H933.331L928.416 72.3761H941.663L936.322 64.3696H944.512L937.105 87.1023H928.915L939.527 79.0958H926.28L921.294 94.3939H934.755L932.618 101.114H909.899L912.036 94.3939H920.511L932.547 57.078H924.143L926.28 50.3583H959.824L954.768 65.9423H945.723Z" fill="#259DFF"/>
<path d="M985.158 65.9423L996.909 57.078H972.766L967.851 72.3761H981.098L975.757 64.3696H983.947L976.54 87.1023H968.35L978.962 79.0958H965.715L960.729 94.3939H974.19L972.053 101.114H949.334L951.471 94.3939H959.946L971.982 57.078H963.578L965.715 50.3583H999.259L994.203 65.9423H985.158Z" fill="#259DFF"/>
<path d="M684 166.643L686.137 159.923H694.683L706.719 122.607H698.244L700.38 115.887H716.049L720.678 159.923H723.313L735.349 122.607H726.874L729.011 115.887H752.798L750.661 122.607H742.044L727.871 166.643H720.749L716.049 122.607H713.414L701.378 159.923H709.924L707.787 166.643H684Z" fill="#259DFF"/>
<path d="M776.563 131.471L788.314 122.607H764.741L759.826 137.905H772.076L766.735 129.899H774.925L767.518 152.631H759.328L769.94 144.625H757.69L752.705 159.923H777.062L771.079 151.059H780.124L775.139 166.643H741.309L743.446 159.923H751.921L763.957 122.607H755.553L757.69 115.887H790.665L785.608 131.471H776.563Z" fill="#259DFF"/>
<path d="M814.381 150.272L816.518 143.553H832.186L830.049 150.272H823.497L818.298 166.643H810.179L819.936 159.208C820.079 158.851 820.15 158.35 820.15 157.993C820.15 157.278 819.865 156.635 819.01 156.635C817.444 156.635 815.663 158.851 813.099 161.424C809.182 165.356 806.191 167.072 801.562 167.072C793.158 167.072 789.597 161.424 789.597 153.203C789.597 149.557 790.309 145.626 791.662 141.265C796.291 126.253 805.479 115.458 820.506 115.458C825.99 115.458 831.047 117.246 833.397 119.033L828.055 135.904H819.01L830.69 127.039C828.554 124.537 823.996 122.893 817.372 122.893C801.063 122.893 794.938 132.83 792.303 141.265C791.52 143.839 790.95 146.484 790.95 148.986C790.95 154.776 794.084 159.637 803.983 159.637C811.675 159.637 820.791 156.706 822.856 150.272H814.381Z" fill="#259DFF"/>
<path d="M857.142 166.643L859.279 159.923H865.902L865.831 153.275H848.525L844.323 159.923H851.089L848.952 166.643H826.945L829.082 159.923H836.204L865.617 115.03H866.258L866.615 159.923H873.736L871.6 166.643H857.142ZM865.546 126.682L852.869 146.555H865.76L865.546 126.682Z" fill="#259DFF"/>
<path d="M879.228 166.643L881.364 159.923H889.839L901.875 122.607H883.999L889.911 131.471H880.866L885.922 115.887H923.099L918.042 131.471H908.997L920.749 122.607H902.659L890.623 159.923H899.169L897.032 166.643H879.228Z" fill="#259DFF"/>
<path d="M926.717 122.607L928.853 115.887H946.658L944.521 122.607H935.904L923.868 159.923H932.414L930.278 166.643H912.473L914.609 159.923H923.084L935.12 122.607H926.717Z" fill="#259DFF"/>
<path d="M955.831 167.5L955.475 122.607H948.353L950.489 115.887H964.947L962.81 122.607H956.187L956.472 155.848L977.695 122.607H971.001L973.137 115.887H995.144L993.007 122.607H985.814L956.472 167.5H955.831Z" fill="#259DFF"/>
<path d="M1018.46 131.471L1030.21 122.607H1006.64L1001.72 137.905H1013.97L1008.63 129.899H1016.82L1009.41 152.631H1001.22L1011.84 144.625H999.586L994.6 159.923H1018.96L1012.98 151.059H1022.02L1017.03 166.643H983.205L985.342 159.923H993.817L1005.85 122.607H997.449L999.586 115.887H1032.56L1027.5 131.471H1018.46Z" fill="#259DFF"/>
<path d="M1041.28 166.643L1043.42 159.923H1051.89L1063.93 122.607H1055.52L1057.66 115.887H1074.04C1084.37 115.887 1089 120.105 1089 126.682C1089 138.906 1078.74 147.127 1066.49 147.127C1062.08 147.127 1058.94 146.484 1057.3 145.697L1052.67 159.923H1061.22L1059.08 166.643H1041.28ZM1072.62 122.607H1064.71L1059.51 138.834C1061.58 139.621 1064.5 140.05 1068.91 140.05C1075.32 140.05 1088.07 138.406 1088.07 129.327C1088.07 124.037 1080.52 122.607 1072.62 122.607Z" fill="#259DFF"/>
<path d="M1082.32 166.643L1084.46 159.923H1092.58L1104.61 122.607H1096.21L1098.34 115.887H1113.73C1123.98 115.887 1128.4 119.605 1128.4 125.395C1128.4 126.825 1128.11 128.469 1127.54 130.256C1125.26 137.333 1121.06 140.264 1114.87 141.551C1116.29 142.766 1117.15 144.482 1117.15 146.984C1117.15 148.628 1116.79 150.415 1116.01 152.774L1114.94 156.063C1114.65 156.849 1114.58 157.564 1114.58 157.993C1114.58 159.423 1115.44 159.923 1117 159.923C1119.21 159.923 1120.71 158.922 1121.77 156.706L1129.32 158.779C1127.62 163.783 1124.34 167.072 1119 167.072C1115.01 167.072 1113.16 165.213 1113.16 161.71C1113.16 160.209 1113.51 158.35 1114.23 156.206L1115.15 153.346C1115.79 151.416 1116.15 149.915 1116.15 148.7C1116.15 145.554 1113.66 144.482 1105.25 144.482H1098.34L1093.36 159.923H1102.26L1100.12 166.643H1082.32ZM1112.02 122.607H1105.39L1100.55 137.762H1107.1C1115.93 137.762 1124.48 137.548 1126.9 130.185C1127.19 129.327 1127.33 128.54 1127.33 127.897C1127.33 122.75 1119.71 122.607 1112.02 122.607Z" fill="#259DFF"/>
<path d="M1148.94 167.072C1139.33 167.072 1135.13 160.852 1135.13 152.703C1135.13 149.2 1135.91 144.839 1137.19 140.622C1141.46 126.682 1151.29 115.458 1164.18 115.458C1173.8 115.458 1178 121.678 1178 129.827C1178 133.33 1177.22 137.691 1175.93 141.908C1171.66 155.848 1161.83 167.072 1148.94 167.072ZM1150.58 159.637C1166.04 159.637 1172.59 150.558 1175.44 141.265C1176.22 138.692 1176.86 135.618 1176.86 133.116C1176.86 127.397 1173.44 122.893 1162.55 122.893C1147.09 122.893 1140.54 131.972 1137.69 141.265C1136.91 143.839 1136.27 146.912 1136.27 149.414C1136.27 155.133 1139.68 159.637 1150.58 159.637Z" fill="#259DFF"/>
<path d="M725.932 220.427L727.427 215.929H744.086L742.591 220.427H736.895L714.612 239.562L725.434 262.124H731.556L730.132 266.623H709.415L710.839 262.124H719.667L710.341 242.275H704.859L698.452 262.124H705.927L704.503 266.623H684.498L685.922 262.124H693.469L706.924 220.427H699.377L700.872 215.929H720.877L719.382 220.427H711.907L706.283 237.92H711.551L731.485 220.427H725.932Z" fill="#259DFF"/>
<path d="M759.08 266.623L760.433 262.124H766.84V251.771H748.757L742.279 262.124H748.757L747.405 266.623H730.034L731.386 262.124H737.153L766.982 215.929H771.752V262.124H777.163L775.81 266.623H759.08ZM751.605 247.273H766.84L766.911 222.997L751.605 247.273Z" fill="#259DFF"/>
<path d="M778.353 266.623L779.777 262.124H787.323L800.778 220.427H793.232L794.727 215.929H813.735C822.99 215.929 827.76 219.213 827.76 225.925C827.76 233.707 821.424 238.92 812.311 240.776C816.583 241.918 819.431 245.06 816.583 253.842L815.586 256.912C814.305 260.839 815.586 262.339 817.437 262.339C819.146 262.339 820.854 260.982 822.207 258.769L826.265 260.125C824.129 264.052 820.783 267.051 815.586 267.051C810.959 267.051 807.969 264.623 810.46 256.912L811.315 254.27C814.518 244.417 810.888 243.489 801.917 243.489H798.287L792.307 262.124H799.782L798.358 266.623H778.353ZM813.023 220.427H805.619L799.711 238.991H805.192C813.023 238.991 821.922 235.921 821.922 226.853C821.922 222.926 820.285 220.427 813.023 220.427Z" fill="#259DFF"/>
<path d="M840.51 220.427L842.005 215.929H864.501L863.006 220.427H853.039L839.584 262.124H857.809L862.508 247.63H867.42L861.298 266.623H825.63L827.054 262.124H834.601L848.056 220.427H840.51Z" fill="#259DFF"/>
<path d="M889.719 267.051C879.253 267.051 873.914 260.125 873.914 249.629C873.914 232.137 888.722 215.5 904.384 215.5C914.493 215.5 920.117 222.355 920.117 232.993C920.117 249.629 906.306 267.051 889.719 267.051ZM891.214 262.481C904.882 262.481 914.707 245.917 914.707 233.493C914.707 225.782 910.863 220.07 902.889 220.07C889.291 220.07 879.325 236.778 879.325 249.13C879.325 256.769 883.169 262.481 891.214 262.481Z" fill="#259DFF"/>
<path d="M958.144 234.35L962.629 220.427H943.906L937.784 239.348H951.808L950.171 243.917H936.36L930.451 262.124H941.841L940.418 266.623H916.497L917.921 262.124H925.467L938.923 220.427H931.376L932.871 215.929H969.108L963.128 234.35H958.144Z" fill="#259DFF"/>
<path d="M999.858 234.35L1004.34 220.427H985.62L979.497 239.348H993.522L991.885 243.917H978.074L972.165 262.124H983.555L982.132 266.623H958.211L959.635 262.124H967.181L980.637 220.427H973.09L974.585 215.929H1010.82L1004.84 234.35H999.858Z" fill="#259DFF"/>
<path d="M684 332.072L685.424 327.574H693.896L707.351 285.877H698.879L700.374 281.378H714.043L724.366 323.29L736.397 285.877H726.644L728.139 281.378H751.205L749.71 285.877H741.167L726.288 332.072H721.162L710.839 289.946L698.666 327.574H708.49L707.066 332.072H684Z" fill="#259DFF"/>
<path d="M739.491 332.072L740.915 327.574H748.461L761.917 285.877H754.37L755.865 281.378H791.888L785.908 299.8H780.925L785.41 285.877H766.9L761.133 303.798H775.087L773.521 308.582H759.567L753.445 327.574H772.311L777.009 313.08H781.993L775.87 332.072H739.491Z" fill="#259DFF"/>
<path d="M825.787 285.877L827.211 281.378H847.287L845.863 285.877H838.246L827.638 318.792C824.933 327.146 819.451 332.5 808.132 332.5C796.812 332.5 791.615 327.146 794.321 318.792L804.928 285.877H797.524L798.948 281.378H818.953L817.529 285.877H809.912L799.589 317.935C797.311 325.004 800.799 328.217 808.63 328.217C816.532 328.217 820.661 325.004 822.94 317.935L833.262 285.877H825.787Z" fill="#259DFF"/>
<path d="M845.244 332.072L846.739 327.574H854.855L868.382 285.877H855.282L850.655 300.157H845.671L851.794 281.378H892.943L886.82 300.157H881.837L886.464 285.877H873.365L859.839 327.574H868.168L866.673 332.072H845.244Z" fill="#259DFF"/>
<path d="M881.803 332.072L883.227 327.574H890.774L904.229 285.877H896.683L898.178 281.378H917.186C926.441 281.378 931.211 284.663 931.211 291.374C931.211 299.157 924.875 304.369 915.762 306.225C920.033 307.368 922.881 310.509 920.033 319.292L919.037 322.362C917.755 326.289 919.037 327.788 920.888 327.788C922.596 327.788 924.305 326.432 925.658 324.218L929.716 325.575C927.58 329.502 924.234 332.5 919.037 332.5C914.409 332.5 911.419 330.073 913.911 322.362L914.765 319.72C917.969 309.867 914.338 308.939 905.368 308.939H901.737L895.757 327.574H903.232L901.808 332.072H881.803ZM916.474 285.877H909.07L903.161 304.44H908.643C916.474 304.44 925.373 301.37 925.373 292.303C925.373 288.376 923.735 285.877 916.474 285.877Z" fill="#259DFF"/>
<path d="M955.066 332.072L956.419 327.574H962.826V317.221H944.743L938.265 327.574H944.743L943.39 332.072H926.02L927.372 327.574H933.139L962.968 281.378H967.738V327.574H973.149L971.796 332.072H955.066ZM947.591 312.723H962.826L962.897 288.447L947.591 312.723Z" fill="#259DFF"/>
<path d="M989.289 285.877L990.784 281.378H1013.28L1011.79 285.877H1001.82L988.364 327.574H1006.59L1011.29 313.08H1016.2L1010.08 332.072H974.41L975.834 327.574H983.38L996.835 285.877H989.289Z" fill="#259DFF"/>
<path d="M1029.4 332.072L1030.9 327.574H1038.37L1051.83 285.877H1044.21L1045.78 281.378H1063.65C1074.11 281.378 1078.95 286.948 1078.95 294.802C1078.95 305.94 1069.98 313.437 1056.1 313.437C1052.61 313.437 1049.76 313.008 1048.2 312.58L1043.36 327.574H1051.61L1050.12 332.072H1029.4ZM1062.08 285.877H1056.81L1049.62 308.153C1051.26 308.582 1054.46 309.01 1057.67 309.01C1067.63 309.01 1073.26 303.584 1073.26 295.587C1073.26 290.018 1070.2 285.877 1062.08 285.877Z" fill="#259DFF"/>
<path d="M1071.81 332.072L1073.23 327.574H1080.78L1094.24 285.877H1086.69L1088.18 281.378H1107.19C1116.45 281.378 1121.22 284.663 1121.22 291.374C1121.22 299.157 1114.88 304.369 1105.77 306.225C1110.04 307.368 1112.89 310.509 1110.04 319.292L1109.04 322.362C1107.76 326.289 1109.04 327.788 1110.89 327.788C1112.6 327.788 1114.31 326.432 1115.66 324.218L1119.72 325.575C1117.59 329.502 1114.24 332.5 1109.04 332.5C1104.42 332.5 1101.43 330.073 1103.92 322.362L1104.77 319.72C1107.98 309.867 1104.35 308.939 1095.37 308.939H1091.74L1085.76 327.574H1093.24L1091.82 332.072H1071.81ZM1106.48 285.877H1099.08L1093.17 304.44H1098.65C1106.48 304.44 1115.38 301.37 1115.38 292.303C1115.38 288.376 1113.74 285.877 1106.48 285.877Z" fill="#259DFF"/>
<path d="M1141.6 332.5C1131.14 332.5 1125.8 325.575 1125.8 315.079C1125.8 297.586 1140.6 280.95 1156.27 280.95C1166.38 280.95 1172 287.804 1172 298.443C1172 315.079 1158.19 332.5 1141.6 332.5ZM1143.1 327.931C1156.76 327.931 1166.59 311.366 1166.59 298.943C1166.59 291.232 1162.75 285.52 1154.77 285.52C1141.17 285.52 1131.21 302.227 1131.21 314.579C1131.21 322.219 1135.05 327.931 1143.1 327.931Z" fill="#259DFF"/>
<path d="M730.16 388.5L730.4 387.7H742.24L742 388.5H737.04L712.72 410.58L724.64 443.7H729.84L729.6 444.5H710.08L710.32 443.7H716.4L706.8 415.62H703.28L694.16 443.7H700.56L700.32 444.5H680.32L680.56 443.7H686.64L704.56 388.5H698.48L698.72 387.7H718.72L718.48 388.5H712.08L703.52 414.82H706.72L735.84 388.5H730.16ZM727.579 444.5L727.899 443.7H733.099L769.179 386.74H769.899L769.099 443.7H774.459L774.219 444.5H756.059L756.299 443.7H761.579L761.979 427.62H744.299L734.139 443.7H739.659L739.419 444.5H727.579ZM744.779 426.82H761.979L762.619 398.74L744.779 426.82ZM776.568 444.5L776.808 443.7H782.888L800.808 388.5H794.728L794.968 387.7H810.328C822.408 387.7 829.128 391.14 829.128 397.54C829.128 398.74 828.888 400.18 828.408 401.7C825.608 410.42 816.728 414.26 805.528 414.66C811.528 415.22 819.048 417.3 819.048 426.18C819.048 428.42 818.568 431.14 817.528 434.34L816.408 437.7C815.928 439.22 815.688 440.34 815.688 441.22C815.688 443.14 816.808 443.62 818.328 443.62C820.408 443.62 821.688 442.66 823.368 440.02L824.008 440.34C822.248 443.38 820.168 444.98 816.168 444.98C812.408 444.98 808.728 443.54 808.728 439.06C808.728 437.94 808.968 436.82 809.368 435.46L810.728 431.06C811.768 427.62 812.248 424.98 812.248 422.82C812.248 415.86 807.208 415.06 801.128 415.06H799.688L790.408 443.7H796.808L796.568 444.5H776.568ZM810.088 388.5H808.248L799.928 414.26H801.848C811.928 414.26 818.408 408.98 820.568 401.38C821.288 398.9 821.368 396.74 821.368 395.86C821.368 390.42 818.568 388.5 810.088 388.5ZM843.554 388.5L843.794 387.7H865.394L865.154 388.5H857.314L839.394 443.7H846.194C858.514 443.7 863.154 436.9 866.914 428.5H867.714L862.594 444.5H825.394L825.634 443.7H831.874L849.794 388.5H843.554ZM892.144 444.98C880.144 444.98 876.064 437.7 876.064 428.1C876.064 423.78 876.944 419.14 878.544 414.34C883.824 398.42 894.784 387.22 909.584 387.22C921.584 387.22 925.664 394.5 925.664 404.1C925.664 408.42 924.784 413.06 923.184 417.86C917.904 433.78 906.944 444.98 892.144 444.98ZM891.584 444.34C904.784 444.34 911.104 429.06 915.344 416.1C917.344 409.94 919.104 403.7 919.104 398.1C919.104 392.26 917.184 387.86 910.144 387.86C896.944 387.86 890.624 403.14 886.384 416.1C884.384 422.26 882.624 428.5 882.624 434.1C882.624 439.94 884.544 444.34 891.584 444.34ZM971.166 403.14C971.646 401.14 972.046 398.66 972.046 396.5C972.046 391.94 969.726 388.5 962.046 388.5H953.406L944.606 415.62H948.446C956.046 415.62 958.526 412.82 962.206 405.54H963.006L955.246 429.22H954.446C954.846 427.22 955.246 424.9 955.246 423.22C955.246 419.46 953.726 416.42 948.206 416.42H944.366L935.566 443.7H943.406L943.166 444.5H921.566L921.806 443.7H928.046L945.966 388.5H939.726L939.966 387.7H976.926L971.966 403.14H971.166ZM1014.29 403.14C1014.77 401.14 1015.17 398.66 1015.17 396.5C1015.17 391.94 1012.85 388.5 1005.17 388.5H996.531L987.731 415.62H991.571C999.171 415.62 1001.65 412.82 1005.33 405.54H1006.13L998.371 429.22H997.571C997.971 427.22 998.371 424.9 998.371 423.22C998.371 419.46 996.851 416.42 991.331 416.42H987.491L978.691 443.7H986.531L986.291 444.5H964.691L964.931 443.7H971.171L989.091 388.5H982.851L983.091 387.7H1020.05L1015.09 403.14H1014.29ZM680.32 517.5L680.56 516.7H686.64L704.56 461.5H698.48L698.72 460.7H716.16C728.24 460.7 734.32 465.34 734.32 472.46C734.32 474.06 734 475.9 733.44 477.66C730.24 487.74 720.56 492.86 707.44 492.86C705.04 492.86 703.28 492.62 702 492.38L694.16 516.7H700.56L700.32 517.5H680.32ZM715.92 461.5H712.08L702.24 491.74C703.36 491.9 704.64 492.06 706.4 492.06C715.84 492.06 722 487.26 725.44 476.7C726.24 474.3 726.64 471.98 726.64 469.98C726.64 464.86 723.76 461.5 715.92 461.5ZM750.581 517.98C738.581 517.98 734.501 510.7 734.501 501.1C734.501 496.78 735.381 492.14 736.981 487.34C742.261 471.42 753.221 460.22 768.021 460.22C780.021 460.22 784.101 467.5 784.101 477.1C784.101 481.42 783.221 486.06 781.621 490.86C776.341 506.78 765.381 517.98 750.581 517.98ZM750.021 517.34C763.221 517.34 769.541 502.06 773.781 489.1C775.781 482.94 777.541 476.7 777.541 471.1C777.541 465.26 775.621 460.86 768.581 460.86C755.381 460.86 749.061 476.14 744.821 489.1C742.821 495.26 741.061 501.5 741.061 507.1C741.061 512.94 742.981 517.34 750.021 517.34ZM800.551 517.98C793.831 517.98 790.151 515.26 787.351 515.26C785.991 515.26 785.351 515.82 784.791 516.7H784.231L789.911 499.18H790.711C790.311 501.58 790.071 503.66 790.071 505.74C790.071 513.18 793.031 517.26 800.791 517.26C808.711 517.26 813.031 513.02 813.031 506.3C813.031 492.94 796.071 491.58 796.071 477.02C796.071 466.54 804.871 460.22 812.871 460.22C817.831 460.22 821.751 462.62 824.151 462.62C825.271 462.62 825.991 462.06 826.471 461.18H827.031L821.751 477.5H820.951C821.271 475.66 821.511 474.06 821.511 471.9C821.511 465.66 819.431 460.94 812.791 460.94C807.351 460.94 801.591 464.14 801.591 471.66C801.591 484.62 818.551 486.38 818.551 500.7C818.551 509.26 812.631 517.98 800.551 517.98ZM839.027 461.5L839.267 460.7H859.267L859.027 461.5H852.627L834.707 516.7H841.107L840.867 517.5H820.867L821.107 516.7H827.187L845.107 461.5H839.027ZM856.873 517.5L857.113 516.7H864.953L882.873 461.5H879.033C869.273 461.5 864.073 468.78 860.553 476.94H859.753L865.033 460.7H908.713L903.433 476.94H902.633C903.193 474.38 903.673 471.58 903.673 469.26C903.673 464.7 901.833 461.5 895.353 461.5H890.393L872.473 516.7H880.313L880.073 517.5H856.873ZM914.418 461.5L914.658 460.7H934.658L934.418 461.5H928.018L910.098 516.7H916.498L916.258 517.5H896.257L896.497 516.7H902.577L920.497 461.5H914.418ZM971.384 461.5L971.624 460.7H983.464L983.144 461.5H977.784L941.704 518.46H940.984L941.784 461.5H936.424L936.664 460.7H954.824L954.584 461.5H949.304L948.184 506.54L976.744 461.5H971.384ZM1017.66 475.1C1018.06 473.34 1018.38 471.34 1018.38 469.58C1018.38 464.62 1015.82 461.5 1008.54 461.5H999.578L991.338 486.86H995.018C1002.62 486.86 1005.1 484.06 1008.78 476.78H1009.58L1001.82 500.46H1001.02C1001.42 498.46 1001.82 496.14 1001.82 494.46C1001.82 490.7 1000.3 487.66 994.778 487.66H991.098L981.738 516.7H989.658C1001.98 516.7 1006.62 509.9 1010.38 501.5H1011.18L1006.06 517.5H967.738L967.978 516.7H974.218L992.138 461.5H985.898L986.138 460.7H1023.1L1018.46 475.1H1017.66ZM1032.59 517.5L1032.83 516.7H1038.91L1056.83 461.5H1050.75L1050.99 460.7H1068.43C1080.51 460.7 1086.59 465.34 1086.59 472.46C1086.59 474.06 1086.27 475.9 1085.71 477.66C1082.51 487.74 1072.83 492.86 1059.71 492.86C1057.31 492.86 1055.55 492.62 1054.27 492.38L1046.43 516.7H1052.83L1052.59 517.5H1032.59ZM1068.19 461.5H1064.35L1054.51 491.74C1055.63 491.9 1056.91 492.06 1058.67 492.06C1068.11 492.06 1074.27 487.26 1077.71 476.7C1078.51 474.3 1078.91 471.98 1078.91 469.98C1078.91 464.86 1076.03 461.5 1068.19 461.5ZM1077.82 517.5L1078.06 516.7H1084.14L1102.06 461.5H1095.98L1096.22 460.7H1111.58C1123.66 460.7 1130.38 464.14 1130.38 470.54C1130.38 471.74 1130.14 473.18 1129.66 474.7C1126.86 483.42 1117.98 487.26 1106.78 487.66C1112.78 488.22 1120.3 490.3 1120.3 499.18C1120.3 501.42 1119.82 504.14 1118.78 507.34L1117.66 510.7C1117.18 512.22 1116.94 513.34 1116.94 514.22C1116.94 516.14 1118.06 516.62 1119.58 516.62C1121.66 516.62 1122.94 515.66 1124.62 513.02L1125.26 513.34C1123.5 516.38 1121.42 517.98 1117.42 517.98C1113.66 517.98 1109.98 516.54 1109.98 512.06C1109.98 510.94 1110.22 509.82 1110.62 508.46L1111.98 504.06C1113.02 500.62 1113.5 497.98 1113.5 495.82C1113.5 488.86 1108.46 488.06 1102.38 488.06H1100.94L1091.66 516.7H1098.06L1097.82 517.5H1077.82ZM1111.34 461.5H1109.5L1101.18 487.26H1103.1C1113.18 487.26 1119.66 481.98 1121.82 474.38C1122.54 471.9 1122.62 469.74 1122.62 468.86C1122.62 463.42 1119.82 461.5 1111.34 461.5ZM1150.5 517.98C1138.5 517.98 1134.42 510.7 1134.42 501.1C1134.42 496.78 1135.3 492.14 1136.9 487.34C1142.18 471.42 1153.14 460.22 1167.94 460.22C1179.94 460.22 1184.02 467.5 1184.02 477.1C1184.02 481.42 1183.14 486.06 1181.54 490.86C1176.26 506.78 1165.3 517.98 1150.5 517.98ZM1149.94 517.34C1163.14 517.34 1169.46 502.06 1173.7 489.1C1175.7 482.94 1177.46 476.7 1177.46 471.1C1177.46 465.26 1175.54 460.86 1168.5 460.86C1155.3 460.86 1148.98 476.14 1144.74 489.1C1142.74 495.26 1140.98 501.5 1140.98 507.1C1140.98 512.94 1142.9 517.34 1149.94 517.34Z" fill="#259DFF"/>
</g>
<defs>
<clipPath id="clip0_2137_477">
<rect width="1360" height="576" fill="white" transform="translate(0 0.000488281)"/>
</clipPath>
</defs>
</svg>
