<svg width="16" height="92" viewBox="0 0 16 92" fill="none" xmlns="http://www.w3.org/2000/svg">
<path id="Arrow 2" d="M8.70711 0.293381C8.31658 -0.0971428 7.68342 -0.0971428 7.29289 0.293382L0.928932 6.65734C0.538408 7.04787 0.538408 7.68103 0.928932 8.07156C1.31946 8.46208 1.95262 8.46208 2.34315 8.07156L8 2.4147L13.6569 8.07156C14.0474 8.46208 14.6805 8.46208 15.0711 8.07156C15.4616 7.68103 15.4616 7.04787 15.0711 6.65734L8.70711 0.293381ZM7.2929 91.7076C7.68342 92.0981 8.31659 92.0981 8.70711 91.7076L15.0711 85.3436C15.4616 84.9531 15.4616 84.3199 15.0711 83.9294C14.6805 83.5389 14.0474 83.5389 13.6569 83.9294L8 89.5863L2.34315 83.9294C1.95263 83.5389 1.31946 83.5389 0.928936 83.9294C0.538411 84.3199 0.538411 84.9531 0.928936 85.3436L7.2929 91.7076ZM7 1.00049L7 91.0005L9 91.0005L9 1.00049L7 1.00049Z" fill="#259DFF"/>
</svg>
