<svg width="1440" height="774" viewBox="0 0 1440 774" fill="none" xmlns="http://www.w3.org/2000/svg">
<g clip-path="url(#clip0_4196_36)">
<rect width="1440" height="774" fill="#259DFF"/>
<path fill-rule="evenodd" clip-rule="evenodd" d="M340.114 361.836L349.47 366.618C380.758 382.609 372.846 427.719 337.818 430.49C238.45 438.349 121.525 437.41 208 376C221.084 366.709 223.237 358.873 216.415 352.302C40.8145 183.155 -84.8945 631.282 137.692 730.788L201.249 759.2C347.869 824.745 507.169 696.94 474.969 539.597C467.792 504.528 470.294 468.166 482.208 434.411L503.618 373.749C509.151 358.072 517.74 343.649 528.888 331.316L540.95 317.97C577.77 277.234 639.604 271.362 683.433 304.44C701.964 318.426 715.39 338.108 721.65 360.464L726 376L734.598 398.569C739.23 410.729 737.565 424.392 730.146 435.083C726.632 440.148 722.359 444.021 717.667 446.78L679.22 373.843C670.719 357.717 646.696 361.102 642.982 378.949C621.23 361.082 588.328 370.464 579.271 397.116L532.768 533.969C529.7 542.997 530.11 552.844 533.917 561.586C548.829 595.829 598.926 590.662 606.535 554.096L642.982 378.949C650.078 384.779 654.783 393.014 656.201 402.088L662.457 442.127C666.627 468.815 701.225 476.763 716.625 454.57C722.468 459.411 727.584 465.594 731.579 473.171C755.033 517.666 819.723 515.548 839.756 469.411L856 432L890.544 348.878C908.955 304.577 948.222 272.356 995.265 262.947L998.749 262.25C1012.81 259.438 1027.25 259.092 1041.43 261.227C1117.08 272.62 1164.35 349.254 1140.59 421.969L1101.58 541.354C1067.04 647.08 1180.61 739.993 1277.39 685.186L1413.18 608.298C1448.6 588.238 1491.4 618.442 1484.36 658.541C1482.82 667.34 1483.75 676.395 1487.06 684.694L1678 1164L856 944L292 1008L-258 870L-110.346 489.951C-59.2479 358.43 57.0244 263.297 196.059 239.253L217.745 235.503C229.41 233.486 240.809 240.253 244.624 251.459C260.898 299.264 295.148 338.853 340.114 361.836Z" fill="#EDF6FF"/>
<path d="M642.982 378.949C621.23 361.082 588.328 370.464 579.271 397.116L532.768 533.969C529.7 542.997 530.11 552.844 533.917 561.586C548.829 595.829 598.926 590.662 606.535 554.096L642.982 378.949Z" fill="#EDF6FF"/>
<path d="M340.114 361.836L349.47 366.618M340.114 361.836C295.148 338.853 260.898 299.264 244.624 251.459M340.114 361.836V361.836C295.148 338.853 260.898 299.264 244.624 251.459V251.459M349.47 366.618C380.758 382.609 372.846 427.719 337.818 430.49M349.47 366.618V366.618C380.756 382.608 372.843 427.719 337.818 430.49V430.49M337.818 430.49C238.45 438.349 121.525 437.41 208 376C221.084 366.709 223.237 358.873 216.415 352.302M216.415 352.302C40.8145 183.155 -84.8945 631.282 137.692 730.788M216.415 352.302V352.302C40.8145 183.155 -84.8945 631.282 137.692 730.788V730.788M137.692 730.788L201.249 759.2M201.249 759.2C347.869 824.745 507.169 696.94 474.969 539.597M201.249 759.2V759.2C347.868 824.745 507.169 696.94 474.969 539.597V539.597M474.969 539.597C467.792 504.528 470.294 468.166 482.208 434.411M474.969 539.597V539.597C467.792 504.528 470.294 468.166 482.208 434.411V434.411M482.208 434.411L503.618 373.749M503.618 373.749C509.151 358.072 517.74 343.649 528.888 331.316M503.618 373.749V373.749C509.151 358.072 517.74 343.649 528.888 331.316V331.316M528.888 331.316L540.95 317.97M540.95 317.97C577.77 277.234 639.604 271.362 683.433 304.44M540.95 317.97V317.97C577.77 277.234 639.604 271.362 683.433 304.44V304.44M683.433 304.44C701.964 318.426 715.39 338.108 721.65 360.464M683.433 304.44V304.44C701.964 318.426 715.39 338.108 721.65 360.464V360.464M721.65 360.464L726 376L734.598 398.569M734.598 398.569C739.23 410.729 737.565 424.392 730.146 435.083M734.598 398.569V398.569C739.23 410.729 737.565 424.392 730.146 435.083V435.083M730.146 435.083L716.625 454.57M730.146 435.083C726.632 440.148 722.359 444.021 717.667 446.78M731.579 473.171C755.033 517.666 819.723 515.548 839.756 469.411M731.579 473.171V473.171C755.033 517.666 819.723 515.548 839.756 469.411V469.411M731.579 473.171C727.584 465.594 722.468 459.411 716.625 454.57M731.579 473.171L717.667 446.78M839.756 469.411L856 432L890.544 348.878M890.544 348.878C908.955 304.577 948.222 272.356 995.265 262.947M890.544 348.878V348.878C908.955 304.577 948.222 272.356 995.265 262.947V262.947M995.265 262.947L998.749 262.25M998.749 262.25C1012.81 259.438 1027.25 259.092 1041.43 261.227M998.749 262.25V262.25C1012.81 259.438 1027.25 259.092 1041.43 261.227V261.227M1041.43 261.227C1117.08 272.62 1164.35 349.254 1140.59 421.969M1041.43 261.227V261.227C1117.08 272.62 1164.35 349.254 1140.59 421.969V421.969M1140.59 421.969L1101.58 541.354M1101.58 541.354C1067.04 647.08 1180.61 739.993 1277.39 685.186M1101.58 541.354V541.354C1067.04 647.08 1180.61 739.993 1277.39 685.186V685.186M1277.39 685.186L1413.18 608.298M1413.18 608.298C1448.6 588.238 1491.4 618.442 1484.36 658.541M1413.18 608.298V608.298C1448.6 588.238 1491.4 618.442 1484.36 658.541V658.541M1484.36 658.541C1482.82 667.34 1483.75 676.395 1487.06 684.694M1484.36 658.541V658.541C1482.82 667.34 1483.75 676.395 1487.06 684.694V684.694M1487.06 684.694L1678 1164L856 944L292 1008L-258 870L-110.346 489.951M-110.346 489.951C-59.2479 358.43 57.0244 263.297 196.059 239.253M-110.346 489.951V489.951C-59.248 358.43 57.0244 263.297 196.059 239.253V239.253M196.059 239.253L217.745 235.503M217.745 235.503C229.41 233.486 240.809 240.253 244.624 251.459M217.745 235.503V235.503C229.41 233.486 240.809 240.253 244.624 251.459V251.459M642.982 378.949V378.949C621.23 361.082 588.328 370.464 579.271 397.116L532.768 533.969C529.7 542.997 530.11 552.844 533.917 561.586V561.586C548.829 595.829 598.926 590.662 606.535 554.097L642.982 378.949ZM642.982 378.949V378.949C646.696 361.102 670.719 357.717 679.22 373.843L717.667 446.78M642.982 378.949V378.949C650.078 384.779 654.783 393.014 656.201 402.088L662.457 442.127C666.627 468.815 701.225 476.763 716.625 454.57V454.57M717.667 446.78C717.53 446.86 717.393 446.94 717.255 447.019C715.049 448.279 712.753 449.296 710.402 450.079C712.551 451.421 714.63 452.917 716.625 454.57" stroke="#259DFF" stroke-width="2"/>
<mask id="path-3-inside-1_4196_36" fill="white">
<path fill-rule="evenodd" clip-rule="evenodd" d="M237.803 449.89L237.427 449.3C218.615 444.374 208.489 450.641 201.735 461.813C199.513 465.487 198.185 469.357 197.631 473.284L180.249 481.051C179.441 481.412 178.683 481.875 177.992 482.429C172.601 486.749 172.856 495.032 178.503 499.013L185.878 504.213C191.965 508.505 199.485 508.187 205.056 504.628C204.106 509.465 204.313 515.422 205.907 521.589C207.014 525.867 208.655 529.734 210.617 532.96C208.618 534.547 206.736 536.422 204.985 538.554L204.96 538.584C196.074 527.303 177.844 519.417 156.696 519.123C126.587 518.706 101.964 533.836 101.7 552.919C101.633 557.696 103.1 562.269 105.809 566.445C83.1493 568.78 67.5039 574.103 67.4151 580.508C67.2992 588.859 93.6726 596.106 127.723 597.496C122.091 599.338 116.113 601.559 110.016 604.112C89.9963 612.498 74.4151 622.079 69.4493 628.502C68.5798 628.896 68.0165 629.474 67.7962 630.246C67.656 630.737 67.6591 631.291 67.7972 631.901C67.729 632.538 67.8526 633.11 68.1806 633.608C68.353 633.87 68.5785 634.106 68.8549 634.317C73.3226 641.646 90.196 653.802 111.266 664.345C126.598 672.016 140.69 677.101 149.93 678.692C147.581 682.956 145.536 688.841 144.306 695.464C141.725 709.366 143.716 721.257 148.752 722.023C153.789 722.789 159.963 712.14 162.544 698.238C164.869 685.713 163.484 674.821 159.504 672.225C154.565 664.85 138 653.025 117.437 642.736C109.072 638.551 101.077 635.135 94.0366 632.637C102.466 630.439 112.258 627.118 122.377 622.879C125.289 621.66 128.106 620.415 130.81 619.159C140.322 617.978 152.278 615.451 165.043 611.729C174.744 608.9 183.679 605.742 191.209 602.582C192.972 616.956 197.211 629.953 203.027 640.354C204.113 647.238 205.639 653.763 207.515 659.783C195.748 671.143 189.101 688.997 191.124 708.243C191.336 710.256 191.637 712.235 192.022 714.174L87.658 935.795C82.4289 946.899 87.1916 960.14 98.2958 965.369L100.739 966.519C111.843 971.748 125.084 966.986 130.313 955.881L224.469 755.939C226.106 756.602 227.777 757.169 229.478 757.633L259.427 944.418C261.37 956.537 272.769 964.786 284.888 962.843L307.833 959.164C319.952 957.221 328.201 945.822 326.258 933.703L289.634 705.285C289.255 702.921 288.516 700.705 287.482 698.682C287.464 698.495 287.445 698.309 287.426 698.122C285.621 680.949 277.295 666.296 265.669 657.183C266.34 651.744 266.663 645.947 266.601 639.905C270.255 631.07 272.511 620.46 272.99 608.908C285.032 614.939 302.106 616.206 319.534 611.209C336.052 606.472 349.319 597.131 356.633 586.381C373.59 580.692 387.682 574.092 395.095 568.621C396.302 568.392 397.553 567.271 398.806 565.386C399.964 564.117 400.624 562.951 400.721 561.924C404.972 552.944 409.006 535.831 411.164 515.72C413.431 494.589 413.037 475.668 410.56 465.496C414.606 465.992 419.802 465.83 425.405 464.889C437.745 462.816 447.384 457.747 446.934 453.568C446.484 449.388 436.115 447.68 423.775 449.753C413.344 451.505 404.843 455.398 402.734 459.084C397.373 464.62 391.672 485.208 388.952 510.561C386.894 529.737 387.029 547.092 388.922 557.741C382.092 557.893 372.743 559.267 362.063 561.757C362.006 561.534 361.945 561.312 361.882 561.091C356.325 541.711 328.355 532.729 299.41 541.029C293.852 542.622 288.662 544.737 283.944 547.252C280.257 545.243 276.55 543.9 273.129 543.255C276.29 542.456 279.532 541.574 282.829 540.613C311.737 532.184 333.851 520.822 332.221 515.233C330.592 509.645 305.836 511.947 276.928 520.376C263.995 524.147 252.421 528.505 243.725 532.671C240.623 530.505 237.386 528.911 234.072 527.964C234.364 523.915 233.954 519.344 232.74 514.651C232.167 512.432 231.449 510.324 230.617 508.358L231.382 506.309C236.009 512.402 241.645 515.695 246.959 514.612C256.752 512.617 261.74 496.514 258.099 478.646C254.952 463.203 246.391 451.496 237.803 449.89Z"/>
</mask>
<path fill-rule="evenodd" clip-rule="evenodd" d="M237.803 449.89L237.427 449.3C218.615 444.374 208.489 450.641 201.735 461.813C199.513 465.487 198.185 469.357 197.631 473.284L180.249 481.051C179.441 481.412 178.683 481.875 177.992 482.429C172.601 486.749 172.856 495.032 178.503 499.013L185.878 504.213C191.965 508.505 199.485 508.187 205.056 504.628C204.106 509.465 204.313 515.422 205.907 521.589C207.014 525.867 208.655 529.734 210.617 532.96C208.618 534.547 206.736 536.422 204.985 538.554L204.96 538.584C196.074 527.303 177.844 519.417 156.696 519.123C126.587 518.706 101.964 533.836 101.7 552.919C101.633 557.696 103.1 562.269 105.809 566.445C83.1493 568.78 67.5039 574.103 67.4151 580.508C67.2992 588.859 93.6726 596.106 127.723 597.496C122.091 599.338 116.113 601.559 110.016 604.112C89.9963 612.498 74.4151 622.079 69.4493 628.502C68.5798 628.896 68.0165 629.474 67.7962 630.246C67.656 630.737 67.6591 631.291 67.7972 631.901C67.729 632.538 67.8526 633.11 68.1806 633.608C68.353 633.87 68.5785 634.106 68.8549 634.317C73.3226 641.646 90.196 653.802 111.266 664.345C126.598 672.016 140.69 677.101 149.93 678.692C147.581 682.956 145.536 688.841 144.306 695.464C141.725 709.366 143.716 721.257 148.752 722.023C153.789 722.789 159.963 712.14 162.544 698.238C164.869 685.713 163.484 674.821 159.504 672.225C154.565 664.85 138 653.025 117.437 642.736C109.072 638.551 101.077 635.135 94.0366 632.637C102.466 630.439 112.258 627.118 122.377 622.879C125.289 621.66 128.106 620.415 130.81 619.159C140.322 617.978 152.278 615.451 165.043 611.729C174.744 608.9 183.679 605.742 191.209 602.582C192.972 616.956 197.211 629.953 203.027 640.354C204.113 647.238 205.639 653.763 207.515 659.783C195.748 671.143 189.101 688.997 191.124 708.243C191.336 710.256 191.637 712.235 192.022 714.174L87.658 935.795C82.4289 946.899 87.1916 960.14 98.2958 965.369L100.739 966.519C111.843 971.748 125.084 966.986 130.313 955.881L224.469 755.939C226.106 756.602 227.777 757.169 229.478 757.633L259.427 944.418C261.37 956.537 272.769 964.786 284.888 962.843L307.833 959.164C319.952 957.221 328.201 945.822 326.258 933.703L289.634 705.285C289.255 702.921 288.516 700.705 287.482 698.682C287.464 698.495 287.445 698.309 287.426 698.122C285.621 680.949 277.295 666.296 265.669 657.183C266.34 651.744 266.663 645.947 266.601 639.905C270.255 631.07 272.511 620.46 272.99 608.908C285.032 614.939 302.106 616.206 319.534 611.209C336.052 606.472 349.319 597.131 356.633 586.381C373.59 580.692 387.682 574.092 395.095 568.621C396.302 568.392 397.553 567.271 398.806 565.386C399.964 564.117 400.624 562.951 400.721 561.924C404.972 552.944 409.006 535.831 411.164 515.72C413.431 494.589 413.037 475.668 410.56 465.496C414.606 465.992 419.802 465.83 425.405 464.889C437.745 462.816 447.384 457.747 446.934 453.568C446.484 449.388 436.115 447.68 423.775 449.753C413.344 451.505 404.843 455.398 402.734 459.084C397.373 464.62 391.672 485.208 388.952 510.561C386.894 529.737 387.029 547.092 388.922 557.741C382.092 557.893 372.743 559.267 362.063 561.757C362.006 561.534 361.945 561.312 361.882 561.091C356.325 541.711 328.355 532.729 299.41 541.029C293.852 542.622 288.662 544.737 283.944 547.252C280.257 545.243 276.55 543.9 273.129 543.255C276.29 542.456 279.532 541.574 282.829 540.613C311.737 532.184 333.851 520.822 332.221 515.233C330.592 509.645 305.836 511.947 276.928 520.376C263.995 524.147 252.421 528.505 243.725 532.671C240.623 530.505 237.386 528.911 234.072 527.964C234.364 523.915 233.954 519.344 232.74 514.651C232.167 512.432 231.449 510.324 230.617 508.358L231.382 506.309C236.009 512.402 241.645 515.695 246.959 514.612C256.752 512.617 261.74 496.514 258.099 478.646C254.952 463.203 246.391 451.496 237.803 449.89Z" fill="#EDF6FF"/>
<path d="M237.427 449.3L238.499 448.619L238.231 448.198L237.749 448.071L237.427 449.3ZM237.803 449.89L236.731 450.571L237.027 451.037L237.569 451.138L237.803 449.89ZM201.735 461.813L200.648 461.156L200.648 461.156L201.735 461.813ZM197.631 473.284L198.149 474.443L198.79 474.156L198.889 473.461L197.631 473.284ZM180.249 481.051L180.767 482.211L180.767 482.211L180.249 481.051ZM177.992 482.429L178.787 483.42L178.787 483.42L177.992 482.429ZM178.503 499.013L179.234 497.975L179.234 497.975L178.503 499.013ZM185.878 504.213L186.61 503.175L185.878 504.213ZM205.056 504.628L206.302 504.872L206.874 501.959L204.372 503.558L205.056 504.628ZM205.907 521.589L204.678 521.906L205.907 521.589ZM210.617 532.96L211.407 533.955L212.285 533.258L211.702 532.3L210.617 532.96ZM204.985 538.554L204.003 537.748L204.003 537.748L204.985 538.554ZM204.96 538.584L203.962 539.37L204.94 540.611L205.942 539.39L204.96 538.584ZM156.696 519.123L156.678 520.393L156.696 519.123ZM101.7 552.919L100.43 552.901L101.7 552.919ZM105.809 566.445L105.939 567.709L108.004 567.496L106.874 565.754L105.809 566.445ZM67.4151 580.508L68.6849 580.525L67.4151 580.508ZM127.723 597.496L128.118 598.703L127.775 596.227L127.723 597.496ZM110.016 604.112L110.507 605.284L110.016 604.112ZM69.4493 628.502L69.9738 629.658L70.261 629.528L70.454 629.278L69.4493 628.502ZM67.7962 630.246L69.0173 630.594L67.7962 630.246ZM67.7972 631.901L69.0599 632.036L69.0824 631.826L69.0358 631.621L67.7972 631.901ZM68.1806 633.608L67.12 634.307L67.12 634.307L68.1806 633.608ZM68.8549 634.317L69.9393 633.656L69.8153 633.453L69.6261 633.308L68.8549 634.317ZM111.266 664.345L110.698 665.48L111.266 664.345ZM149.93 678.692L151.043 679.305L151.903 677.743L150.146 677.441L149.93 678.692ZM144.306 695.464L143.058 695.233L144.306 695.464ZM148.752 722.023L148.561 723.279L148.752 722.023ZM162.544 698.238L163.793 698.469L162.544 698.238ZM159.504 672.225L158.449 672.932L158.593 673.147L158.81 673.289L159.504 672.225ZM117.437 642.736L116.869 643.872L117.437 642.736ZM94.0366 632.637L93.7161 631.408L89.7159 632.451L93.6119 633.834L94.0366 632.637ZM122.377 622.879L121.887 621.708L122.377 622.879ZM130.81 619.159L130.654 617.898L130.456 617.923L130.275 618.007L130.81 619.159ZM165.043 611.729L164.688 610.51L165.043 611.729ZM191.209 602.582L192.47 602.427L192.266 600.761L190.718 601.411L191.209 602.582ZM203.027 640.354L204.281 640.156L204.246 639.932L204.135 639.735L203.027 640.354ZM207.515 659.783L208.397 660.696L208.961 660.152L208.728 659.405L207.515 659.783ZM192.022 714.174L193.171 714.715L193.349 714.336L193.268 713.926L192.022 714.174ZM87.658 935.795L88.8069 936.336L88.8069 936.336L87.658 935.795ZM98.2958 965.369L98.8368 964.22L98.8368 964.22L98.2958 965.369ZM100.739 966.519L100.198 967.668L100.198 967.668L100.739 966.519ZM130.313 955.881L131.462 956.422L130.313 955.881ZM224.469 755.939L224.946 754.762L223.832 754.31L223.32 755.397L224.469 755.939ZM229.478 757.633L230.732 757.432L230.602 756.623L229.812 756.407L229.478 757.633ZM259.427 944.418L258.173 944.619L259.427 944.418ZM284.888 962.843L285.089 964.097L284.888 962.843ZM307.833 959.164L307.632 957.911L307.833 959.164ZM326.258 933.703L325.004 933.904L326.258 933.703ZM289.634 705.285L288.38 705.486L289.634 705.285ZM287.482 698.682L286.218 698.804L286.241 699.045L286.351 699.26L287.482 698.682ZM265.669 657.183L264.409 657.027L264.321 657.739L264.885 658.182L265.669 657.183ZM266.601 639.905L265.427 639.42L265.328 639.659L265.331 639.918L266.601 639.905ZM272.99 608.908L273.559 607.773L271.803 606.894L271.722 608.856L272.99 608.908ZM319.534 611.209L319.884 612.43L319.534 611.209ZM356.633 586.381L356.229 585.177L355.823 585.313L355.583 585.667L356.633 586.381ZM395.095 568.621L394.858 567.373L394.574 567.427L394.341 567.599L395.095 568.621ZM398.806 565.386L397.868 564.531L397.803 564.602L397.749 564.683L398.806 565.386ZM400.721 561.924L399.573 561.381L399.477 561.582L399.456 561.805L400.721 561.924ZM411.164 515.72L409.901 515.585L411.164 515.72ZM410.56 465.496L410.714 464.236L408.891 464.013L409.326 465.797L410.56 465.496ZM425.405 464.889L425.195 463.636L425.405 464.889ZM423.775 449.753L423.985 451.006L423.775 449.753ZM402.734 459.084L403.647 459.968L403.757 459.853L403.837 459.715L402.734 459.084ZM388.952 510.561L387.689 510.425L388.952 510.561ZM388.922 557.741L388.95 559.011L390.432 558.978L390.173 557.519L388.922 557.741ZM362.063 561.757L360.833 562.073L361.142 563.276L362.351 562.994L362.063 561.757ZM361.882 561.091L360.661 561.441L360.661 561.441L361.882 561.091ZM299.41 541.029L299.06 539.808L299.41 541.029ZM283.944 547.252L283.336 548.367L283.937 548.694L284.541 548.373L283.944 547.252ZM273.129 543.255L272.818 542.024L272.894 544.503L273.129 543.255ZM282.829 540.613L282.473 539.394L282.829 540.613ZM276.928 520.376L276.573 519.156L276.928 520.376ZM243.725 532.671L242.998 533.712L243.606 534.136L244.274 533.816L243.725 532.671ZM234.072 527.964L232.805 527.873L232.731 528.902L233.723 529.185L234.072 527.964ZM232.74 514.651L231.511 514.969L232.74 514.651ZM230.617 508.358L229.427 507.913L229.251 508.387L229.448 508.853L230.617 508.358ZM231.382 506.309L232.394 505.541L231 503.705L230.193 505.865L231.382 506.309ZM246.959 514.612L246.705 513.368L246.959 514.612ZM258.099 478.646L256.854 478.899L258.099 478.646ZM236.356 449.981L236.731 450.571L238.874 449.209L238.499 448.619L236.356 449.981ZM202.821 462.47C206.109 457.033 210.144 452.907 215.541 450.695C220.94 448.482 227.878 448.112 237.106 450.528L237.749 448.071C228.165 445.562 220.633 445.863 214.578 448.345C208.52 450.827 204.115 455.421 200.648 461.156L202.821 462.47ZM198.889 473.461C199.419 469.702 200.69 465.995 202.821 462.47L200.648 461.156C198.336 464.979 196.951 469.013 196.374 473.106L198.889 473.461ZM180.767 482.211L198.149 474.443L197.113 472.124L179.731 479.892L180.767 482.211ZM178.787 483.42C179.393 482.934 180.058 482.528 180.767 482.211L179.731 479.892C178.824 480.297 177.973 480.817 177.198 481.438L178.787 483.42ZM179.234 497.975C174.279 494.481 174.055 487.212 178.787 483.42L177.198 481.438C171.148 486.287 171.434 495.583 177.771 500.051L179.234 497.975ZM186.61 503.175L179.234 497.975L177.771 500.051L185.146 505.251L186.61 503.175ZM204.372 503.558C199.202 506.861 192.244 507.147 186.61 503.175L185.146 505.251C191.686 509.862 199.767 509.514 205.74 505.698L204.372 503.558ZM207.137 521.271C205.583 515.259 205.394 509.496 206.302 504.872L203.81 504.383C202.818 509.434 203.044 515.585 204.678 521.906L207.137 521.271ZM211.702 532.3C209.809 529.187 208.214 525.437 207.137 521.271L204.678 521.906C205.813 526.297 207.501 530.28 209.532 533.62L211.702 532.3ZM205.966 539.36C207.666 537.29 209.485 535.48 211.407 533.955L209.828 531.965C207.751 533.613 205.806 535.553 204.003 537.748L205.966 539.36ZM205.942 539.39L205.967 539.359L204.003 537.748L203.978 537.779L205.942 539.39ZM156.678 520.393C177.581 520.683 195.387 528.484 203.962 539.37L205.957 537.799C196.761 526.123 178.107 518.15 156.713 517.854L156.678 520.393ZM102.969 552.937C103.094 543.983 108.938 535.772 118.671 529.791C128.389 523.819 141.827 520.187 156.678 520.393L156.713 517.854C141.456 517.642 127.528 521.367 117.341 527.627C107.17 533.877 100.57 542.773 100.43 552.901L102.969 552.937ZM106.874 565.754C104.284 561.761 102.907 557.432 102.969 552.937L100.43 552.901C100.36 557.961 101.916 562.777 104.743 567.136L106.874 565.754ZM68.6849 580.525C68.6994 579.479 69.3509 578.266 71.0482 576.936C72.7302 575.619 75.2601 574.335 78.5768 573.145C85.1968 570.771 94.6605 568.87 105.939 567.709L105.679 565.182C94.2977 566.355 84.6089 568.283 77.7191 570.755C74.2809 571.988 71.4666 573.382 69.4819 574.937C67.5127 576.48 66.1752 578.334 66.1453 580.49L68.6849 580.525ZM127.775 596.227C110.813 595.535 95.8104 593.384 85.0986 590.389C79.7331 588.889 75.5159 587.196 72.6761 585.414C69.7595 583.584 68.6658 581.902 68.6849 580.525L66.1453 580.49C66.1064 583.289 68.2659 585.645 71.3259 587.565C74.4626 589.534 78.9451 591.306 84.4148 592.835C95.3733 595.899 110.583 598.067 127.671 598.765L127.775 596.227ZM110.507 605.284C116.573 602.743 122.519 600.534 128.118 598.703L127.328 596.289C121.662 598.142 115.653 600.375 109.526 602.941L110.507 605.284ZM70.454 629.278C72.7848 626.264 77.7481 622.363 84.7448 618.13C91.7008 613.921 100.544 609.457 110.507 605.284L109.526 602.941C99.4687 607.154 90.5111 611.673 83.4301 615.957C76.3898 620.216 71.0796 624.317 68.4447 627.725L70.454 629.278ZM69.0173 630.594C69.1108 630.267 69.3534 629.939 69.9738 629.658L68.9249 627.345C67.8062 627.852 66.9222 628.681 66.5751 629.897L69.0173 630.594ZM69.0358 631.621C68.9326 631.165 68.949 630.833 69.0173 630.594L66.5751 629.897C66.3629 630.64 66.3856 631.416 66.5586 632.181L69.0358 631.621ZM69.2411 632.91C69.0935 632.685 69.0193 632.415 69.0599 632.036L66.5345 631.766C66.4387 632.661 66.6116 633.535 67.12 634.307L69.2411 632.91ZM69.6261 633.308C69.4483 633.172 69.3256 633.038 69.2411 632.91L67.12 634.307C67.3803 634.702 67.7088 635.04 68.0837 635.326L69.6261 633.308ZM111.835 663.209C101.349 657.962 91.9203 652.32 84.5709 647.091C77.1709 641.826 72.0271 637.081 69.9393 633.656L67.7706 634.978C70.1504 638.882 75.6771 643.88 83.0984 649.16C90.5702 654.477 100.114 660.184 110.698 665.48L111.835 663.209ZM150.146 677.441C141.081 675.88 127.116 670.855 111.835 663.209L110.698 665.48C126.08 673.177 140.299 678.323 149.715 679.944L150.146 677.441ZM145.555 695.696C146.765 689.176 148.772 683.426 151.043 679.305L148.818 678.079C146.39 682.487 144.306 688.506 143.058 695.233L145.555 695.696ZM148.943 720.768C148.199 720.654 147.408 720.113 146.662 718.857C145.917 717.602 145.313 715.778 144.925 713.46C144.151 708.836 144.284 702.542 145.555 695.696L143.058 695.233C141.748 702.288 141.585 708.891 142.42 713.879C142.837 716.368 143.514 718.529 144.478 720.153C145.441 721.776 146.787 723.009 148.561 723.279L148.943 720.768ZM161.295 698.006C160.025 704.851 157.877 710.844 155.47 714.994C154.265 717.073 153.028 718.631 151.855 719.61C150.674 720.595 149.701 720.883 148.943 720.768L148.561 723.279C150.322 723.546 152.009 722.79 153.483 721.56C154.965 720.322 156.378 718.493 157.668 716.268C160.253 711.809 162.483 705.526 163.793 698.469L161.295 698.006ZM158.81 673.289C159.505 673.742 160.208 674.647 160.811 676.108C161.407 677.552 161.86 679.428 162.127 681.659C162.662 686.12 162.44 691.842 161.295 698.006L163.793 698.469C164.973 692.109 165.221 686.123 164.649 681.357C164.364 678.976 163.869 676.859 163.159 675.139C162.456 673.436 161.493 672.007 160.198 671.162L158.81 673.289ZM116.869 643.872C127.102 648.992 136.328 654.489 143.598 659.611C150.908 664.763 156.118 669.451 158.449 672.932L160.559 671.519C157.951 667.624 152.409 662.713 145.061 657.535C137.673 652.329 128.335 646.769 118.005 641.601L116.869 643.872ZM93.6119 633.834C100.597 636.312 108.544 639.707 116.869 643.872L118.005 641.601C109.6 637.395 101.557 633.958 94.4613 631.44L93.6119 633.834ZM121.887 621.708C111.815 625.927 102.081 629.227 93.7161 631.408L94.357 633.866C102.852 631.651 112.7 628.31 122.868 624.051L121.887 621.708ZM130.275 618.007C127.586 619.257 124.783 620.495 121.887 621.708L122.868 624.051C125.794 622.825 128.626 621.574 131.345 620.31L130.275 618.007ZM164.688 610.51C151.973 614.217 140.085 616.728 130.654 617.898L130.967 620.419C140.56 619.228 152.583 616.684 165.399 612.948L164.688 610.51ZM190.718 601.411C183.237 604.55 174.348 607.693 164.688 610.51L165.399 612.948C175.14 610.108 184.121 606.933 191.701 603.753L190.718 601.411ZM204.135 639.735C198.408 629.492 194.214 616.655 192.47 602.427L189.949 602.736C191.729 617.257 196.015 630.415 201.918 640.974L204.135 639.735ZM208.728 659.405C206.87 653.447 205.358 646.982 204.281 640.156L201.772 640.552C202.868 647.494 204.407 654.08 206.303 660.161L208.728 659.405ZM192.387 708.111C190.402 689.225 196.931 671.766 208.397 660.696L206.633 658.869C194.565 670.52 187.8 688.769 189.861 708.376L192.387 708.111ZM193.268 713.926C192.89 712.025 192.594 710.085 192.387 708.111L189.861 708.376C190.077 710.428 190.384 712.444 190.777 714.421L193.268 713.926ZM88.8069 936.336L193.171 714.715L190.873 713.633L86.5091 935.254L88.8069 936.336ZM98.8368 964.22C88.3671 959.289 83.8766 946.805 88.8069 936.336L86.5091 935.254C80.9812 946.992 86.016 960.99 97.7547 966.518L98.8368 964.22ZM101.28 965.37L98.8368 964.22L97.7547 966.518L100.198 967.668L101.28 965.37ZM129.164 955.34C124.234 965.81 111.75 970.301 101.28 965.37L100.198 967.668C111.937 973.196 125.934 968.161 131.462 956.422L129.164 955.34ZM223.32 755.397L129.164 955.34L131.462 956.422L225.618 756.48L223.32 755.397ZM229.812 756.407C228.161 755.957 226.537 755.407 224.946 754.762L223.992 757.115C225.674 757.798 227.394 758.38 229.143 758.858L229.812 756.407ZM260.68 944.217L230.732 757.432L228.224 757.834L258.173 944.619L260.68 944.217ZM284.687 961.589C273.261 963.422 262.513 955.644 260.68 944.217L258.173 944.619C260.227 957.431 272.278 966.151 285.089 964.097L284.687 961.589ZM307.632 957.911L284.687 961.589L285.089 964.097L308.034 960.418L307.632 957.911ZM325.004 933.904C326.836 945.33 319.058 956.078 307.632 957.911L308.034 960.418C320.845 958.364 329.566 946.313 327.512 933.502L325.004 933.904ZM288.38 705.486L325.004 933.904L327.512 933.502L290.888 705.084L288.38 705.486ZM286.351 699.26C287.325 701.166 288.022 703.255 288.38 705.486L290.888 705.084C290.487 702.587 289.706 700.244 288.613 698.104L286.351 699.26ZM286.163 698.254C286.182 698.438 286.2 698.621 286.218 698.804L288.746 698.56C288.728 698.37 288.709 698.179 288.688 697.989L286.163 698.254ZM264.885 658.182C276.228 667.073 284.392 681.407 286.163 698.254L288.688 697.989C286.849 680.492 278.363 665.519 266.452 656.183L264.885 658.182ZM265.331 639.918C265.393 645.907 265.072 651.647 264.409 657.027L266.929 657.338C267.607 651.84 267.934 645.987 267.871 639.892L265.331 639.918ZM271.722 608.856C271.247 620.28 269.017 630.741 265.427 639.42L267.775 640.391C271.493 631.4 273.775 620.64 274.259 608.961L271.722 608.856ZM319.184 609.988C301.995 614.917 285.259 613.632 273.559 607.773L272.422 610.044C284.804 616.245 302.217 617.496 319.884 612.43L319.184 609.988ZM355.583 585.667C348.465 596.128 335.472 605.318 319.184 609.988L319.884 612.43C336.633 607.627 350.173 598.134 357.683 587.095L355.583 585.667ZM357.037 587.585C374.035 581.883 388.276 575.233 395.849 569.643L394.341 567.599C387.088 572.952 373.146 579.502 356.229 585.177L357.037 587.585ZM395.332 569.869C397.078 569.538 398.58 568.02 399.864 566.09L397.749 564.683C396.526 566.522 395.526 567.247 394.858 567.373L395.332 569.869ZM399.745 566.242C400.964 564.905 401.849 563.484 401.985 562.043L399.456 561.805C399.399 562.418 398.964 563.329 397.868 564.531L399.745 566.242ZM401.869 562.467C406.212 553.293 410.264 536.011 412.426 515.856L409.901 515.585C407.748 535.652 403.733 552.595 399.573 561.381L401.869 562.467ZM412.426 515.856C414.699 494.68 414.323 475.583 411.794 465.196L409.326 465.797C411.75 475.753 412.164 494.498 409.901 515.585L412.426 515.856ZM410.406 466.757C414.599 467.27 419.921 467.098 425.615 466.141L425.195 463.636C419.684 464.562 414.613 464.713 410.714 464.236L410.406 466.757ZM425.615 466.141C431.884 465.088 437.514 463.268 441.557 461.142C443.573 460.082 445.254 458.915 446.419 457.68C447.567 456.463 448.366 455.009 448.197 453.432L445.671 453.704C445.726 454.216 445.49 454.963 444.571 455.937C443.67 456.893 442.255 457.906 440.375 458.894C436.625 460.866 431.266 462.616 425.195 463.636L425.615 466.141ZM448.197 453.432C448.023 451.824 446.907 450.64 445.5 449.82C444.086 448.996 442.194 448.421 440.02 448.063C435.655 447.344 429.831 447.448 423.564 448.501L423.985 451.006C430.059 449.985 435.59 449.907 439.607 450.569C441.623 450.901 443.179 451.407 444.221 452.014C445.271 452.626 445.619 453.222 445.671 453.704L448.197 453.432ZM423.564 448.501C418.261 449.392 413.421 450.83 409.615 452.534C407.712 453.386 406.045 454.314 404.7 455.289C403.367 456.255 402.283 457.315 401.632 458.454L403.837 459.715C404.24 459.01 405.01 458.201 406.19 457.346C407.358 456.499 408.863 455.653 410.653 454.852C414.232 453.25 418.858 451.867 423.985 451.006L423.564 448.501ZM401.822 458.201C400.319 459.753 398.884 462.248 397.534 465.397C396.173 468.573 394.855 472.519 393.627 477.06C391.171 486.145 389.055 497.697 387.689 510.425L390.215 510.696C391.569 498.072 393.664 486.654 396.079 477.723C397.286 473.256 398.568 469.432 399.869 466.398C401.181 463.338 402.469 461.184 403.647 459.968L401.822 458.201ZM387.689 510.425C385.625 529.658 385.749 547.148 387.672 557.964L390.173 557.519C388.309 547.037 388.163 529.815 390.215 510.696L387.689 510.425ZM388.894 556.472C381.943 556.626 372.499 558.02 361.775 560.52L362.351 562.994C372.986 560.514 382.242 559.159 388.95 559.011L388.894 556.472ZM360.661 561.441C360.721 561.651 360.779 561.862 360.833 562.073L363.293 561.441C363.233 561.207 363.169 560.974 363.102 560.74L360.661 561.441ZM299.76 542.249C314.024 538.159 327.993 538.345 339.028 541.889C350.072 545.436 358.035 552.283 360.661 561.441L363.102 560.741C360.171 550.518 351.371 543.185 339.805 539.471C328.229 535.753 313.741 535.598 299.06 539.808L299.76 542.249ZM284.541 548.373C289.18 545.901 294.287 543.819 299.76 542.249L299.06 539.808C293.418 541.426 288.145 543.574 283.347 546.131L284.541 548.373ZM272.894 544.503C276.169 545.121 279.751 546.413 283.336 548.367L284.551 546.137C280.764 544.072 276.931 542.68 273.365 542.007L272.894 544.503ZM282.473 539.394C279.191 540.351 275.963 541.228 272.818 542.024L273.44 544.486C276.616 543.683 279.873 542.797 283.184 541.832L282.473 539.394ZM331.002 515.589C331.072 515.828 331.063 516.247 330.657 516.94C330.25 517.634 329.522 518.464 328.426 519.41C326.242 521.297 322.829 523.451 318.396 525.728C309.549 530.274 296.874 535.195 282.473 539.394L283.184 541.832C297.692 537.602 310.527 532.627 319.557 527.988C324.062 525.673 327.679 523.411 330.086 521.332C331.287 520.296 332.244 519.255 332.848 518.225C333.452 517.194 333.778 516.035 333.44 514.878L331.002 515.589ZM277.284 521.595C291.685 517.396 305.018 514.734 314.922 513.813C319.884 513.351 323.92 513.333 326.776 513.75C328.208 513.96 329.269 514.268 329.984 514.634C330.7 515.001 330.932 515.349 331.002 515.589L333.44 514.878C333.103 513.72 332.205 512.918 331.142 512.374C330.079 511.829 328.712 511.466 327.143 511.237C323.996 510.778 319.73 510.815 314.687 511.284C304.578 512.224 291.08 514.927 276.573 519.156L277.284 521.595ZM244.274 533.816C252.894 529.686 264.401 525.351 277.284 521.595L276.573 519.156C263.589 522.942 251.948 527.323 243.176 531.526L244.274 533.816ZM233.723 529.185C236.885 530.088 239.996 531.616 242.998 533.712L244.452 531.629C241.251 529.395 237.888 527.733 234.42 526.743L233.723 529.185ZM231.511 514.969C232.693 519.539 233.086 523.972 232.805 527.873L235.338 528.055C235.641 523.858 235.215 519.148 233.97 514.333L231.511 514.969ZM229.448 508.853C230.255 510.76 230.953 512.809 231.511 514.969L233.97 514.333C233.381 512.055 232.643 509.887 231.787 507.863L229.448 508.853ZM230.193 505.865L229.427 507.913L231.807 508.802L232.572 506.754L230.193 505.865ZM246.705 513.368C242.113 514.304 236.913 511.493 232.394 505.541L230.371 507.077C235.105 513.312 241.178 517.086 247.212 515.857L246.705 513.368ZM256.854 478.899C258.641 487.665 258.295 495.937 256.353 502.206C254.396 508.525 250.936 512.506 246.705 513.368L247.212 515.857C252.775 514.723 256.705 509.655 258.78 502.957C260.87 496.208 261.198 487.495 259.343 478.392L256.854 478.899ZM237.569 451.138C241.409 451.856 245.446 454.893 248.957 459.817C252.448 464.711 255.312 471.328 256.854 478.899L259.343 478.392C257.739 470.521 254.749 463.563 251.025 458.342C247.322 453.15 242.784 449.53 238.036 448.642L237.569 451.138Z" fill="#EDF6FF" mask="url(#path-3-inside-1_4196_36)"/>
<path d="M229.489 486.735C231.687 494.932 235.723 501.781 240.448 506.232C245.18 510.69 250.537 512.694 255.424 511.383C260.312 510.073 263.948 505.657 265.814 499.431C267.678 493.212 267.747 485.263 265.549 477.066C263.351 468.869 259.314 462.02 254.589 457.569C249.858 453.111 244.501 451.107 239.613 452.418C234.726 453.728 231.09 458.144 229.223 464.37C227.36 470.589 227.291 478.538 229.489 486.735Z" fill="#259DFF" stroke="#EDF6FF" stroke-width="0.952446"/>
<path d="M1330.3 425.402C1335.88 419.619 1345.55 424.761 1343.88 432.624L1330.99 493.193C1330.27 496.567 1331.35 500.073 1333.83 502.469L1378.38 545.48C1384.16 551.064 1379.02 560.733 1371.16 559.06L1310.59 546.173C1307.21 545.456 1303.71 546.527 1301.31 549.009L1258.3 593.56C1252.72 599.344 1243.05 594.202 1244.72 586.339L1257.61 525.769C1258.33 522.395 1257.25 518.889 1254.77 516.494L1210.22 473.483C1204.44 467.899 1209.58 458.229 1217.44 459.902L1278.01 472.789C1281.39 473.507 1284.89 472.435 1287.29 469.954L1330.3 425.402Z" fill="#78C2FF" stroke="#259DFF" stroke-width="2"/>
<path d="M339.477 127.238C340.53 119.131 351.629 117.636 354.789 125.175L368.123 156.986C369.5 160.273 372.523 162.578 376.058 163.037L410.263 167.477C418.369 168.53 419.864 179.629 412.325 182.789L380.515 196.123C377.228 197.5 374.923 200.523 374.464 204.058L370.023 238.262C368.971 246.369 357.872 247.864 354.712 240.325L341.378 208.515C340 205.228 336.977 202.923 333.443 202.464L299.238 198.023C291.132 196.971 289.636 185.872 297.175 182.712L328.986 169.378C332.273 168 334.578 164.977 335.037 161.443L339.477 127.238Z" fill="#78C2FF" stroke="#259DFF" stroke-width="2"/>
<path d="M80.562 408.313C81.2198 403.246 88.1567 402.311 90.1317 407.023L101.646 434.492C102.61 436.793 104.726 438.406 107.2 438.727L136.736 442.562C141.803 443.22 142.737 450.157 138.025 452.132L110.557 463.645C108.256 464.61 106.642 466.726 106.321 469.2L102.487 498.736C101.829 503.803 94.8921 504.737 92.917 500.025L81.4032 472.557C80.4387 470.256 78.3226 468.642 75.8486 468.321L46.3126 464.487C41.246 463.829 40.3115 456.892 45.0234 454.917L72.4918 443.403C74.7927 442.439 76.4063 440.323 76.7275 437.849L80.562 408.313Z" fill="#EDF6FF" stroke="#259DFF" stroke-width="2"/>
<path d="M1287.52 220.881C1290.25 216.557 1296.93 218.617 1296.75 223.722L1295.69 253.487C1295.6 255.981 1296.85 258.333 1298.96 259.661L1324.17 275.524C1328.49 278.245 1326.43 284.935 1321.33 284.753L1291.56 283.692C1289.07 283.603 1286.72 284.847 1285.39 286.959L1269.52 312.167C1266.8 316.491 1260.11 314.432 1260.3 309.326L1261.36 279.561C1261.45 277.068 1260.2 274.716 1258.09 273.387L1232.88 257.524C1228.56 254.803 1230.62 248.114 1235.72 248.296L1265.49 249.357C1267.98 249.446 1270.33 248.201 1271.66 246.09L1287.52 220.881Z" fill="#259DFF" stroke="#EDF6FF" stroke-width="2"/>
</g>
<defs>
<clipPath id="clip0_4196_36">
<rect width="1440" height="774" fill="white"/>
</clipPath>
</defs>
</svg>
