<svg width="454" height="453" viewBox="0 0 454 453" fill="none" xmlns="http://www.w3.org/2000/svg">
<g clip-path="url(#clip0_4293_52)">
<rect x="0.666992" width="453.333" height="453" rx="226.5" fill="#EDF6FF"/>
<mask id="path-3-inside-1_4293_52" fill="white">
<path fill-rule="evenodd" clip-rule="evenodd" d="M212.347 77.8864C212.144 89.2758 215.26 99.3201 220.106 104.991C219.63 106.189 219.218 107.473 218.883 108.824C216.837 109.489 214.864 110.562 212.983 112.001C208.92 112.917 204.465 114.571 200.018 116.935C194.606 119.812 190.061 123.289 186.825 126.792C180.471 126.902 173.085 127.448 165.246 128.462C153.177 130.022 142.43 132.382 135.015 134.89C136.108 127.124 136.457 116.755 135.811 105.412C135.017 91.4658 132.895 79.1518 130.254 71.4271C135.225 72.345 141.892 72.5494 149.144 71.825C163.974 70.3437 175.635 65.54 175.191 61.0955C174.747 56.651 162.366 54.2488 147.537 55.7301C135.888 56.8937 126.193 60.1076 122.786 63.587C118.606 67.1019 116.28 85.0448 117.499 106.455C118.541 124.742 121.864 140.221 125.648 146.229C126.694 151.666 147.934 154.118 173.546 151.707C178.103 151.278 182.494 150.723 186.636 150.07C186.904 152.859 187.631 155.906 188.838 158.977C188.936 159.225 189.035 159.47 189.137 159.713C188.548 163.97 188.304 168.425 188.447 173.004C188.78 183.637 191.16 193.467 194.979 201.628C196.256 208.447 197.997 214.783 200.112 220.46C189.493 229.655 182.83 244.532 183.35 261.111C183.507 266.122 184.309 270.937 185.66 275.451L180.781 488.184L180.758 489.183L181.758 489.206L258.769 490.973L259.769 490.996L259.792 489.996L264.625 279.275C266.964 272.91 268.161 265.855 267.93 258.46C267.471 243.837 261.519 230.886 252.454 222.192C256.709 209.913 259.004 194.324 258.474 177.433C258.292 171.623 257.786 165.987 256.996 160.605C258.848 159.893 260.7 158.685 262.386 157.06C265.798 157.204 269.337 157.266 272.965 157.236C297.29 157.034 317.575 152.784 322.41 147.302C327.587 144.081 334.762 126.878 339.33 106.035C343.676 86.2017 344.256 69.4809 341.109 64.9026C339.744 60.1309 327.17 57.0022 311.944 57.8204C295.879 58.6837 282.945 63.6137 283.054 68.8319C283.164 74.0501 296.276 77.5804 312.341 76.7171C319.392 76.3382 325.84 75.176 330.846 73.5499C327.136 81.2093 323.34 92.6519 320.531 105.472C318.383 115.272 317.155 124.313 316.842 131.503C309.241 130.637 296.923 131.153 283.1 133.156C277.664 129.877 270.49 126.694 262.365 124.139C259.857 122.13 256.952 120.213 253.742 118.506C248.532 115.735 243.309 113.941 238.721 113.165C238.862 110.425 238.661 107.828 238.172 105.511C243.314 100.057 246.867 90.0299 247.072 78.5049C247.384 61.0089 239.863 46.6871 230.274 46.5163C220.685 46.3455 212.659 60.3904 212.347 77.8864Z"/>
</mask>
<path fill-rule="evenodd" clip-rule="evenodd" d="M212.347 77.8864C212.144 89.2758 215.26 99.3201 220.106 104.991C219.63 106.189 219.218 107.473 218.883 108.824C216.837 109.489 214.864 110.562 212.983 112.001C208.92 112.917 204.465 114.571 200.018 116.935C194.606 119.812 190.061 123.289 186.825 126.792C180.471 126.902 173.085 127.448 165.246 128.462C153.177 130.022 142.43 132.382 135.015 134.89C136.108 127.124 136.457 116.755 135.811 105.412C135.017 91.4658 132.895 79.1518 130.254 71.4271C135.225 72.345 141.892 72.5494 149.144 71.825C163.974 70.3437 175.635 65.54 175.191 61.0955C174.747 56.651 162.366 54.2488 147.537 55.7301C135.888 56.8937 126.193 60.1076 122.786 63.587C118.606 67.1019 116.28 85.0448 117.499 106.455C118.541 124.742 121.864 140.221 125.648 146.229C126.694 151.666 147.934 154.118 173.546 151.707C178.103 151.278 182.494 150.723 186.636 150.07C186.904 152.859 187.631 155.906 188.838 158.977C188.936 159.225 189.035 159.47 189.137 159.713C188.548 163.97 188.304 168.425 188.447 173.004C188.78 183.637 191.16 193.467 194.979 201.628C196.256 208.447 197.997 214.783 200.112 220.46C189.493 229.655 182.83 244.532 183.35 261.111C183.507 266.122 184.309 270.937 185.66 275.451L180.781 488.184L180.758 489.183L181.758 489.206L258.769 490.973L259.769 490.996L259.792 489.996L264.625 279.275C266.964 272.91 268.161 265.855 267.93 258.46C267.471 243.837 261.519 230.886 252.454 222.192C256.709 209.913 259.004 194.324 258.474 177.433C258.292 171.623 257.786 165.987 256.996 160.605C258.848 159.893 260.7 158.685 262.386 157.06C265.798 157.204 269.337 157.266 272.965 157.236C297.29 157.034 317.575 152.784 322.41 147.302C327.587 144.081 334.762 126.878 339.33 106.035C343.676 86.2017 344.256 69.4809 341.109 64.9026C339.744 60.1309 327.17 57.0022 311.944 57.8204C295.879 58.6837 282.945 63.6137 283.054 68.8319C283.164 74.0501 296.276 77.5804 312.341 76.7171C319.392 76.3382 325.84 75.176 330.846 73.5499C327.136 81.2093 323.34 92.6519 320.531 105.472C318.383 115.272 317.155 124.313 316.842 131.503C309.241 130.637 296.923 131.153 283.1 133.156C277.664 129.877 270.49 126.694 262.365 124.139C259.857 122.13 256.952 120.213 253.742 118.506C248.532 115.735 243.309 113.941 238.721 113.165C238.862 110.425 238.661 107.828 238.172 105.511C243.314 100.057 246.867 90.0299 247.072 78.5049C247.384 61.0089 239.863 46.6871 230.274 46.5163C220.685 46.3455 212.659 60.3904 212.347 77.8864Z" fill="#EDF6FF"/>
<path d="M220.106 104.991L221.626 103.692L222.409 104.609L221.965 105.729L220.106 104.991ZM212.347 77.8864L214.347 77.922L214.347 77.922L212.347 77.8864ZM218.883 108.824L220.824 109.306L220.556 110.384L219.501 110.727L218.883 108.824ZM212.983 112.001L214.198 113.59L213.85 113.856L213.423 113.952L212.983 112.001ZM200.018 116.935L200.957 118.701L200.957 118.701L200.018 116.935ZM186.825 126.792L188.294 128.149L187.714 128.777L186.86 128.791L186.825 126.792ZM165.246 128.462L165.503 130.445L165.503 130.445L165.246 128.462ZM135.015 134.89L135.656 136.785L132.583 137.825L133.035 134.612L135.015 134.89ZM135.811 105.412L137.808 105.299L137.808 105.299L135.811 105.412ZM130.254 71.4271L128.362 72.0742L127.256 68.8398L130.617 69.4604L130.254 71.4271ZM149.144 71.825L148.946 69.8349L148.946 69.8349L149.144 71.825ZM175.191 61.0955L173.201 61.2943L173.201 61.2943L175.191 61.0955ZM147.537 55.7301L147.736 57.7202L147.736 57.7202L147.537 55.7301ZM122.786 63.587L124.215 64.9863L124.148 65.0555L124.074 65.1179L122.786 63.587ZM117.499 106.455L119.496 106.342L119.496 106.342L117.499 106.455ZM125.648 146.229L127.341 145.164L127.541 145.482L127.612 145.852L125.648 146.229ZM173.546 151.707L173.734 153.698L173.734 153.698L173.546 151.707ZM186.636 150.07L186.324 148.095L188.423 147.764L188.627 149.879L186.636 150.07ZM188.838 158.977L190.7 158.245L190.7 158.245L188.838 158.977ZM189.137 159.713L190.982 158.941L191.193 159.445L191.118 159.987L189.137 159.713ZM194.979 201.628L196.79 200.781L196.898 201.011L196.944 201.26L194.979 201.628ZM200.112 220.46L201.986 219.761L202.471 221.063L201.421 221.972L200.112 220.46ZM185.66 275.451L187.576 274.877L187.667 275.18L187.66 275.497L185.66 275.451ZM180.781 488.184L182.781 488.23L182.781 488.23L180.781 488.184ZM180.758 489.183L180.712 491.183L178.713 491.137L178.759 489.138L180.758 489.183ZM181.758 489.206L181.804 487.207L181.804 487.207L181.758 489.206ZM258.769 490.973L258.815 488.973L258.815 488.973L258.769 490.973ZM259.769 490.996L261.769 491.041L261.723 493.041L259.723 492.995L259.769 490.996ZM259.792 489.996L257.793 489.95L257.793 489.95L259.792 489.996ZM264.625 279.275L262.625 279.229L262.633 278.897L262.748 278.585L264.625 279.275ZM252.454 222.192L251.07 223.636L250.145 222.749L250.565 221.538L252.454 222.192ZM256.996 160.605L255.018 160.896L254.785 159.313L256.279 158.738L256.996 160.605ZM262.386 157.06L260.998 155.62L261.615 155.026L262.47 155.062L262.386 157.06ZM272.965 157.236L272.981 159.236L272.981 159.236L272.965 157.236ZM322.41 147.302L320.91 145.979L321.104 145.759L321.354 145.604L322.41 147.302ZM339.33 106.035L341.283 106.463L341.283 106.463L339.33 106.035ZM341.109 64.9026L339.461 66.0356L339.276 65.7666L339.186 65.4526L341.109 64.9026ZM311.944 57.8204L311.836 55.8233L311.836 55.8233L311.944 57.8204ZM283.054 68.8319L285.054 68.7898L285.054 68.7898L283.054 68.8319ZM312.341 76.7171L312.449 78.7142L312.449 78.7142L312.341 76.7171ZM330.846 73.5499L330.229 71.6477L334.693 70.1978L332.646 74.4219L330.846 73.5499ZM320.531 105.472L322.485 105.9L322.485 105.9L320.531 105.472ZM316.842 131.503L318.84 131.59L318.747 133.734L316.615 133.491L316.842 131.503ZM283.1 133.156L283.387 135.135L282.679 135.237L282.067 134.868L283.1 133.156ZM262.365 124.139L261.765 126.047L261.408 125.935L261.115 125.7L262.365 124.139ZM253.742 118.506L254.681 116.74L253.742 118.506ZM238.721 113.165L238.388 115.137L236.633 114.841L236.724 113.063L238.721 113.165ZM238.172 105.511L236.215 105.923L236 104.899L236.717 104.139L238.172 105.511ZM247.072 78.5049L249.072 78.5406L249.072 78.5406L247.072 78.5049ZM230.274 46.5163L230.31 44.5166L230.274 46.5163ZM218.585 106.29C213.32 100.128 210.139 89.5448 210.347 77.8507L214.347 77.922C214.149 89.0069 217.2 98.5119 221.626 103.692L218.585 106.29ZM216.942 108.342C217.298 106.908 217.737 105.538 218.247 104.253L221.965 105.729C221.523 106.841 221.138 108.038 220.824 109.306L216.942 108.342ZM211.767 110.413C213.804 108.855 215.975 107.666 218.265 106.922L219.501 110.727C217.698 111.312 215.925 112.268 214.198 113.59L211.767 110.413ZM199.079 115.169C203.668 112.729 208.29 111.009 212.543 110.05L213.423 113.952C209.55 114.826 205.261 116.412 200.957 118.701L199.079 115.169ZM185.356 125.434C188.766 121.744 193.499 118.136 199.079 115.169L200.957 118.701C195.713 121.489 191.356 124.835 188.294 128.149L185.356 125.434ZM164.99 126.478C172.893 125.456 180.353 124.904 186.79 124.792L186.86 128.791C180.589 128.9 173.277 129.44 165.503 130.445L164.99 126.478ZM134.374 132.996C141.951 130.432 152.836 128.05 164.99 126.478L165.503 130.445C153.518 131.995 142.908 134.331 135.656 136.785L134.374 132.996ZM137.808 105.299C138.459 116.736 138.111 127.241 136.996 135.169L133.035 134.612C134.105 127.007 134.455 116.774 133.814 105.526L137.808 105.299ZM132.146 70.7801C134.869 78.7426 137.008 91.256 137.808 105.299L133.814 105.526C133.026 91.6757 130.921 79.561 128.362 72.0742L132.146 70.7801ZM149.343 73.8151C141.955 74.5531 135.092 74.3542 129.891 73.3939L130.617 69.4604C135.359 70.3358 141.83 70.5457 148.946 69.8349L149.343 73.8151ZM177.181 60.8967C177.389 62.9735 176.151 64.6912 174.707 65.9475C173.215 67.2459 171.114 68.4086 168.657 69.4207C163.718 71.4551 156.896 73.0607 149.343 73.8151L148.946 69.8349C156.223 69.108 162.645 67.5711 167.133 65.7222C169.39 64.7927 171.048 63.8285 172.081 62.9299C173.162 61.9892 173.216 61.4397 173.201 61.2943L177.181 60.8967ZM147.338 53.74C154.89 52.9856 161.896 53.2099 167.139 54.2272C169.748 54.7334 172.037 55.4576 173.757 56.4351C175.421 57.381 176.974 58.8199 177.181 60.8967L173.201 61.2943C173.187 61.1488 173.026 60.6207 171.78 59.9125C170.59 59.2359 168.773 58.6188 166.377 58.154C161.612 57.2295 155.012 56.9933 147.736 57.7202L147.338 53.74ZM121.357 62.1878C123.414 60.0875 127.079 58.2938 131.459 56.8861C135.919 55.4526 141.396 54.3336 147.338 53.74L147.736 57.7202C142.029 58.2902 136.834 59.3599 132.683 60.6942C128.451 62.0542 125.566 63.6072 124.215 64.9863L121.357 62.1878ZM115.503 106.569C114.888 95.7719 115.164 85.8091 116.134 78.0619C116.618 74.1928 117.282 70.824 118.117 68.1591C118.921 65.5929 119.987 63.3277 121.499 62.0562L124.074 65.1179C123.496 65.6038 122.703 66.8995 121.934 69.3553C121.195 71.7123 120.57 74.8264 120.103 78.5587C119.169 86.0143 118.892 95.7282 119.496 106.342L115.503 106.569ZM123.956 147.295C121.863 143.972 120.03 138.302 118.587 131.353C117.13 124.335 116.028 115.794 115.503 106.569L119.496 106.342C120.012 115.403 121.093 123.745 122.504 130.54C123.929 137.405 125.65 142.479 127.341 145.164L123.956 147.295ZM173.734 153.698C160.831 154.913 148.973 154.909 140.157 153.898C135.763 153.394 132.026 152.629 129.267 151.59C127.889 151.07 126.664 150.449 125.71 149.689C124.757 148.929 123.936 147.915 123.684 146.607L127.612 145.852C127.622 145.903 127.694 146.155 128.203 146.561C128.711 146.966 129.516 147.409 130.677 147.847C132.995 148.72 136.365 149.437 140.613 149.924C149.081 150.895 160.65 150.912 173.359 149.715L173.734 153.698ZM186.947 152.046C182.763 152.705 178.33 153.265 173.734 153.698L173.359 149.715C177.875 149.29 182.225 148.741 186.324 148.095L186.947 152.046ZM186.977 159.709C185.706 156.477 184.933 153.249 184.645 150.262L188.627 149.879C188.876 152.469 189.555 155.334 190.7 158.245L186.977 159.709ZM187.292 160.485C187.185 160.228 187.08 159.97 186.977 159.709L190.7 158.245C190.792 158.479 190.886 158.711 190.982 158.941L187.292 160.485ZM186.448 173.067C186.301 168.376 186.551 163.809 187.156 159.439L191.118 159.987C190.545 164.132 190.306 168.474 190.446 172.941L186.448 173.067ZM193.167 202.476C189.226 194.052 186.789 183.952 186.448 173.067L190.446 172.941C190.771 183.321 193.095 192.882 196.79 200.781L193.167 202.476ZM198.237 221.158C196.079 215.364 194.309 208.916 193.013 201.996L196.944 201.26C198.203 207.978 199.915 214.203 201.986 219.761L198.237 221.158ZM181.351 261.174C180.813 244.034 187.698 228.563 198.802 218.948L201.421 221.972C191.287 230.747 184.847 245.03 185.349 261.049L181.351 261.174ZM183.744 276.024C182.343 271.344 181.513 266.358 181.351 261.174L185.349 261.049C185.5 265.886 186.274 270.529 187.576 274.877L183.744 276.024ZM178.782 488.138L183.661 275.405L187.66 275.497L182.781 488.23L178.782 488.138ZM178.759 489.138L178.782 488.138L182.781 488.23L182.758 489.229L178.759 489.138ZM181.712 491.206L180.712 491.183L180.804 487.184L181.804 487.207L181.712 491.206ZM258.723 492.972L181.712 491.206L181.804 487.207L258.815 488.973L258.723 492.972ZM259.723 492.995L258.723 492.972L258.815 488.973L259.815 488.996L259.723 492.995ZM261.791 490.042L261.769 491.041L257.77 490.95L257.793 489.95L261.791 490.042ZM266.624 279.321L261.791 490.042L257.793 489.95L262.625 279.229L266.624 279.321ZM269.929 258.397C270.169 266.047 268.93 273.359 266.502 279.965L262.748 278.585C264.998 272.462 266.154 265.662 265.931 258.523L269.929 258.397ZM253.839 220.749C263.298 229.821 269.455 243.276 269.929 258.397L265.931 258.523C265.488 244.399 259.741 231.951 251.07 223.636L253.839 220.749ZM260.473 177.371C261.009 194.465 258.691 210.302 254.344 222.847L250.565 221.538C254.727 209.524 256.998 194.183 256.475 177.496L260.473 177.371ZM258.975 160.315C259.776 165.773 260.289 171.485 260.473 177.371L256.475 177.496C256.295 171.761 255.796 166.201 255.018 160.896L258.975 160.315ZM263.774 158.5C261.924 160.283 259.85 161.651 257.714 162.472L256.279 158.738C257.847 158.136 259.477 157.086 260.998 155.62L263.774 158.5ZM272.981 159.236C269.321 159.266 265.748 159.204 262.301 159.058L262.47 155.062C265.849 155.205 269.354 155.266 272.948 155.236L272.981 159.236ZM323.91 148.625C322.384 150.355 319.851 151.791 316.801 152.998C313.696 154.227 309.826 155.308 305.395 156.209C296.528 158.012 285.244 159.134 272.981 159.236L272.948 155.236C285.01 155.136 296.031 154.032 304.598 152.289C308.883 151.417 312.511 150.395 315.329 149.279C318.203 148.141 320.019 146.989 320.91 145.979L323.91 148.625ZM341.283 106.463C338.98 116.976 336.012 126.602 332.947 134.038C331.416 137.754 329.845 140.962 328.299 143.474C326.79 145.925 325.171 147.939 323.467 149L321.354 145.604C322.237 145.054 323.457 143.71 324.892 141.378C326.29 139.107 327.768 136.108 329.249 132.514C332.208 125.333 335.112 115.937 337.376 105.606L341.283 106.463ZM342.757 63.7696C343.824 65.3219 344.424 67.6221 344.754 70.2199C345.093 72.8879 345.178 76.1459 345.028 79.8296C344.727 87.2032 343.475 96.4601 341.283 106.463L337.376 105.606C339.53 95.7762 340.742 86.7562 341.031 79.6666C341.176 76.1188 341.087 73.0986 340.786 70.724C340.475 68.2793 339.967 66.7725 339.461 66.0356L342.757 63.7696ZM311.836 55.8233C319.595 55.4063 326.748 55.989 332.2 57.3226C334.919 57.9878 337.299 58.86 339.135 59.9465C340.928 61.007 342.485 62.4418 343.032 64.3527L339.186 65.4526C339.05 64.9776 338.523 64.2318 337.099 63.3893C335.718 62.5726 333.747 61.8191 331.249 61.208C326.266 59.9888 319.519 59.4162 312.051 59.8175L311.836 55.8233ZM281.055 68.874C281.009 66.6851 282.331 64.8739 283.981 63.4963C285.664 62.0906 287.997 60.8624 290.721 59.8242C296.189 57.74 303.653 56.263 311.836 55.8233L312.051 59.8175C304.17 60.241 297.134 61.6607 292.146 63.5619C289.642 64.5164 287.758 65.553 286.545 66.5663C285.298 67.6076 285.045 68.3695 285.054 68.7898L281.055 68.874ZM312.449 78.7142C304.267 79.1539 296.751 78.4823 291.195 76.9863C288.429 76.2415 286.029 75.2613 284.268 74.023C282.529 72.8012 281.101 71.0916 281.055 68.874L285.054 68.7898C285.062 69.1813 285.315 69.8697 286.568 70.7505C287.797 71.6148 289.701 72.4416 292.235 73.1238C297.278 74.4817 304.351 75.1436 312.234 74.72L312.449 78.7142ZM331.464 75.4521C326.263 77.1415 319.639 78.3279 312.449 78.7142L312.234 74.72C319.145 74.3486 325.417 73.2106 330.229 71.6477L331.464 75.4521ZM318.577 105.043C321.408 92.1237 325.247 80.5206 329.046 72.678L332.646 74.4219C329.025 81.898 325.272 93.1802 322.485 105.9L318.577 105.043ZM314.844 131.416C315.163 124.086 316.411 114.929 318.577 105.043L322.485 105.9C320.356 115.615 319.147 124.539 318.84 131.59L314.844 131.416ZM282.813 131.176C296.711 129.163 309.222 128.622 317.068 129.516L316.615 133.491C309.26 132.652 297.134 133.143 283.387 135.135L282.813 131.176ZM262.965 122.231C271.21 124.824 278.536 128.066 284.133 131.443L282.067 134.868C276.793 131.687 269.769 128.564 261.765 126.047L262.965 122.231ZM261.115 125.7C258.709 123.773 255.908 121.923 252.803 120.272L254.681 116.74C257.996 118.502 261.006 120.488 263.616 122.578L261.115 125.7ZM252.803 120.272C247.756 117.588 242.737 115.873 238.388 115.137L239.055 111.193C243.882 112.01 249.308 113.883 254.681 116.74L252.803 120.272ZM240.13 105.098C240.656 107.598 240.868 110.369 240.719 113.268L236.724 113.063C236.857 110.481 236.665 108.058 236.215 105.923L240.13 105.098ZM249.072 78.5406C248.861 90.3702 245.224 100.948 239.628 106.883L236.717 104.139C241.405 99.1671 244.873 89.6897 245.073 78.4693L249.072 78.5406ZM230.31 44.5166C236.174 44.6211 240.972 49.0185 244.157 55.0838C247.381 61.2234 249.233 69.5224 249.072 78.5406L245.073 78.4693C245.224 69.9915 243.471 62.3816 240.615 56.9435C237.721 51.4313 233.963 48.5824 230.238 48.516L230.31 44.5166ZM210.347 77.8508C210.508 68.8326 212.654 60.6048 216.095 54.584C219.494 48.6359 224.445 44.4122 230.31 44.5166L230.238 48.516C226.514 48.4497 222.657 51.1629 219.568 56.5686C216.52 61.9015 214.498 69.4441 214.347 77.922L210.347 77.8508Z" fill="#259DFF" mask="url(#path-3-inside-1_4293_52)"/>
<path d="M392.693 136.274C417.562 136.274 427.253 156.023 427.253 176.137C427.253 196.617 417.196 217.097 393.242 217.097C371.299 217.097 363.985 199.726 363.985 180.343H411.711V176.137C411.711 154.194 409.151 138.469 390.682 138.469C374.225 138.469 367.642 150.903 365.996 154.743L364.168 153.829C367.459 147.429 374.225 136.274 392.693 136.274ZM395.253 215.634C407.871 215.634 411.162 200.823 411.711 182.171H378.431C378.431 195.52 380.625 215.634 395.253 215.634Z" fill="#259DFF"/>
<path d="M80.7013 173.097C53.6384 173.097 46.507 150.971 46.507 133.783C46.507 114.949 55.1013 92.2743 80.5184 92.2743C97.8899 92.2743 107.216 102.697 107.216 112.389C107.216 117.326 104.838 120.434 99.9013 120.434C94.7813 120.434 92.9527 117.143 92.9527 113.669C92.9527 109.829 93.867 107.634 93.867 104.16C93.867 98.1257 88.747 93.92 80.7013 93.92C63.5127 93.92 62.0499 113.851 62.0499 131.954H93.3184V133.783H62.0499C62.2327 156.091 65.3413 170.903 83.2613 170.903C100.633 170.903 105.021 156.823 106.484 153.714L108.313 154.446C105.021 160.846 100.633 173.097 80.7013 173.097Z" fill="#259DFF"/>
<path d="M70.011 311.72C63.867 311.72 58.299 309.608 53.883 305.48C37.371 304.808 25.755 293.192 25.755 271.4C25.755 250.184 38.139 236.264 54.651 236.264C62.715 236.264 66.267 239.624 69.723 239.624C71.739 239.624 73.563 238.376 73.851 236.264H74.619V257.576H73.659C73.083 252.776 71.451 248.264 69.051 244.616C65.883 240.104 61.275 237.032 55.227 237.032C40.251 237.032 35.739 253.832 35.739 271.4C35.739 288.392 38.523 302.984 52.923 304.712C50.043 301.544 47.163 295.016 47.163 287.72C47.259 273.128 55.227 265.256 64.155 265.256C72.123 265.256 79.131 272.552 79.131 282.536C79.131 293.864 71.451 303.56 59.643 305.288C61.947 308.264 65.307 310.856 70.587 310.856C73.563 310.856 75.771 309.992 77.115 308.936L77.595 309.512C76.251 310.664 74.043 311.72 70.011 311.72ZM54.747 287.528C54.747 293.576 56.859 301.16 59.067 304.52C68.763 302.792 72.411 292.904 72.411 282.824C72.411 273.704 70.011 265.928 64.059 265.928C57.339 265.928 54.747 275.144 54.747 287.528Z" fill="#259DFF"/>
<path d="M336.52 340.024C351.88 340.024 362.152 346.456 362.152 358.84C362.152 370.84 352.456 379 334.792 379H313.672V378.04H321.16V313.912H318.28C307.048 313.912 304.36 322.648 303.304 332.44H302.344V312.952H321.16V305.08H313.672V304.12H337.672V305.08H330.184V312.952H353.608V332.44H352.648C351.592 322.648 348.904 313.912 337.672 313.912H330.184V340.504C332.2 340.216 334.312 340.024 336.52 340.024ZM335.656 340.984C333.736 340.984 331.912 341.176 330.184 341.368V378.04H334.792C347.752 378.04 352.264 369.88 352.264 358.936C352.264 347.704 347.944 340.984 335.656 340.984Z" fill="#259DFF"/>
<path d="M126.914 395.04H136.322V396H110.402V395.04H117.89V362.304H108.674V361.344H117.89V328.8H110.402V327.84H154.37V347.328H153.41C152.354 337.536 149.666 328.8 138.434 328.8H126.914V361.344H144.578V362.304H126.914V395.04Z" fill="#259DFF"/>
</g>
<rect x="1.66699" y="1" width="451.333" height="451" rx="225.5" stroke="#259DFF" stroke-width="2"/>
<defs>
<clipPath id="clip0_4293_52">
<rect x="0.666992" width="453.333" height="453" rx="226.5" fill="white"/>
</clipPath>
</defs>
</svg>
