<svg width="710" height="367" viewBox="0 0 710 367" fill="none" xmlns="http://www.w3.org/2000/svg">
<mask id="path-1-inside-1_4299_85" fill="white">
<path fill-rule="evenodd" clip-rule="evenodd" d="M541.419 105.728L541.82 106.359C550.997 108.076 560.146 120.587 563.508 137.089C567.399 156.184 562.069 173.392 551.603 175.525C545.925 176.682 539.902 173.163 534.958 166.653L534.14 168.843C535.029 170.943 535.795 173.196 536.408 175.566C537.382 179.332 537.871 183.025 537.923 186.464C540.848 187.629 543.623 189.005 546.216 190.573C553.586 192.73 561.945 198.448 568.979 206.816C576.358 215.592 580.616 225.304 581.172 233.139C582.789 234.819 584.405 236.613 585.995 238.505C586.268 238.829 586.538 239.154 586.805 239.479C591.489 237.297 598.431 235.634 606.333 235.052C621.313 233.948 634.072 237.146 634.831 242.194C635.59 247.242 624.062 252.229 609.083 253.333C605.004 253.633 601.09 253.615 597.538 253.327C603.945 261.538 611.014 272.259 617.731 284.295C622.293 292.47 626.2 300.371 629.314 307.551C630.734 297.825 633.223 286.382 636.683 274.386C645.163 244.986 656.486 222.604 663.014 221.704C661.827 217.326 665.347 207.964 671.949 198.774C679.751 187.913 688.903 181.405 692.39 184.237C695.878 187.069 692.38 198.169 684.578 209.029C678.136 217.996 670.774 223.996 666.44 224.222C669.855 231.988 667.016 256.508 659.108 283.923C652.416 307.127 643.952 325.959 637.472 333.308C637.934 337.497 637.327 340.21 635.499 340.957C629.269 343.501 611.213 322.257 595.17 293.507C592.126 288.052 589.373 282.719 586.953 277.64C586.417 282.131 585.692 286.875 584.773 291.778C579.508 319.862 569.88 342.548 563.268 342.447C561.769 342.424 560.553 341.232 559.631 339.074C551.428 335.503 537.311 323.211 523.064 306.605C515.362 297.627 508.776 288.734 503.895 280.98C499.174 286.14 493.753 291.068 487.7 295.59C454.823 320.149 415.74 323.415 400.405 302.885C385.069 282.356 399.289 245.805 432.166 221.246C434.959 219.16 437.797 217.227 440.662 215.449C444.571 210.437 449.042 205.486 454.023 200.738C462.182 192.959 470.818 186.575 479.3 181.777L481.38 179.185C482.591 177.677 483.917 176.266 485.346 174.963L504.885 157.151C497.729 145.416 495.926 131.255 503.276 119.1C510.494 107.161 521.315 100.464 541.419 105.728ZM521.199 271.741C526.648 276.828 532.532 282.971 538.438 289.855C546.205 298.908 552.836 307.875 557.73 315.675C558.159 308.456 559.184 300.19 560.829 291.413C563.45 277.429 567.154 264.784 571.028 255.624C570.265 254.773 569.506 253.898 568.752 253.001C567.879 251.963 567.037 250.923 566.227 249.885C564.244 249.578 562.158 249.045 560.026 248.29C551.965 259.923 537.986 268.775 521.199 271.741Z"/>
</mask>
<path fill-rule="evenodd" clip-rule="evenodd" d="M541.419 105.728L541.82 106.359C550.997 108.076 560.146 120.587 563.508 137.089C567.399 156.184 562.069 173.392 551.603 175.525C545.925 176.682 539.902 173.163 534.958 166.653L534.14 168.843C535.029 170.943 535.795 173.196 536.408 175.566C537.382 179.332 537.871 183.025 537.923 186.464C540.848 187.629 543.623 189.005 546.216 190.573C553.586 192.73 561.945 198.448 568.979 206.816C576.358 215.592 580.616 225.304 581.172 233.139C582.789 234.819 584.405 236.613 585.995 238.505C586.268 238.829 586.538 239.154 586.805 239.479C591.489 237.297 598.431 235.634 606.333 235.052C621.313 233.948 634.072 237.146 634.831 242.194C635.59 247.242 624.062 252.229 609.083 253.333C605.004 253.633 601.09 253.615 597.538 253.327C603.945 261.538 611.014 272.259 617.731 284.295C622.293 292.47 626.2 300.371 629.314 307.551C630.734 297.825 633.223 286.382 636.683 274.386C645.163 244.986 656.486 222.604 663.014 221.704C661.827 217.326 665.347 207.964 671.949 198.774C679.751 187.913 688.903 181.405 692.39 184.237C695.878 187.069 692.38 198.169 684.578 209.029C678.136 217.996 670.774 223.996 666.44 224.222C669.855 231.988 667.016 256.508 659.108 283.923C652.416 307.127 643.952 325.959 637.472 333.308C637.934 337.497 637.327 340.21 635.499 340.957C629.269 343.501 611.213 322.257 595.17 293.507C592.126 288.052 589.373 282.719 586.953 277.64C586.417 282.131 585.692 286.875 584.773 291.778C579.508 319.862 569.88 342.548 563.268 342.447C561.769 342.424 560.553 341.232 559.631 339.074C551.428 335.503 537.311 323.211 523.064 306.605C515.362 297.627 508.776 288.734 503.895 280.98C499.174 286.14 493.753 291.068 487.7 295.59C454.823 320.149 415.74 323.415 400.405 302.885C385.069 282.356 399.289 245.805 432.166 221.246C434.959 219.16 437.797 217.227 440.662 215.449C444.571 210.437 449.042 205.486 454.023 200.738C462.182 192.959 470.818 186.575 479.3 181.777L481.38 179.185C482.591 177.677 483.917 176.266 485.346 174.963L504.885 157.151C497.729 145.416 495.926 131.255 503.276 119.1C510.494 107.161 521.315 100.464 541.419 105.728ZM521.199 271.741C526.648 276.828 532.532 282.971 538.438 289.855C546.205 298.908 552.836 307.875 557.73 315.675C558.159 308.456 559.184 300.19 560.829 291.413C563.45 277.429 567.154 264.784 571.028 255.624C570.265 254.773 569.506 253.898 568.752 253.001C567.879 251.963 567.037 250.923 566.227 249.885C564.244 249.578 562.158 249.045 560.026 248.29C551.965 259.923 537.986 268.775 521.199 271.741Z" fill="#259DFF"/>
<path d="M541.82 106.359L540.132 107.432L540.598 108.165L541.452 108.325L541.82 106.359ZM541.419 105.728L543.107 104.655L542.685 103.992L541.926 103.793L541.419 105.728ZM563.508 137.089L565.468 136.689L563.508 137.089ZM551.603 175.525L552.003 177.484L551.603 175.525ZM534.958 166.653L536.551 165.443L534.355 162.552L533.085 165.953L534.958 166.653ZM534.14 168.843L532.267 168.144L531.988 168.889L532.298 169.623L534.14 168.843ZM536.408 175.566L534.472 176.067L534.472 176.067L536.408 175.566ZM537.923 186.464L535.923 186.494L535.943 187.828L537.183 188.322L537.923 186.464ZM546.216 190.573L545.181 192.285L545.404 192.42L545.654 192.493L546.216 190.573ZM568.979 206.816L567.448 208.103L568.979 206.816ZM581.172 233.139L579.177 233.281L579.229 234.003L579.731 234.526L581.172 233.139ZM585.995 238.505L587.526 237.218L587.526 237.218L585.995 238.505ZM586.805 239.479L585.26 240.749L586.244 241.947L587.65 241.292L586.805 239.479ZM606.333 235.052L606.186 233.057L606.333 235.052ZM609.083 253.333L608.936 251.338L609.083 253.333ZM597.538 253.327L597.7 251.334L593.158 250.966L595.961 254.557L597.538 253.327ZM617.731 284.295L615.985 285.27L617.731 284.295ZM629.314 307.551L627.479 308.347L630.277 314.8L631.293 307.84L629.314 307.551ZM636.683 274.386L638.605 274.94L636.683 274.386ZM663.014 221.704L663.287 223.686L665.54 223.375L664.945 221.181L663.014 221.704ZM671.949 198.774L673.574 199.94L671.949 198.774ZM692.39 184.237L691.129 185.789L692.39 184.237ZM684.578 209.029L682.954 207.862L682.954 207.862L684.578 209.029ZM666.44 224.222L666.336 222.225L663.444 222.375L664.609 225.027L666.44 224.222ZM659.108 283.923L661.03 284.478L659.108 283.923ZM637.472 333.308L635.972 331.986L635.388 332.649L635.484 333.527L637.472 333.308ZM635.499 340.957L636.255 342.808L635.499 340.957ZM595.17 293.507L593.424 294.482L593.424 294.482L595.17 293.507ZM586.953 277.64L588.759 276.78L585.787 270.542L584.968 277.403L586.953 277.64ZM584.773 291.778L586.739 292.146L584.773 291.778ZM563.268 342.447L563.237 344.447L563.268 342.447ZM559.631 339.074L561.47 338.288L561.158 337.558L560.43 337.24L559.631 339.074ZM523.064 306.605L521.546 307.907L523.064 306.605ZM503.895 280.98L505.587 279.914L504.19 277.694L502.419 279.63L503.895 280.98ZM487.7 295.59L486.503 293.988L487.7 295.59ZM400.405 302.885L402.007 301.688L402.007 301.688L400.405 302.885ZM432.166 221.246L430.969 219.644L430.969 219.644L432.166 221.246ZM440.662 215.449L441.716 217.149L442.019 216.961L442.239 216.68L440.662 215.449ZM454.023 200.738L455.403 202.185L454.023 200.738ZM479.3 181.777L480.285 183.517L480.619 183.328L480.859 183.029L479.3 181.777ZM481.38 179.185L479.821 177.933L479.821 177.933L481.38 179.185ZM485.346 174.963L486.693 176.441L486.693 176.441L485.346 174.963ZM504.885 157.151L506.233 158.629L507.451 157.518L506.593 156.11L504.885 157.151ZM503.276 119.1L501.564 118.065L501.564 118.065L503.276 119.1ZM538.438 289.855L536.92 291.157L538.438 289.855ZM521.199 271.741L520.851 269.771L516.905 270.468L519.834 273.203L521.199 271.741ZM557.73 315.675L556.036 316.738L559.356 322.03L559.726 315.794L557.73 315.675ZM560.829 291.413L558.863 291.045L560.829 291.413ZM571.028 255.624L572.87 256.403L573.364 255.234L572.517 254.289L571.028 255.624ZM568.752 253.001L570.283 251.714L570.283 251.714L568.752 253.001ZM566.227 249.885L567.804 248.654L567.316 248.029L566.532 247.908L566.227 249.885ZM560.026 248.29L560.694 246.405L559.253 245.894L558.382 247.151L560.026 248.29ZM543.508 105.286L543.107 104.655L539.731 106.801L540.132 107.432L543.508 105.286ZM565.468 136.689C563.739 128.202 560.511 120.681 556.473 115.018C552.468 109.402 547.492 105.386 542.188 104.393L541.452 108.325C545.325 109.05 549.512 112.147 553.216 117.341C556.887 122.489 559.915 129.474 561.548 137.488L565.468 136.689ZM552.003 177.484C558.284 176.205 562.603 170.513 564.85 163.259C567.121 155.926 567.467 146.502 565.468 136.689L561.548 137.488C563.44 146.771 563.066 155.499 561.029 162.076C558.967 168.733 555.388 172.712 551.204 173.565L552.003 177.484ZM533.366 167.862C538.479 174.596 545.189 178.873 552.003 177.484L551.204 173.565C546.662 174.491 541.326 171.731 536.551 165.443L533.366 167.862ZM536.014 169.543L536.832 167.353L533.085 165.953L532.267 168.144L536.014 169.543ZM538.345 175.065C537.707 172.601 536.909 170.256 535.982 168.064L532.298 169.623C533.148 171.631 533.883 173.79 534.472 176.067L538.345 175.065ZM539.922 186.434C539.869 182.83 539.356 178.979 538.345 175.065L534.472 176.067C535.408 179.686 535.874 183.221 535.923 186.494L539.922 186.434ZM547.251 188.862C544.561 187.235 541.687 185.81 538.663 184.606L537.183 188.322C540.009 189.447 542.685 190.775 545.181 192.285L547.251 188.862ZM570.51 205.528C563.291 196.942 554.617 190.948 546.778 188.654L545.654 192.493C552.554 194.512 560.598 199.955 567.448 208.103L570.51 205.528ZM583.167 232.997C582.573 224.628 578.077 214.529 570.51 205.528L567.448 208.103C574.639 216.655 578.659 225.98 579.177 233.281L583.167 232.997ZM587.526 237.218C585.907 235.292 584.262 233.465 582.613 231.752L579.731 234.526C581.317 236.174 582.902 237.934 584.464 239.792L587.526 237.218ZM588.351 238.21C588.079 237.879 587.804 237.548 587.526 237.218L584.464 239.792C584.732 240.111 584.998 240.43 585.26 240.749L588.351 238.21ZM606.186 233.057C598.126 233.651 590.929 235.351 585.961 237.666L587.65 241.292C592.049 239.242 598.736 237.617 606.48 237.046L606.186 233.057ZM636.809 241.897C636.496 239.817 635.005 238.247 633.249 237.113C631.461 235.959 629.097 235.052 626.401 234.376C620.991 233.02 613.835 232.494 606.186 233.057L606.48 237.046C613.811 236.506 620.524 237.027 625.429 238.256C627.889 238.873 629.794 239.643 631.08 240.474C632.398 241.325 632.787 242.048 632.853 242.492L636.809 241.897ZM609.23 255.327C616.875 254.764 623.734 253.206 628.653 251.078C631.101 250.019 633.188 248.768 634.641 247.331C636.092 245.897 637.131 244.036 636.809 241.897L632.853 242.492C632.911 242.877 632.794 243.532 631.828 244.487C630.866 245.439 629.276 246.45 627.065 247.407C622.665 249.311 616.27 250.798 608.936 251.338L609.23 255.327ZM597.376 255.32C601.037 255.617 605.054 255.635 609.23 255.327L608.936 251.338C604.954 251.632 601.143 251.613 597.7 251.334L597.376 255.32ZM619.478 283.321C612.72 271.211 605.595 260.401 599.115 252.097L595.961 254.557C602.295 262.674 609.309 273.306 615.985 285.27L619.478 283.321ZM631.149 306.756C628.006 299.508 624.068 291.548 619.478 283.321L615.985 285.27C620.517 293.392 624.394 301.233 627.479 308.347L631.149 306.756ZM634.762 273.831C631.28 285.903 628.769 297.434 627.335 307.262L631.293 307.84C632.698 298.215 635.166 286.862 638.605 274.94L634.762 273.831ZM662.741 219.723C661.43 219.904 660.207 220.585 659.112 221.455C657.999 222.339 656.88 223.529 655.767 224.944C653.539 227.776 651.177 231.708 648.793 236.461C644.017 245.981 639.026 259.047 634.762 273.831L638.605 274.94C642.82 260.325 647.73 247.5 652.368 238.254C654.691 233.624 656.914 229.955 658.91 227.418C659.909 226.149 660.812 225.213 661.601 224.586C662.408 223.945 662.967 223.73 663.287 223.686L662.741 219.723ZM670.325 197.607C666.941 202.317 664.322 207.104 662.695 211.324C661.881 213.434 661.301 215.438 661.007 217.246C660.717 219.029 660.684 220.751 661.084 222.228L664.945 221.181C664.751 220.468 664.713 219.378 664.955 217.888C665.194 216.422 665.684 214.69 666.427 212.763C667.913 208.91 670.355 204.421 673.574 199.94L670.325 197.607ZM693.651 182.684C692.087 181.414 690.106 181.387 688.32 181.85C686.522 182.317 684.581 183.352 682.629 184.741C678.704 187.532 674.316 192.051 670.325 197.607L673.574 199.94C677.385 194.636 681.474 190.47 684.947 188.001C686.693 186.758 688.182 186.019 689.325 185.722C690.479 185.423 690.95 185.644 691.129 185.789L693.651 182.684ZM686.202 210.196C690.195 204.638 693.133 198.959 694.625 194.224C695.368 191.865 695.786 189.639 695.737 187.728C695.69 185.856 695.178 183.924 693.651 182.684L691.129 185.789C691.346 185.966 691.705 186.483 691.739 187.829C691.772 189.135 691.481 190.893 690.81 193.021C689.475 197.259 686.763 202.56 682.954 207.862L686.202 210.196ZM666.544 226.219C668.026 226.142 669.59 225.59 671.126 224.785C672.682 223.969 674.327 222.83 675.997 221.442C679.338 218.665 682.901 214.791 686.202 210.196L682.954 207.862C679.813 212.234 676.475 215.844 673.44 218.365C671.923 219.627 670.512 220.59 669.268 221.243C668.003 221.906 667.022 222.189 666.336 222.225L666.544 226.219ZM661.03 284.478C665.007 270.687 667.719 257.597 669.006 246.944C669.649 241.619 669.94 236.869 669.847 232.924C669.754 229.035 669.286 225.726 668.271 223.417L664.609 225.027C665.302 226.601 665.759 229.269 665.848 233.019C665.935 236.713 665.663 241.261 665.034 246.464C663.778 256.867 661.116 269.744 657.187 283.369L661.03 284.478ZM638.973 334.631C642.422 330.718 646.257 323.942 650.04 315.368C653.845 306.746 657.663 296.151 661.03 284.478L657.187 283.369C653.861 294.899 650.102 305.321 646.381 313.754C642.639 322.234 639.003 328.549 635.972 331.986L638.973 334.631ZM636.255 342.808C637.982 342.103 638.878 340.543 639.285 338.907C639.69 337.282 639.703 335.288 639.46 333.089L635.484 333.527C635.704 335.517 635.644 336.974 635.404 337.94C635.166 338.894 634.844 339.064 634.743 339.105L636.255 342.808ZM593.424 294.482C601.49 308.938 610.087 321.551 617.49 330.262C621.183 334.607 624.64 338.053 627.637 340.267C629.132 341.372 630.592 342.23 631.973 342.715C633.341 343.195 634.85 343.382 636.255 342.808L634.743 339.105C634.59 339.167 634.172 339.247 633.298 338.94C632.436 338.638 631.338 338.029 630.014 337.05C627.371 335.098 624.143 331.914 620.538 327.672C613.346 319.209 604.893 306.826 596.917 292.532L593.424 294.482ZM585.148 278.501C587.587 283.62 590.36 288.991 593.424 294.482L596.917 292.532C593.893 287.113 591.16 281.818 588.759 276.78L585.148 278.501ZM586.739 292.146C587.666 287.201 588.398 282.414 588.939 277.877L584.968 277.403C584.437 281.848 583.718 286.548 582.807 291.409L586.739 292.146ZM563.237 344.447C564.65 344.468 565.944 343.881 567.058 343.063C568.178 342.241 569.251 341.089 570.277 339.722C572.329 336.988 574.391 333.119 576.366 328.463C580.328 319.13 584.087 306.293 586.739 292.146L582.807 291.409C580.194 305.347 576.506 317.895 572.684 326.901C570.769 331.415 568.854 334.953 567.077 337.322C566.188 338.506 565.384 339.33 564.691 339.839C563.992 340.352 563.539 340.451 563.298 340.447L563.237 344.447ZM557.792 339.86C558.795 342.207 560.495 344.405 563.237 344.447L563.298 340.447C563.042 340.444 562.312 340.257 561.47 338.288L557.792 339.86ZM521.546 307.907C528.72 316.269 535.875 323.561 542.29 329.226C548.666 334.857 554.436 338.994 558.833 340.908L560.43 337.24C556.623 335.583 551.234 331.788 544.938 326.228C538.682 320.703 531.655 313.547 524.582 305.302L521.546 307.907ZM502.202 282.045C507.144 289.895 513.79 298.866 521.546 307.907L524.582 305.302C516.934 296.387 510.409 287.573 505.587 279.914L502.202 282.045ZM488.897 297.193C495.049 292.597 500.564 287.584 505.371 282.329L502.419 279.63C497.785 284.696 492.457 289.54 486.503 293.988L488.897 297.193ZM398.802 304.082C407.032 315.099 421.448 319.492 437.641 318.139C453.867 316.783 472.206 309.66 488.897 297.193L486.503 293.988C470.317 306.079 452.676 312.868 437.308 314.153C421.906 315.44 409.113 311.2 402.007 301.688L398.802 304.082ZM430.969 219.644C414.279 232.112 402.246 247.677 396.342 262.851C390.45 277.995 390.573 293.065 398.802 304.082L402.007 301.688C394.902 292.176 394.466 278.706 400.07 264.302C405.661 249.929 417.176 234.94 433.363 222.849L430.969 219.644ZM439.607 213.75C436.694 215.558 433.808 217.523 430.969 219.644L433.363 222.849C436.11 220.797 438.901 218.896 441.716 217.149L439.607 213.75ZM452.643 199.29C447.592 204.105 443.056 209.128 439.085 214.219L442.239 216.68C446.087 211.746 450.491 206.868 455.403 202.185L452.643 199.29ZM478.315 180.036C469.681 184.92 460.914 191.405 452.643 199.29L455.403 202.185C463.45 194.513 471.954 188.23 480.285 183.517L478.315 180.036ZM480.859 183.029L482.94 180.437L479.821 177.933L477.74 180.524L480.859 183.029ZM482.94 180.437C484.086 179.01 485.34 177.674 486.693 176.441L483.998 173.485C482.493 174.857 481.096 176.344 479.821 177.933L482.94 180.437ZM486.693 176.441L506.233 158.629L503.538 155.673L483.998 173.485L486.693 176.441ZM501.564 118.065C493.732 131.019 495.741 145.998 503.178 158.192L506.593 156.11C499.717 144.834 498.121 131.491 504.987 120.134L501.564 118.065ZM541.926 103.793C531.593 101.088 523.394 101.392 516.757 104.112C510.116 106.834 505.315 111.861 501.564 118.065L504.987 120.134C508.455 114.399 512.673 110.109 518.274 107.813C523.877 105.517 531.141 105.104 540.912 107.663L541.926 103.793ZM539.956 288.552C534.007 281.619 528.072 275.422 522.563 270.279L519.834 273.203C525.224 278.234 531.057 284.323 536.92 291.157L539.956 288.552ZM559.424 314.612C554.47 306.716 547.777 297.669 539.956 288.552L536.92 291.157C544.633 300.147 551.203 309.034 556.036 316.738L559.424 314.612ZM558.863 291.045C557.204 299.894 556.168 308.243 555.733 315.557L559.726 315.794C560.15 308.668 561.163 300.486 562.795 291.782L558.863 291.045ZM569.186 254.845C565.243 264.168 561.504 276.957 558.863 291.045L562.795 291.782C565.397 277.902 569.065 265.4 572.87 256.403L569.186 254.845ZM567.221 254.289C567.989 255.201 568.762 256.092 569.538 256.958L572.517 254.289C571.769 253.454 571.023 252.595 570.283 251.714L567.221 254.289ZM564.65 251.115C565.475 252.173 566.333 253.232 567.221 254.289L570.283 251.714C569.426 250.695 568.599 249.674 567.804 248.654L564.65 251.115ZM559.359 250.175C561.597 250.968 563.803 251.534 565.922 251.861L566.532 247.908C564.684 247.623 562.72 247.122 560.694 246.405L559.359 250.175ZM521.547 273.71C538.798 270.662 553.272 261.549 561.67 249.429L558.382 247.151C550.659 258.297 537.173 266.887 520.851 269.771L521.547 273.71Z" fill="#259DFF" mask="url(#path-1-inside-1_4299_85)"/>
<path d="M535.588 147.571C538.191 156.179 542.691 163.274 547.81 167.799C552.942 172.337 558.56 174.189 563.513 172.692C568.465 171.194 572.115 166.538 573.873 159.917C575.626 153.313 575.44 144.914 572.836 136.306C570.233 127.698 565.733 120.603 560.614 116.077C555.482 111.54 549.864 109.688 544.911 111.185C539.959 112.683 536.309 117.339 534.551 123.96C532.798 130.564 532.984 138.963 535.588 147.571Z" fill="#EDF6FF" stroke="#259DFF" stroke-width="2"/>
<mask id="path-4-inside-2_4299_85" fill="white">
<path fill-rule="evenodd" clip-rule="evenodd" d="M467.446 291.252C469.893 272.349 445.013 253.548 411.876 249.258C401.545 247.921 391.632 248.152 382.805 249.676C374.628 236.441 355.836 226.67 333.57 225.676C319.373 225.042 306.266 228.088 296.213 233.607C288.895 230.429 281.059 227.348 272.84 224.45C301.54 221.616 326.682 217.01 342.636 212.074C351.207 211.705 365.254 205.012 379.023 194.071C397.929 179.049 409.154 161.709 404.094 155.341C399.034 148.973 379.606 155.988 360.7 171.009C351.157 178.591 343.572 186.764 339.049 193.818C321.618 192.008 295.264 192.253 265.972 194.952C235.044 197.802 207.877 202.74 191.292 208.017C181.37 208.468 174.908 210.825 173.411 215.215C169.222 227.504 205.527 251.07 254.501 267.851C261.83 270.362 269.027 272.579 275.982 274.493C258.565 273.291 239.372 272.513 219.206 272.273C164.156 271.618 116.264 275.152 91.9014 280.895C83.8237 276.62 69.4928 273.849 53.1829 273.983C28.0344 274.19 7.70386 281.224 7.77345 289.695C7.84305 298.166 28.2864 304.866 53.4349 304.659C68.1359 304.539 81.1904 302.085 89.486 298.374C112.926 304.996 161.981 309.942 218.75 310.617C225.153 310.693 231.46 310.713 237.643 310.679C252.284 314.031 270.971 316.353 291.376 317.001C316.785 317.809 339.702 315.856 355.558 312.098C366.394 313.596 376.636 314.175 385.59 313.931C391.035 315.627 396.883 316.918 403.015 317.711C436.152 322.001 464.999 310.155 467.446 291.252Z"/>
</mask>
<path fill-rule="evenodd" clip-rule="evenodd" d="M467.446 291.252C469.893 272.349 445.013 253.548 411.876 249.258C401.545 247.921 391.632 248.152 382.805 249.676C374.628 236.441 355.836 226.67 333.57 225.676C319.373 225.042 306.266 228.088 296.213 233.607C288.895 230.429 281.059 227.348 272.84 224.45C301.54 221.616 326.682 217.01 342.636 212.074C351.207 211.705 365.254 205.012 379.023 194.071C397.929 179.049 409.154 161.709 404.094 155.341C399.034 148.973 379.606 155.988 360.7 171.009C351.157 178.591 343.572 186.764 339.049 193.818C321.618 192.008 295.264 192.253 265.972 194.952C235.044 197.802 207.877 202.74 191.292 208.017C181.37 208.468 174.908 210.825 173.411 215.215C169.222 227.504 205.527 251.07 254.501 267.851C261.83 270.362 269.027 272.579 275.982 274.493C258.565 273.291 239.372 272.513 219.206 272.273C164.156 271.618 116.264 275.152 91.9014 280.895C83.8237 276.62 69.4928 273.849 53.1829 273.983C28.0344 274.19 7.70386 281.224 7.77345 289.695C7.84305 298.166 28.2864 304.866 53.4349 304.659C68.1359 304.539 81.1904 302.085 89.486 298.374C112.926 304.996 161.981 309.942 218.75 310.617C225.153 310.693 231.46 310.713 237.643 310.679C252.284 314.031 270.971 316.353 291.376 317.001C316.785 317.809 339.702 315.856 355.558 312.098C366.394 313.596 376.636 314.175 385.59 313.931C391.035 315.627 396.883 316.918 403.015 317.711C436.152 322.001 464.999 310.155 467.446 291.252Z" fill="#259DFF"/>
<path d="M411.876 249.258L411.619 251.241L411.876 249.258ZM467.446 291.252L469.429 291.508L469.429 291.508L467.446 291.252ZM382.805 249.676L383.145 251.647L381.814 251.877L381.103 250.727L382.805 249.676ZM333.57 225.676L333.659 223.678L333.57 225.676ZM296.213 233.607L297.175 235.36L296.316 235.832L295.416 235.442L296.213 233.607ZM272.84 224.45L272.175 226.337L272.644 222.46L272.84 224.45ZM342.636 212.074L342.045 210.164L342.292 210.087L342.55 210.076L342.636 212.074ZM379.023 194.071L377.779 192.505L379.023 194.071ZM404.094 155.341L402.528 156.585L404.094 155.341ZM360.7 171.009L361.944 172.575L360.7 171.009ZM339.049 193.818L340.733 194.897L340.068 195.934L338.843 195.807L339.049 193.818ZM265.972 194.952L265.788 192.96L265.972 194.952ZM191.292 208.017L191.898 209.923L191.646 210.003L191.382 210.015L191.292 208.017ZM173.411 215.215L171.518 214.569L173.411 215.215ZM254.501 267.851L253.853 269.743L253.853 269.743L254.501 267.851ZM275.982 274.493L276.513 272.564L275.845 276.488L275.982 274.493ZM219.206 272.273L219.182 274.273L219.206 272.273ZM91.9014 280.895L92.3602 282.841L91.6295 283.014L90.9658 282.662L91.9014 280.895ZM53.1829 273.983L53.1993 275.983L53.1829 273.983ZM7.77345 289.695L9.77339 289.679L7.77345 289.695ZM53.4349 304.659L53.4513 306.659L53.4349 304.659ZM89.486 298.374L88.6694 296.549L89.3316 296.252L90.0297 296.45L89.486 298.374ZM218.75 310.617L218.774 308.617L218.75 310.617ZM237.643 310.679L237.632 308.679L237.864 308.677L238.09 308.729L237.643 310.679ZM291.376 317.001L291.312 319L291.376 317.001ZM355.558 312.098L355.097 310.152L355.461 310.066L355.831 310.117L355.558 312.098ZM385.59 313.931L385.535 311.932L385.867 311.923L386.184 312.021L385.59 313.931ZM403.015 317.711L402.758 319.695L402.758 319.695L403.015 317.711ZM412.133 247.275C428.982 249.456 443.83 255.335 454.211 263.179C464.539 270.984 470.785 281.036 469.429 291.508L465.462 290.995C466.553 282.564 461.583 273.764 451.799 266.371C442.068 259.016 427.907 253.35 411.619 251.241L412.133 247.275ZM382.465 247.705C391.5 246.145 401.616 245.913 412.133 247.275L411.619 251.241C401.475 249.928 391.763 250.159 383.145 251.647L382.465 247.705ZM333.659 223.678C356.361 224.691 375.878 234.659 384.506 248.625L381.103 250.727C373.378 238.223 355.311 228.648 333.481 227.674L333.659 223.678ZM295.25 231.854C305.659 226.14 319.137 223.03 333.659 223.678L333.481 227.674C319.609 227.055 306.872 230.037 297.175 235.36L295.25 231.854ZM273.505 222.564C281.767 225.477 289.647 228.576 297.009 231.773L295.416 235.442C288.143 232.283 280.351 229.219 272.175 226.337L273.505 222.564ZM272.644 222.46C301.276 219.633 326.27 215.044 342.045 210.164L343.227 213.985C327.093 218.976 301.805 223.6 273.037 226.441L272.644 222.46ZM342.55 210.076C346.436 209.909 351.801 208.277 358.001 205.241C364.16 202.225 370.993 197.897 377.779 192.505L380.268 195.637C373.285 201.185 366.209 205.675 359.76 208.833C353.351 211.972 347.407 213.871 342.722 214.072L342.55 210.076ZM377.779 192.505C387.109 185.092 394.477 177.156 398.867 170.374C401.068 166.974 402.457 163.961 403.021 161.517C403.591 159.048 403.254 157.499 402.528 156.585L405.66 154.097C407.464 156.367 407.621 159.374 406.919 162.416C406.211 165.484 404.561 168.939 402.225 172.548C397.541 179.783 389.843 188.028 380.268 195.637L377.779 192.505ZM402.528 156.585C401.802 155.671 400.369 154.993 397.835 154.99C395.327 154.987 392.078 155.659 388.268 157.035C380.669 159.779 371.274 165.162 361.944 172.575L359.456 169.443C369.031 161.835 378.803 156.2 386.91 153.273C390.953 151.813 394.691 150.986 397.84 150.99C400.962 150.993 403.856 151.826 405.66 154.097L402.528 156.585ZM361.944 172.575C352.525 180.059 345.107 188.074 340.733 194.897L337.366 192.738C342.037 185.453 349.79 177.123 359.456 169.443L361.944 172.575ZM338.843 195.807C321.588 194.016 295.375 194.251 266.155 196.943L265.788 192.96C295.152 190.254 321.648 190.001 339.256 191.828L338.843 195.807ZM266.155 196.943C235.297 199.787 208.289 204.707 191.898 209.923L190.685 206.111C207.464 200.772 234.791 195.816 265.788 192.96L266.155 196.943ZM171.518 214.569C172.535 211.588 175.147 209.578 178.461 208.277C181.791 206.97 186.132 206.249 191.201 206.019L191.382 210.015C186.53 210.235 182.678 210.919 179.923 212.001C177.151 213.088 175.784 214.452 175.304 215.86L171.518 214.569ZM253.853 269.743C229.257 261.315 207.779 251.164 192.931 241.526C185.52 236.715 179.664 231.971 175.905 227.561C172.246 223.268 170.103 218.72 171.518 214.569L175.304 215.86C174.625 217.854 175.449 220.86 178.949 224.966C182.35 228.956 187.845 233.456 195.109 238.171C209.61 247.583 230.771 257.605 255.15 265.959L253.853 269.743ZM275.452 276.421C268.456 274.497 261.22 272.267 253.853 269.743L255.15 265.959C262.44 268.457 269.598 270.662 276.513 272.564L275.452 276.421ZM219.23 270.273C239.432 270.513 258.663 271.293 276.12 272.497L275.845 276.488C258.468 275.289 239.313 274.512 219.182 274.273L219.23 270.273ZM91.4425 278.948C116.051 273.148 164.145 269.618 219.23 270.273L219.182 274.273C164.168 273.619 116.476 277.157 92.3602 282.841L91.4425 278.948ZM53.1665 271.983C69.6278 271.848 84.3399 274.63 92.8369 279.127L90.9658 282.662C83.3074 278.609 69.3578 275.85 53.1993 275.983L53.1665 271.983ZM5.77352 289.712C5.74901 286.728 7.52619 284.181 10.0441 282.141C12.582 280.086 16.1412 278.312 20.3674 276.85C28.8401 273.918 40.4353 272.088 53.1665 271.983L53.1993 275.983C40.782 276.085 29.6377 277.875 21.6754 280.63C17.684 282.011 14.6019 283.597 12.5616 285.25C10.5011 286.919 9.76311 288.428 9.77339 289.679L5.77352 289.712ZM53.4513 306.659C40.7202 306.764 29.0964 305.124 20.5767 302.332C16.3271 300.939 12.7393 299.224 10.1679 297.211C7.61683 295.213 5.79804 292.696 5.77352 289.712L9.77339 289.679C9.78367 290.93 10.5464 292.427 12.6339 294.062C14.7011 295.68 17.809 297.216 21.8224 298.531C29.8289 301.155 41.0011 302.762 53.4185 302.66L53.4513 306.659ZM90.3025 300.2C81.6687 304.062 68.3144 306.537 53.4513 306.659L53.4185 302.66C67.9573 302.54 80.7122 300.108 88.6694 296.549L90.3025 300.2ZM218.726 312.617C161.932 311.942 112.652 306.997 88.9423 300.299L90.0297 296.45C113.199 302.995 162.03 307.943 218.774 308.617L218.726 312.617ZM237.654 312.679C231.459 312.713 225.141 312.693 218.726 312.617L218.774 308.617C225.166 308.693 231.46 308.713 237.632 308.679L237.654 312.679ZM291.312 319C270.806 318.349 251.987 316.015 237.197 312.628L238.09 308.729C252.581 312.047 271.137 314.358 291.439 315.002L291.312 319ZM356.019 314.045C339.939 317.855 316.834 319.811 291.312 319L291.439 315.002C316.736 315.806 339.465 313.856 355.097 310.152L356.019 314.045ZM385.644 315.93C376.569 316.177 366.216 315.59 355.284 314.08L355.831 310.117C366.572 311.601 376.704 312.172 385.535 311.932L385.644 315.93ZM402.758 319.695C396.514 318.886 390.552 317.572 384.995 315.841L386.184 312.021C391.517 313.683 397.253 314.949 403.271 315.728L402.758 319.695ZM469.429 291.508C468.073 301.981 459.474 310.111 447.499 315.029C435.463 319.972 419.607 321.876 402.758 319.695L403.271 315.728C419.559 317.836 434.696 315.962 445.979 311.329C457.323 306.67 464.371 299.426 465.462 290.995L469.429 291.508Z" fill="#259DFF" mask="url(#path-4-inside-2_4299_85)"/>
<path d="M188.015 54.5842C187.535 49.5826 193.904 47.077 196.961 51.0651L227.662 91.1275C229.131 93.0441 231.483 94.0683 233.887 93.8376L284.13 89.0148C289.131 88.5347 291.637 94.9043 287.649 97.9606L247.586 128.662C245.67 130.131 244.645 132.483 244.876 134.887L249.699 185.13C250.179 190.131 243.809 192.637 240.753 188.649L210.052 148.586C208.583 146.67 206.23 145.645 203.827 145.876L153.584 150.699C148.583 151.179 146.077 144.809 150.065 141.753L190.128 111.052C192.044 109.583 193.068 107.23 192.838 104.827L188.015 54.5842Z" fill="#259DFF" stroke="#EDF6FF" stroke-width="2"/>
<path d="M640.718 137.698C642.48 134.085 647.873 135.036 648.292 139.034L650.836 163.272C651.052 165.33 652.313 167.132 654.173 168.039L676.08 178.719C679.693 180.48 678.742 185.873 674.744 186.292L650.506 188.836C648.448 189.052 646.646 190.313 645.739 192.174L635.059 214.08C633.298 217.693 627.905 216.742 627.486 212.744L624.942 188.507C624.726 186.448 623.465 184.646 621.604 183.74L599.698 173.06C596.085 171.298 597.036 165.905 601.034 165.486L625.271 162.942C627.33 162.726 629.132 161.465 630.038 159.605L640.718 137.698Z" fill="#259DFF" stroke="#EDF6FF" stroke-width="2"/>
</svg>
