<svg width="125" height="16" viewBox="0 0 125 16" fill="none" xmlns="http://www.w3.org/2000/svg">
<path id="Arrow 1" d="M0.292893 7.29338C-0.0976311 7.68391 -0.0976311 8.31707 0.292893 8.7076L6.65685 15.0716C7.04738 15.4621 7.68054 15.4621 8.07107 15.0716C8.46159 14.681 8.46159 14.0479 8.07107 13.6573L2.41421 8.00049L8.07107 2.34363C8.46159 1.95311 8.46159 1.31994 8.07107 0.92942C7.68054 0.538896 7.04738 0.538896 6.65685 0.92942L0.292893 7.29338ZM124.707 8.7076C125.098 8.31707 125.098 7.68391 124.707 7.29338L118.343 0.92942C117.953 0.538896 117.319 0.538896 116.929 0.92942C116.538 1.31994 116.538 1.95311 116.929 2.34363L122.586 8.00049L116.929 13.6573C116.538 14.0479 116.538 14.681 116.929 15.0716C117.319 15.4621 117.953 15.4621 118.343 15.0716L124.707 8.7076ZM1 9.00049L124 9.00049V7.00049L1 7.00049L1 9.00049Z" fill="#259DFF"/>
</svg>
