<svg width="454" height="549" viewBox="0 0 454 549" fill="none" xmlns="http://www.w3.org/2000/svg">
<g clip-path="url(#clip0_4311_88)">
<mask id="path-1-inside-1_4311_88" fill="white">
<path fill-rule="evenodd" clip-rule="evenodd" d="M230.41 49.7711C225.521 34.0405 226.104 19.7115 231.711 17.7664C237.317 15.8212 245.825 26.9965 250.714 42.727C253.459 51.5622 254.479 59.9553 253.852 65.9604C264.315 62.7171 281.229 60.4179 300.689 60.0112C334.177 59.3112 362.526 64.4796 364.01 71.5551C364.346 73.1593 363.272 74.7238 361.021 76.1924C358.908 85.7452 348.223 103.569 332.62 122.501C328.295 127.749 323.925 132.678 319.654 137.172C327.035 143.623 331.429 151.557 331.548 160.184C331.625 165.75 329.917 171.077 326.761 175.942C353.16 178.662 371.387 184.863 371.49 192.325C371.636 202.782 336.131 211.753 292.189 212.362C290.303 212.389 288.432 212.399 286.579 212.394C308.786 220.73 323.626 229.691 322.169 234.688C320.271 241.199 291.431 238.516 257.754 228.697C246.453 225.402 236.043 221.722 227.27 218.041C225.217 234.787 220.278 249.928 213.504 262.045C212.238 270.065 210.461 277.667 208.275 284.68C221.984 297.914 229.727 318.714 227.37 341.136C227.124 343.481 226.773 345.786 226.324 348.044L347.237 604.808C353.699 618.53 347.814 634.893 334.092 641.355C320.369 647.817 304.007 641.931 297.545 628.209L188.524 396.7C186.617 397.474 184.67 398.133 182.689 398.674L149.942 602.913C146.494 624.412 126.271 639.047 104.771 635.6C83.2711 632.152 68.6366 611.929 72.0839 590.429L110.465 351.054C111.195 346.498 112.679 342.251 114.769 338.418C114.725 335.434 114.858 332.404 115.18 329.344C117.282 309.338 126.981 292.268 140.526 281.651C139.745 275.315 139.368 268.561 139.44 261.524C135.772 252.654 133.313 242.25 132.346 230.931C128.208 232.876 123.804 234.563 119.175 235.94C107.841 239.313 96.6129 240.397 86.4507 239.49C86.1129 244.964 85.5957 250.73 84.8902 256.684C81.8945 281.97 76.308 303.869 70.6951 314.469C74.3084 317.407 78.251 321.645 81.9228 326.756C90.5342 338.743 94.3948 350.995 90.5457 354.121C86.6966 357.246 76.5953 350.063 67.9839 338.076C60.4615 327.604 56.5643 316.931 58.2646 312.316C55.6914 301.091 55.523 280.423 58.3247 256.775C59.3482 248.136 60.6742 239.892 62.2004 232.359C54.2919 227.828 48.5641 221.356 46.166 213.298C39.4664 190.786 61.2917 164.426 94.9141 154.419C105.463 151.28 115.921 150.123 125.512 150.71C127.675 149.906 129.799 149.31 131.835 148.926C128.153 147.995 124.375 146.968 120.535 145.848C86.8572 136.029 61.0949 122.791 62.9931 116.281C64.8913 109.77 93.7312 112.453 127.409 122.272C142.476 126.665 155.96 131.742 166.09 136.595C169.704 134.072 173.475 132.214 177.337 131.112C176.997 126.395 177.475 121.069 178.888 115.603C179.556 113.018 180.392 110.562 181.361 108.273L180.698 106.497C179.552 107.686 178.365 108.757 177.15 109.696C172.5 114.3 167.291 116.57 162.324 115.557C157.492 114.573 153.665 110.641 151.18 104.854C147.037 97.0483 146.069 85.3205 149.327 73.1704C149.505 72.5095 149.692 71.8559 149.889 71.2101C153.926 54.4411 163.443 41.9428 172.989 40.1567L173.426 39.4691C195.343 33.731 207.139 41.0316 215.008 54.0463C217.596 58.3269 219.143 62.8355 219.789 67.4094L240.04 76.4594C240.981 76.88 241.864 77.4192 242.669 78.0638C248.949 83.0973 248.652 92.7467 242.074 97.3845L233.482 103.442C226.391 108.442 217.63 108.072 211.14 103.926C212.247 109.561 212.006 116.501 210.148 123.685C208.859 128.669 206.947 133.174 204.661 136.933C206.99 138.781 209.182 140.965 211.222 143.449L211.251 143.485C221.603 130.342 242.84 121.155 267.478 120.813C278.464 120.66 288.822 122.285 297.879 125.271C301.382 120.326 305.345 115.141 309.689 109.869C318.196 99.5477 326.878 90.4575 334.642 83.4831C326.256 84.649 316.527 85.415 306.062 85.6338C272.574 86.3337 244.225 81.1653 242.741 74.0898C242.626 73.5379 242.677 72.9908 242.885 72.4505C238.397 68.4782 233.622 60.1081 230.41 49.7711Z"/>
</mask>
<path fill-rule="evenodd" clip-rule="evenodd" d="M230.41 49.7711C225.521 34.0405 226.104 19.7115 231.711 17.7664C237.317 15.8212 245.825 26.9965 250.714 42.727C253.459 51.5622 254.479 59.9553 253.852 65.9604C264.315 62.7171 281.229 60.4179 300.689 60.0112C334.177 59.3112 362.526 64.4796 364.01 71.5551C364.346 73.1593 363.272 74.7238 361.021 76.1924C358.908 85.7452 348.223 103.569 332.62 122.501C328.295 127.749 323.925 132.678 319.654 137.172C327.035 143.623 331.429 151.557 331.548 160.184C331.625 165.75 329.917 171.077 326.761 175.942C353.16 178.662 371.387 184.863 371.49 192.325C371.636 202.782 336.131 211.753 292.189 212.362C290.303 212.389 288.432 212.399 286.579 212.394C308.786 220.73 323.626 229.691 322.169 234.688C320.271 241.199 291.431 238.516 257.754 228.697C246.453 225.402 236.043 221.722 227.27 218.041C225.217 234.787 220.278 249.928 213.504 262.045C212.238 270.065 210.461 277.667 208.275 284.68C221.984 297.914 229.727 318.714 227.37 341.136C227.124 343.481 226.773 345.786 226.324 348.044L347.237 604.808C353.699 618.53 347.814 634.893 334.092 641.355C320.369 647.817 304.007 641.931 297.545 628.209L188.524 396.7C186.617 397.474 184.67 398.133 182.689 398.674L149.942 602.913C146.494 624.412 126.271 639.047 104.771 635.6C83.2711 632.152 68.6366 611.929 72.0839 590.429L110.465 351.054C111.195 346.498 112.679 342.251 114.769 338.418C114.725 335.434 114.858 332.404 115.18 329.344C117.282 309.338 126.981 292.268 140.526 281.651C139.745 275.315 139.368 268.561 139.44 261.524C135.772 252.654 133.313 242.25 132.346 230.931C128.208 232.876 123.804 234.563 119.175 235.94C107.841 239.313 96.6129 240.397 86.4507 239.49C86.1129 244.964 85.5957 250.73 84.8902 256.684C81.8945 281.97 76.308 303.869 70.6951 314.469C74.3084 317.407 78.251 321.645 81.9228 326.756C90.5342 338.743 94.3948 350.995 90.5457 354.121C86.6966 357.246 76.5953 350.063 67.9839 338.076C60.4615 327.604 56.5643 316.931 58.2646 312.316C55.6914 301.091 55.523 280.423 58.3247 256.775C59.3482 248.136 60.6742 239.892 62.2004 232.359C54.2919 227.828 48.5641 221.356 46.166 213.298C39.4664 190.786 61.2917 164.426 94.9141 154.419C105.463 151.28 115.921 150.123 125.512 150.71C127.675 149.906 129.799 149.31 131.835 148.926C128.153 147.995 124.375 146.968 120.535 145.848C86.8572 136.029 61.0949 122.791 62.9931 116.281C64.8913 109.77 93.7312 112.453 127.409 122.272C142.476 126.665 155.96 131.742 166.09 136.595C169.704 134.072 173.475 132.214 177.337 131.112C176.997 126.395 177.475 121.069 178.888 115.603C179.556 113.018 180.392 110.562 181.361 108.273L180.698 106.497C179.552 107.686 178.365 108.757 177.15 109.696C172.5 114.3 167.291 116.57 162.324 115.557C157.492 114.573 153.665 110.641 151.18 104.854C147.037 97.0483 146.069 85.3205 149.327 73.1704C149.505 72.5095 149.692 71.8559 149.889 71.2101C153.926 54.4411 163.443 41.9428 172.989 40.1567L173.426 39.4691C195.343 33.731 207.139 41.0316 215.008 54.0463C217.596 58.3269 219.143 62.8355 219.789 67.4094L240.04 76.4594C240.981 76.88 241.864 77.4192 242.669 78.0638C248.949 83.0973 248.652 92.7467 242.074 97.3845L233.482 103.442C226.391 108.442 217.63 108.072 211.14 103.926C212.247 109.561 212.006 116.501 210.148 123.685C208.859 128.669 206.947 133.174 204.661 136.933C206.99 138.781 209.182 140.965 211.222 143.449L211.251 143.485C221.603 130.342 242.84 121.155 267.478 120.813C278.464 120.66 288.822 122.285 297.879 125.271C301.382 120.326 305.345 115.141 309.689 109.869C318.196 99.5477 326.878 90.4575 334.642 83.4831C326.256 84.649 316.527 85.415 306.062 85.6338C272.574 86.3337 244.225 81.1653 242.741 74.0898C242.626 73.5379 242.677 72.9908 242.885 72.4505C238.397 68.4782 233.622 60.1081 230.41 49.7711Z" fill="#EDF6FF"/>
<path d="M231.711 17.7664L231.055 15.8769L231.055 15.8769L231.711 17.7664ZM230.41 49.7711L228.5 50.3646L228.5 50.3646L230.41 49.7711ZM250.714 42.727L248.804 43.3206L248.804 43.3206L250.714 42.727ZM253.852 65.9604L254.444 67.8707L251.548 68.7684L251.863 65.7527L253.852 65.9604ZM300.689 60.0112L300.731 62.0107L300.731 62.0107L300.689 60.0112ZM364.01 71.5551L362.052 71.9655L362.052 71.9655L364.01 71.5551ZM361.021 76.1924L359.068 75.7605L359.244 74.9632L359.928 74.5171L361.021 76.1924ZM332.62 122.501L334.163 123.773L334.163 123.773L332.62 122.501ZM319.654 137.172L318.338 138.678L316.767 137.306L318.204 135.795L319.654 137.172ZM331.548 160.184L329.548 160.212L329.548 160.212L331.548 160.184ZM326.761 175.942L326.556 177.932L323.304 177.597L325.083 174.854L326.761 175.942ZM371.49 192.325L373.49 192.297L373.49 192.297L371.49 192.325ZM292.189 212.362L292.216 214.362L292.216 214.362L292.189 212.362ZM286.579 212.394L285.876 214.266L286.584 210.394L286.579 212.394ZM322.169 234.688L324.09 235.248L324.09 235.248L322.169 234.688ZM257.754 228.697L257.194 230.617L257.194 230.617L257.754 228.697ZM227.27 218.041L225.285 217.797L225.607 215.174L228.044 216.197L227.27 218.041ZM213.504 262.045L211.528 261.733L211.584 261.38L211.758 261.069L213.504 262.045ZM208.275 284.68L206.885 286.118L205.998 285.262L206.365 284.084L208.275 284.68ZM226.324 348.044L224.514 348.896L224.234 348.3L224.362 347.654L226.324 348.044ZM347.237 604.808L349.047 603.956L349.047 603.956L347.237 604.808ZM334.092 641.355L334.944 643.164L334.944 643.164L334.092 641.355ZM297.545 628.209L299.354 627.357L299.354 627.357L297.545 628.209ZM188.524 396.7L187.773 394.847L189.527 394.135L190.334 395.848L188.524 396.7ZM182.689 398.674L180.714 398.357L180.918 397.084L182.163 396.744L182.689 398.674ZM149.942 602.913L151.916 603.229L151.916 603.229L149.942 602.913ZM104.771 635.6L105.088 633.625L105.088 633.625L104.771 635.6ZM72.0839 590.429L74.0587 590.746L74.0587 590.746L72.0839 590.429ZM110.465 351.054L108.49 350.738L108.49 350.738L110.465 351.054ZM114.769 338.418L116.769 338.389L116.776 338.914L116.525 339.376L114.769 338.418ZM140.526 281.651L142.511 281.406L142.649 282.527L141.76 283.225L140.526 281.651ZM139.44 261.524L141.288 260.759L141.444 261.136L141.44 261.544L139.44 261.524ZM132.346 230.931L131.495 229.121L134.094 227.9L134.338 230.761L132.346 230.931ZM119.175 235.94L119.746 237.857L119.746 237.857L119.175 235.94ZM86.4507 239.49L84.4545 239.367L84.5812 237.315L86.6286 237.498L86.4507 239.49ZM84.8902 256.684L82.9041 256.449L82.9041 256.449L84.8902 256.684ZM70.6951 314.469L69.4334 316.021L68.159 314.985L68.9276 313.533L70.6951 314.469ZM81.9228 326.756L80.2985 327.923L80.2984 327.923L81.9228 326.756ZM90.5457 354.121L89.2849 352.568L89.2849 352.568L90.5457 354.121ZM67.9839 338.076L69.6082 336.909L69.6082 336.909L67.9839 338.076ZM58.2646 312.316L60.2141 311.869L60.347 312.449L60.1413 313.007L58.2646 312.316ZM58.3247 256.775L60.3108 257.01L60.3108 257.01L58.3247 256.775ZM62.2004 232.359L63.1945 230.623L64.4472 231.341L64.1605 232.756L62.2004 232.359ZM46.166 213.298L48.0829 212.727L48.0829 212.727L46.166 213.298ZM94.9141 154.419L95.4846 156.336L95.4846 156.336L94.9141 154.419ZM125.512 150.71L126.209 152.585L125.812 152.732L125.39 152.706L125.512 150.71ZM131.835 148.926L132.325 146.987L132.206 150.891L131.835 148.926ZM120.535 145.848L119.975 147.768L119.975 147.768L120.535 145.848ZM62.9931 116.281L61.0731 115.721L61.0731 115.721L62.9931 116.281ZM127.409 122.272L126.849 124.192L126.849 124.192L127.409 122.272ZM166.09 136.595L167.235 138.235L166.278 138.903L165.226 138.399L166.09 136.595ZM177.337 131.112L179.332 130.968L179.449 132.589L177.886 133.035L177.337 131.112ZM178.888 115.603L176.952 115.102L176.952 115.102L178.888 115.603ZM181.361 108.273L183.234 107.573L183.513 108.319L183.203 109.052L181.361 108.273ZM180.698 106.497L179.257 105.11L181.46 102.822L182.571 105.797L180.698 106.497ZM177.15 109.696L175.742 108.274L175.83 108.188L175.927 108.113L177.15 109.696ZM162.324 115.557L162.723 113.598L162.723 113.598L162.324 115.557ZM151.18 104.854L152.946 103.916L152.985 103.989L153.017 104.065L151.18 104.854ZM149.327 73.1704L147.396 72.6524L147.396 72.6524L149.327 73.1704ZM149.889 71.2101L151.834 71.6782L151.82 71.7366L151.802 71.7941L149.889 71.2101ZM172.989 40.1567L174.677 41.2297L174.211 41.9629L173.357 42.1226L172.989 40.1567ZM173.426 39.4691L171.739 38.3961L172.16 37.7332L172.92 37.5343L173.426 39.4691ZM215.008 54.0463L216.72 53.0115L216.72 53.0115L215.008 54.0463ZM219.789 67.4094L218.973 69.2354L217.963 68.7841L217.808 67.6889L219.789 67.4094ZM240.04 76.4594L239.224 78.2854L239.224 78.2854L240.04 76.4594ZM242.669 78.0638L241.418 79.6245L241.418 79.6245L242.669 78.0638ZM242.074 97.3845L240.922 95.7499L240.922 95.7499L242.074 97.3845ZM233.482 103.442L234.634 105.077L234.634 105.077L233.482 103.442ZM211.14 103.926L209.178 104.311L208.277 99.7228L212.217 102.24L211.14 103.926ZM210.148 123.685L212.085 124.185L210.148 123.685ZM204.661 136.933L203.418 138.499L202.035 137.402L202.952 135.893L204.661 136.933ZM211.222 143.449L212.768 142.18L212.768 142.181L211.222 143.449ZM211.251 143.485L212.822 144.722L211.283 146.677L209.705 144.753L211.251 143.485ZM267.478 120.813L267.506 122.813L267.506 122.813L267.478 120.813ZM297.879 125.271L299.511 126.427L298.656 127.633L297.252 127.17L297.879 125.271ZM309.689 109.869L311.233 111.141L311.233 111.141L309.689 109.869ZM334.642 83.4831L334.366 81.5021L340.842 80.6018L335.978 84.9709L334.642 83.4831ZM306.062 85.6338L306.02 83.6342L306.062 85.6338ZM242.741 74.0898L244.699 73.6794L244.699 73.6794L242.741 74.0898ZM242.885 72.4505L244.211 70.9529L245.252 71.8742L244.751 73.171L242.885 72.4505ZM232.366 19.6559C231.719 19.8805 230.956 20.5517 230.304 22.1369C229.658 23.7058 229.235 25.9165 229.123 28.6804C228.899 34.1915 229.926 41.4742 232.32 49.1775L228.5 50.3646C226.005 42.3374 224.879 34.5903 225.126 28.518C225.249 25.4902 225.717 22.7708 226.605 20.6144C227.486 18.4741 228.899 16.6248 231.055 15.8769L232.366 19.6559ZM248.804 43.3206C246.409 35.6155 243.153 29.115 239.89 24.8298C238.253 22.6795 236.686 21.1815 235.312 20.3385C233.936 19.4941 232.992 19.4386 232.366 19.6559L231.055 15.8769C233.232 15.1216 235.455 15.7335 237.404 16.929C239.354 18.1259 241.271 20.0401 243.073 22.4068C246.688 27.1556 250.13 34.1081 252.624 42.1335L248.804 43.3206ZM251.863 65.7527C252.453 60.0974 251.497 51.9868 248.804 43.3206L252.624 42.1335C255.422 51.1377 256.505 59.8132 255.841 66.168L251.863 65.7527ZM300.731 62.0107C281.361 62.4156 264.656 64.7053 254.444 67.8707L253.26 64.05C263.975 60.7288 281.096 58.4203 300.647 58.0116L300.731 62.0107ZM362.052 71.9655C361.994 71.69 361.753 71.1979 360.958 70.5367C360.174 69.8854 359.002 69.1953 357.404 68.5031C354.213 67.1208 349.652 65.8668 343.992 64.8349C332.697 62.7756 317.376 61.6628 300.731 62.0107L300.647 58.0116C317.489 57.6596 333.088 58.781 344.71 60.8998C350.508 61.957 355.405 63.2779 358.994 64.8328C360.786 65.6092 362.333 66.4783 363.515 67.4612C364.685 68.4341 365.654 69.6513 365.967 71.1447L362.052 71.9655ZM359.928 74.5171C362.061 73.1264 362.113 72.2559 362.052 71.9655L365.967 71.1447C366.579 74.0627 364.484 76.3213 362.113 77.8676L359.928 74.5171ZM331.076 121.229C338.828 111.823 345.343 102.711 350.171 94.7886C355.03 86.8166 358.085 80.2032 359.068 75.7605L362.973 76.6242C361.843 81.7343 358.5 88.8092 353.587 96.8703C348.644 104.981 342.015 114.247 334.163 123.773L331.076 121.229ZM318.204 135.795C322.442 131.335 326.781 126.441 331.076 121.229L334.163 123.773C329.809 129.056 325.408 134.021 321.103 138.55L318.204 135.795ZM329.548 160.212C329.439 152.293 325.411 144.86 318.338 138.678L320.97 135.666C328.66 142.387 333.418 150.821 333.548 160.157L329.548 160.212ZM325.083 174.854C328.052 170.277 329.619 165.333 329.548 160.212L333.548 160.157C333.631 166.167 331.782 171.876 328.439 177.031L325.083 174.854ZM369.491 192.353C369.477 191.361 368.858 190.08 366.937 188.574C365.039 187.088 362.15 185.615 358.311 184.238C350.654 181.491 339.675 179.283 326.556 177.932L326.966 173.953C340.246 175.321 351.58 177.574 359.662 180.473C363.692 181.919 367.029 183.565 369.403 185.425C371.753 187.266 373.452 189.558 373.49 192.297L369.491 192.353ZM292.161 210.363C314.023 210.059 333.723 207.675 347.882 204.097C354.978 202.304 360.572 200.239 364.335 198.052C368.261 195.771 369.51 193.774 369.491 192.353L373.49 192.297C373.543 196.104 370.409 199.15 366.345 201.511C362.119 203.966 356.117 206.142 348.862 207.975C334.32 211.65 314.296 214.056 292.216 214.362L292.161 210.363ZM286.584 210.394C288.426 210.399 290.286 210.389 292.161 210.363L292.216 214.362C290.319 214.388 288.438 214.399 286.573 214.394L286.584 210.394ZM320.249 234.128C320.296 233.967 320.329 233.21 318.872 231.62C317.518 230.143 315.283 228.407 312.195 226.493C306.045 222.682 296.917 218.411 285.876 214.266L287.281 210.521C298.448 214.713 307.844 219.09 314.302 223.093C317.517 225.086 320.107 227.048 321.82 228.917C323.43 230.674 324.771 232.911 324.09 235.248L320.249 234.128ZM258.314 226.777C275.068 231.662 290.568 234.756 302.064 235.825C307.829 236.361 312.483 236.378 315.751 235.9C317.391 235.661 318.564 235.313 319.326 234.923C320.089 234.532 320.223 234.219 320.249 234.128L324.09 235.248C323.641 236.785 322.459 237.812 321.15 238.483C319.84 239.154 318.185 239.587 316.329 239.858C312.603 240.403 307.586 240.356 301.694 239.808C289.876 238.709 274.117 235.551 257.194 230.617L258.314 226.777ZM228.044 216.197C236.739 219.846 247.076 223.501 258.314 226.777L257.194 230.617C245.829 227.304 235.347 223.599 226.496 219.885L228.044 216.197ZM211.758 261.069C218.394 249.201 223.26 234.312 225.285 217.797L229.255 218.284C227.174 235.261 222.163 250.655 215.25 263.021L211.758 261.069ZM206.365 284.084C208.521 277.168 210.277 269.661 211.528 261.733L215.479 262.357C214.199 270.468 212.401 278.165 210.184 285.275L206.365 284.084ZM225.381 340.927C227.678 319.073 220.12 298.895 206.885 286.118L209.664 283.241C223.847 296.933 231.776 318.355 229.359 341.345L225.381 340.927ZM224.362 347.654C224.799 345.455 225.141 343.211 225.381 340.927L229.359 341.345C229.106 343.751 228.746 346.116 228.285 348.434L224.362 347.654ZM345.428 605.66L224.514 348.896L228.133 347.192L349.047 603.956L345.428 605.66ZM333.24 639.546C345.962 633.554 351.419 618.383 345.428 605.66L349.047 603.956C355.979 618.678 349.665 636.232 334.944 643.164L333.24 639.546ZM299.354 627.357C305.346 640.08 320.517 645.537 333.24 639.546L334.944 643.164C320.222 650.097 302.668 643.783 295.735 629.061L299.354 627.357ZM190.334 395.848L299.354 627.357L295.735 629.061L186.715 397.552L190.334 395.848ZM182.163 396.744C184.066 396.225 185.938 395.591 187.773 394.847L189.276 398.554C187.297 399.356 185.274 400.042 183.215 400.603L182.163 396.744ZM147.967 602.596L180.714 398.357L184.664 398.99L151.916 603.229L147.967 602.596ZM105.088 633.625C125.497 636.897 144.695 623.005 147.967 602.596L151.916 603.229C148.294 625.82 127.045 641.197 104.454 637.574L105.088 633.625ZM74.0587 590.746C70.7863 611.155 84.6784 630.353 105.088 633.625L104.454 637.574C81.8639 633.952 66.487 612.703 70.1091 590.112L74.0587 590.746ZM112.44 351.371L74.0587 590.746L70.1091 590.112L108.49 350.738L112.44 351.371ZM116.525 339.376C114.542 343.011 113.134 347.043 112.44 351.371L108.49 350.738C109.257 345.954 110.816 341.49 113.013 337.461L116.525 339.376ZM117.169 329.553C116.856 332.534 116.726 335.484 116.769 338.389L112.769 338.448C112.724 335.384 112.861 332.274 113.191 329.135L117.169 329.553ZM141.76 283.225C128.662 293.491 119.218 310.059 117.169 329.553L113.191 329.135C115.347 308.618 125.3 291.044 139.292 280.077L141.76 283.225ZM141.44 261.544C141.368 268.498 141.741 275.163 142.511 281.406L138.541 281.895C137.748 275.467 137.367 268.625 137.44 261.503L141.44 261.544ZM134.338 230.761C135.291 241.902 137.708 252.103 141.288 260.759L137.592 262.288C133.836 253.206 131.335 242.597 130.353 231.101L134.338 230.761ZM118.605 234.023C123.138 232.674 127.449 231.023 131.495 229.121L133.196 232.741C128.968 234.728 124.469 236.451 119.746 237.857L118.605 234.023ZM86.6286 237.498C96.5256 238.382 107.5 237.328 118.605 234.023L119.746 237.857C108.182 241.299 96.7001 242.413 86.2728 241.482L86.6286 237.498ZM82.9041 256.449C83.6053 250.53 84.1191 244.802 84.4545 239.367L88.4469 239.613C88.1067 245.126 87.5861 250.929 86.8763 256.92L82.9041 256.449ZM68.9276 313.533C74.3619 303.271 79.9156 281.674 82.9041 256.449L86.8763 256.92C83.8735 282.266 78.2541 304.468 72.4626 315.405L68.9276 313.533ZM80.2984 327.923C76.7089 322.926 72.8838 318.826 69.4334 316.021L71.9568 312.917C75.7331 315.988 79.7932 320.364 83.5471 325.589L80.2984 327.923ZM89.2849 352.568C89.5922 352.318 89.9957 351.674 90.0338 350.161C90.071 348.688 89.7433 346.723 88.9994 344.362C87.5173 339.659 84.5122 333.788 80.2985 327.923L83.5471 325.589C87.9447 331.711 91.1756 337.959 92.8145 343.16C93.631 345.751 94.085 348.184 94.0325 350.262C93.9811 352.301 93.4238 354.36 91.8065 355.673L89.2849 352.568ZM69.6082 336.909C73.8238 342.777 78.3531 347.393 82.2098 350.136C84.1482 351.514 85.8144 352.346 87.11 352.682C88.4167 353.021 89.0148 352.787 89.2849 352.568L91.8065 355.673C90.152 357.017 88.044 357.057 86.1051 356.554C84.155 356.048 82.0361 354.92 79.8916 353.395C75.5825 350.331 70.7555 345.362 66.3596 339.243L69.6082 336.909ZM60.1413 313.007C59.8752 313.73 59.7677 314.893 59.9903 316.549C60.2087 318.174 60.724 320.118 61.5392 322.3C63.1688 326.66 65.9315 331.791 69.6082 336.909L66.3596 339.243C62.514 333.889 59.5668 328.448 57.7923 323.7C56.9055 321.327 56.2951 319.084 56.026 317.082C55.7609 315.111 55.8039 313.21 56.3879 311.624L60.1413 313.007ZM60.3108 257.01C57.517 280.592 57.7189 300.985 60.2141 311.869L56.3152 312.763C53.6638 301.197 53.5291 280.254 56.3386 256.54L60.3108 257.01ZM64.1605 232.756C62.6458 240.233 61.3282 248.423 60.3108 257.01L56.3386 256.54C57.3682 247.849 58.7027 239.551 60.2402 231.962L64.1605 232.756ZM48.0829 212.727C50.3064 220.198 55.6383 226.294 63.1945 230.623L61.2062 234.094C52.9454 229.362 46.8218 222.513 44.2491 213.868L48.0829 212.727ZM95.4846 156.336C79.0007 161.242 65.4961 170.135 56.9598 180.445C48.4135 190.767 44.9821 202.308 48.0829 212.727L44.2491 213.868C40.6504 201.776 44.7818 188.881 53.8788 177.894C62.9859 166.894 77.2051 157.603 94.3436 152.502L95.4846 156.336ZM125.39 152.706C116.043 152.134 105.82 153.26 95.4846 156.336L94.3436 152.502C105.107 149.299 115.799 148.112 125.634 148.713L125.39 152.706ZM132.206 150.891C130.29 151.253 128.275 151.817 126.209 152.585L124.816 148.835C127.075 147.996 129.308 147.367 131.464 146.96L132.206 150.891ZM121.095 143.928C124.912 145.041 128.667 146.062 132.325 146.987L131.345 150.865C127.639 149.928 123.838 148.894 119.975 147.768L121.095 143.928ZM64.9132 116.841C64.8867 116.931 64.8317 117.268 65.2648 118.006C65.6978 118.745 66.4999 119.669 67.7546 120.753C70.254 122.912 74.1877 125.399 79.3371 128.045C89.6061 133.321 104.34 139.043 121.095 143.928L119.975 147.768C103.052 142.834 88.066 137.027 77.509 131.603C72.2454 128.898 67.9896 126.241 65.14 123.78C63.7202 122.554 62.5579 121.299 61.8138 120.029C61.0698 118.759 60.625 117.258 61.0731 115.721L64.9132 116.841ZM126.849 124.192C110.094 119.307 94.5942 116.213 83.0985 115.144C77.3339 114.608 72.6799 114.591 69.4119 115.068C67.7714 115.308 66.5985 115.656 65.8363 116.046C65.0739 116.437 64.9396 116.75 64.9132 116.841L61.0731 115.721C61.5211 114.184 62.7033 113.157 64.013 112.486C65.3229 111.815 66.9776 111.382 68.834 111.11C72.5598 110.566 77.5765 110.613 83.4689 111.161C95.287 112.26 111.046 115.418 127.969 120.352L126.849 124.192ZM165.226 138.399C155.214 133.603 141.837 128.562 126.849 124.192L127.969 120.352C143.116 124.768 156.705 129.881 166.954 134.792L165.226 138.399ZM177.886 133.035C174.264 134.069 170.692 135.822 167.235 138.235L164.945 134.955C168.716 132.323 172.686 130.36 176.788 129.189L177.886 133.035ZM180.824 116.103C179.461 121.377 179.009 126.485 179.332 130.968L175.342 131.256C174.985 126.305 175.488 120.762 176.952 115.102L180.824 116.103ZM183.203 109.052C182.273 111.25 181.468 113.612 180.824 116.103L176.952 115.102C177.644 112.424 178.511 109.875 179.519 107.493L183.203 109.052ZM182.571 105.797L183.234 107.573L179.487 108.973L178.824 107.197L182.571 105.797ZM182.138 107.884C180.93 109.139 179.671 110.275 178.372 111.278L175.927 108.113C177.06 107.238 178.174 106.234 179.257 105.11L182.138 107.884ZM162.723 113.598C166.778 114.424 171.344 112.63 175.742 108.274L178.557 111.117C173.657 115.969 167.804 118.715 161.924 117.517L162.723 113.598ZM153.017 104.065C155.361 109.523 158.778 112.794 162.723 113.598L161.924 117.517C156.206 116.352 151.968 111.76 149.342 105.643L153.017 104.065ZM149.413 105.792C144.972 97.4247 144.045 85.1498 147.396 72.6524L151.259 73.6884C148.094 85.4912 149.101 96.6719 152.946 103.916L149.413 105.792ZM147.396 72.6524C147.579 71.9694 147.773 71.2938 147.976 70.626L151.802 71.7941C151.612 72.418 151.43 73.0496 151.259 73.6884L147.396 72.6524ZM173.357 42.1226C169.27 42.8873 164.894 46.0293 160.974 51.2637C157.083 56.4589 153.798 63.5175 151.834 71.6782L147.945 70.742C150.017 62.1336 153.509 54.5586 157.773 48.8659C162.007 43.2124 167.163 39.2122 172.622 38.1909L173.357 42.1226ZM175.114 40.542L174.677 41.2297L171.301 39.0838L171.739 38.3961L175.114 40.542ZM213.297 55.0811C209.504 48.808 204.879 44.0976 198.727 41.576C192.571 39.053 184.611 38.6083 173.933 41.4039L172.92 37.5343C184.159 34.5918 193.055 34.9284 200.244 37.8748C207.436 40.8226 212.644 46.2699 216.72 53.0115L213.297 55.0811ZM217.808 67.6889C217.2 63.3777 215.743 59.1266 213.297 55.0811L216.72 53.0115C219.45 57.5271 221.087 62.2934 221.769 67.13L217.808 67.6889ZM239.224 78.2854L218.973 69.2354L220.605 65.5834L240.856 74.6334L239.224 78.2854ZM241.418 79.6245C240.747 79.0864 240.009 78.6364 239.224 78.2854L240.856 74.6334C241.953 75.1236 242.982 75.7519 243.92 76.5032L241.418 79.6245ZM240.922 95.7499C246.412 91.8791 246.66 83.8255 241.418 79.6245L243.92 76.5032C251.239 82.3691 250.893 93.6143 243.227 99.019L240.922 95.7499ZM232.33 101.808L240.922 95.7499L243.227 99.019L234.634 105.077L232.33 101.808ZM212.217 102.24C218.075 105.983 225.951 106.305 232.33 101.808L234.634 105.077C226.83 110.58 217.185 110.162 210.064 105.611L212.217 102.24ZM208.212 123.184C210.006 116.245 210.218 109.61 209.178 104.311L213.103 103.54C214.275 109.512 214.005 116.757 212.085 124.185L208.212 123.184ZM202.952 135.893C205.13 132.313 206.969 127.992 208.212 123.184L212.085 124.185C210.75 129.347 208.764 134.035 206.37 137.972L202.952 135.893ZM209.676 144.718C207.717 142.333 205.624 140.251 203.418 138.499L205.905 135.366C208.355 137.311 210.647 139.598 212.768 142.18L209.676 144.718ZM209.705 144.753L209.676 144.718L212.768 142.181L212.797 142.216L209.705 144.753ZM267.506 122.813C243.254 123.149 222.684 132.201 212.822 144.722L209.68 142.247C220.521 128.484 242.427 119.16 267.45 118.813L267.506 122.813ZM297.252 127.17C288.418 124.257 278.281 122.663 267.506 122.813L267.45 118.813C278.647 118.658 289.227 120.312 298.505 123.371L297.252 127.17ZM311.233 111.141C306.917 116.377 302.984 121.524 299.511 126.427L296.247 124.115C299.779 119.128 303.772 113.904 308.146 108.597L311.233 111.141ZM335.978 84.9709C328.299 91.8694 319.685 100.885 311.233 111.141L308.146 108.597C316.706 98.2102 325.457 89.0455 333.305 81.9952L335.978 84.9709ZM306.02 83.6342C316.417 83.4169 326.068 82.656 334.366 81.5021L334.917 85.464C326.445 86.6419 316.638 87.4132 306.103 87.6333L306.02 83.6342ZM244.699 73.6794C244.757 73.955 244.998 74.447 245.793 75.1083C246.577 75.7596 247.749 76.4497 249.347 77.1418C252.538 78.5242 257.099 79.7782 262.759 80.81C274.054 82.8693 289.375 83.9821 306.02 83.6342L306.103 87.6333C289.262 87.9854 273.663 86.864 262.041 84.7452C256.243 83.688 251.346 82.367 247.757 80.8121C245.965 80.0357 244.418 79.1667 243.236 78.1838C242.066 77.2108 241.097 75.9936 240.784 74.5003L244.699 73.6794ZM244.751 73.171C244.673 73.3724 244.667 73.5272 244.699 73.6794L240.784 74.5003C240.584 73.5487 240.68 72.6091 241.02 71.7301L244.751 73.171ZM232.32 49.1775C235.485 59.3626 240.118 67.3305 244.211 70.9529L241.56 73.9482C236.676 69.6258 231.759 60.8537 228.5 50.3646L232.32 49.1775Z" fill="#259DFF" mask="url(#path-1-inside-1_4311_88)"/>
<path d="M373.938 268.897L373.929 323.717C373.929 326.131 375.173 328.376 377.22 329.655L423.715 358.697C427.977 361.359 426.09 367.939 421.065 367.938L366.246 367.929C363.831 367.929 361.587 369.173 360.307 371.22L331.265 417.715C328.603 421.977 322.024 420.09 322.024 415.065L322.033 360.246C322.034 357.831 320.79 355.587 318.742 354.307L272.247 325.265C267.986 322.603 269.872 316.024 274.897 316.024L329.717 316.033C332.131 316.034 334.376 314.79 335.655 312.742L364.697 266.247C367.359 261.986 373.939 263.872 373.938 268.897Z" fill="#EDF6FF" stroke="#259DFF" stroke-width="2"/>
<path d="M27.7014 19.5771L49.7512 34.9791C51.726 36.3585 54.2713 36.6256 56.4894 35.6863L81.3997 25.1375C86.1518 23.1252 90.4671 28.756 87.2884 32.8214L70.6258 54.1325C69.1421 56.0301 68.7383 58.5573 69.5568 60.8228L78.6963 86.1188C80.3543 90.7077 75.1306 94.7109 71.1306 91.9168L49.0808 76.5148C47.106 75.1354 44.5608 74.8683 42.3427 75.8076L17.4323 86.3564C12.6802 88.3687 8.36495 82.7379 11.5436 78.6725L28.2062 57.3614C29.6899 55.4638 30.0937 52.9366 29.2752 50.6711L20.1357 25.3751C18.4778 20.7862 23.7014 16.783 27.7014 19.5771Z" fill="#EDF6FF" stroke="#259DFF" stroke-width="2"/>
</g>
<defs>
<clipPath id="clip0_4311_88">
<rect width="453.333" height="549" fill="white" transform="translate(0.666992)"/>
</clipPath>
</defs>
</svg>
