<svg width="1360" height="876" viewBox="0 0 1360 876" fill="none" xmlns="http://www.w3.org/2000/svg">
<g clip-path="url(#clip0_4519_10)">
<path d="M1300.89 745.055L1302.03 777.545C1302.1 779.613 1303.23 781.498 1305.03 782.533L1333.19 798.777C1336.67 800.785 1335.34 806.099 1331.33 806.239L1298.84 807.375C1296.77 807.448 1294.88 808.581 1293.85 810.374L1277.61 838.534C1275.6 842.016 1270.28 840.692 1270.14 836.675L1269.01 804.185C1268.94 802.117 1267.8 800.232 1266.01 799.197L1237.85 782.953C1234.37 780.944 1235.69 775.631 1239.71 775.491L1272.2 774.355C1274.27 774.282 1276.15 773.149 1277.19 771.356L1293.43 743.196C1295.44 739.714 1300.75 741.038 1300.89 745.055Z" fill="#EDF6FF" stroke="#259DFF" stroke-width="2"/>
<path d="M1066.25 245.179L1062.99 245.528C1031.21 248.932 1021.46 290.464 1048.41 307.649L1067.72 319.962L1133.7 367.019C1147.92 374.436 1162.97 379.597 1178.46 383.583L1139.77 323.309C1131.29 310.097 1126 295.091 1124.33 279.481L1121.95 257.243C1120.72 245.798 1123.93 234.319 1130.92 225.171C1143.76 208.348 1143.13 184.846 1129.41 168.734L1116.74 153.861C1105.69 140.886 1100.95 123.684 1103.79 106.88C1106.91 88.4919 1095.02 70.7956 1076.69 67.3528C1011.7 55.1457 974.757 55.8455 923.427 66.8784C953.106 47.5886 988.746 39.6465 1023.81 44.5087L1181.19 66.3344L1232.98 79.965C1262.43 87.7187 1288.7 104.552 1308.05 128.076L1318.27 140.501C1324.01 147.472 1328.27 155.536 1330.79 164.203C1341.07 199.485 1327.93 237.902 1298.9 260.435C1295.93 262.741 1292.79 265.181 1289.49 267.761C1272.97 280.645 1252.32 280.85 1232.71 275.892C1218.94 272.408 1199.16 293.066 1206.76 305.071L1260.73 368.497L1293.1 409.531C1294.85 411.743 1296.46 414.028 1297.93 416.376C1310.33 427.918 1316.23 445.721 1308.58 472.93C1307.04 480.974 1304.23 488.854 1300.11 496.268L1296 503.682C1228.02 634.901 832.204 659.519 915.315 494.492C950.317 424.991 934.411 380.881 904.268 353.101C857.866 310.336 809.916 252.269 826.842 191.479C832.252 172.05 843.292 154.658 858.571 141.493L870.232 131.446C897.464 107.982 932.088 94.857 968.031 94.3728L986.021 94.1304C996.119 93.9943 1006.19 95.8459 1015.4 99.9892C1058.7 119.472 1077.23 136.036 1084.14 148.791C1095.36 169.538 1096.57 198.733 1091.87 221.851C1089.33 234.38 1078.96 243.818 1066.25 245.179Z" fill="#259DFF"/>
<path d="M1296 503.682C1333.22 431.838 1298.89 407.017 1260.21 399.265C1217.39 390.683 1172.42 387.222 1133.7 367.019V367.019L1067.72 319.962L1048.41 307.649C1021.46 290.464 1031.21 248.932 1062.99 245.528L1066.25 245.179C1078.96 243.818 1089.33 234.38 1091.87 221.851V221.851C1096.57 198.733 1095.36 169.538 1084.14 148.791C1077.23 136.036 1058.7 119.472 1015.4 99.9892C1006.19 95.8459 996.119 93.9943 986.021 94.1304L968.031 94.3728C932.088 94.857 897.464 107.982 870.232 131.446L858.571 141.493C843.292 154.658 832.252 172.05 826.842 191.479V191.479C809.916 252.269 857.866 310.336 904.268 353.101C934.411 380.881 950.317 424.991 915.315 494.492C832.204 659.519 1228.02 634.901 1296 503.682ZM1296 503.682L1300.11 496.268C1315.47 468.585 1312.71 434.387 1293.1 409.531V409.531L1260.73 368.497L1206.76 305.071V305.071C1199.16 293.066 1218.94 272.408 1232.71 275.892C1252.32 280.85 1272.97 280.645 1289.49 267.761C1292.79 265.181 1295.93 262.741 1298.9 260.435C1327.93 237.902 1341.07 199.485 1330.79 164.203V164.203C1328.27 155.536 1324.01 147.472 1318.27 140.501L1308.05 128.076C1288.7 104.552 1262.43 87.7187 1232.98 79.965L1181.19 66.3344L1023.81 44.5087C988.746 39.6465 953.106 47.5886 923.427 66.8784V66.8784C974.757 55.8455 1011.7 55.1457 1076.69 67.3528C1095.02 70.7956 1106.91 88.4919 1103.79 106.88V106.88C1100.95 123.684 1105.69 140.886 1116.74 153.861L1129.41 168.734C1143.13 184.846 1143.76 208.348 1130.92 225.171V225.171C1123.93 234.319 1120.72 245.798 1121.95 257.243L1124.33 279.481C1126 295.091 1131.29 310.097 1139.77 323.309L1194.39 408.399" stroke="#259DFF" stroke-width="2"/>
<rect x="3.57607" y="128.575" width="378.286" height="186.263" fill="#259DFF" stroke="#259DFF" stroke-width="1.15214"/>
<g clip-path="url(#clip1_4519_10)">
<rect width="122.895" height="145.938" transform="translate(25.6597 148.738)" fill="#78C2FF"/>
<mask id="path-5-inside-1_4519_10" fill="white">
<path fill-rule="evenodd" clip-rule="evenodd" d="M97.9531 248.615C97.0849 244.988 93.8424 242.43 90.1131 242.43H83.285C79.5014 242.43 76.193 244.98 75.2296 248.639V248.639C74.3986 251.795 71.7776 254.11 68.6491 255.039C49.8496 260.623 36.1382 278.033 36.1382 298.645V298.645C36.1382 299.538 36.8622 300.262 37.7553 300.262H135.429C136.322 300.262 137.046 299.538 137.046 298.645V298.645C137.046 277.979 123.263 260.532 104.387 254.995C101.286 254.085 98.7055 251.759 97.9531 248.615V248.615Z"/>
</mask>
<path fill-rule="evenodd" clip-rule="evenodd" d="M97.9531 248.615C97.0849 244.988 93.8424 242.43 90.1131 242.43H83.285C79.5014 242.43 76.193 244.98 75.2296 248.639V248.639C74.3986 251.795 71.7776 254.11 68.6491 255.039C49.8496 260.623 36.1382 278.033 36.1382 298.645V298.645C36.1382 299.538 36.8622 300.262 37.7553 300.262H135.429C136.322 300.262 137.046 299.538 137.046 298.645V298.645C137.046 277.979 123.263 260.532 104.387 254.995C101.286 254.085 98.7055 251.759 97.9531 248.615V248.615Z" fill="#259DFF"/>
<path d="M104.387 254.995L104.003 256.305L104.387 254.995ZM83.285 243.795H90.1131V241.066H83.285V243.795ZM37.5027 298.645C37.5027 278.653 50.8012 261.764 69.0377 256.347L68.2606 253.731C48.898 259.482 34.7737 277.413 34.7737 298.645H37.5027ZM135.429 298.898H37.7553V301.627H135.429V298.898ZM104.003 256.305C122.313 261.675 135.682 278.601 135.682 298.645H138.411C138.411 277.357 124.212 259.388 104.771 253.686L104.003 256.305ZM104.771 253.686C102.05 252.888 99.8986 250.882 99.2801 248.298L96.6261 248.933C97.5124 252.636 100.521 255.283 104.003 256.305L104.771 253.686ZM34.7737 298.645C34.7737 300.292 36.1086 301.627 37.7553 301.627V298.898C37.6158 298.898 37.5027 298.785 37.5027 298.645H34.7737ZM73.9101 248.292C73.2224 250.904 71.0214 252.911 68.2606 253.731L69.0377 256.347C72.5339 255.308 75.5749 252.687 76.5491 248.987L73.9101 248.292ZM90.1131 243.795C93.2112 243.795 95.9049 245.92 96.6261 248.933L99.2801 248.298C98.265 244.057 94.4737 241.066 90.1131 241.066V243.795ZM135.429 301.627C137.076 301.627 138.411 300.292 138.411 298.645H135.682C135.682 298.785 135.569 298.898 135.429 298.898V301.627ZM83.285 241.066C78.8816 241.066 75.0313 244.034 73.9101 248.292L76.5491 248.987C77.3547 245.927 80.1212 243.795 83.285 243.795V241.066Z" fill="#259DFF" mask="url(#path-5-inside-1_4519_10)"/>
<path d="M37.0097 227.761C38.835 216.587 45.2923 198.742 54.5437 184.234C59.168 176.983 64.4656 170.604 70.1953 166.309C75.9207 162.016 82.0258 159.838 88.3128 160.865C92.7264 161.586 98.0667 161.789 103.714 162.004C104.388 162.029 105.065 162.055 105.746 162.082C112.164 162.334 118.907 162.681 125.225 163.851C130.387 164.807 134.337 166.915 137.242 169.838C140.151 172.763 142.045 176.539 143.037 180.88C145.025 189.58 143.369 200.487 139.046 211.063C134.728 221.628 127.78 231.781 119.289 238.967C110.802 246.148 100.825 250.325 90.407 249.082C84.1542 248.062 77.5963 247.553 71.3144 247.065C71.0078 247.042 70.7019 247.018 70.3968 246.994C63.8161 246.482 57.5833 245.968 52.2869 244.89C46.9768 243.81 42.7251 242.183 40.0223 239.529C37.3662 236.921 36.1166 233.228 37.0097 227.761Z" fill="#259DFF" stroke="#259DFF" stroke-width="1.3645"/>
<path d="M107.632 218.284C107.632 227.79 105.218 236.358 101.358 242.524C97.4903 248.701 92.249 252.366 86.5919 252.366C80.9349 252.366 75.6936 248.701 71.8261 242.524C67.9656 236.358 65.5518 227.79 65.5518 218.284C65.5518 208.778 67.9656 200.21 71.8261 194.044C75.6936 187.866 80.9349 184.202 86.5919 184.202C92.249 184.202 97.4903 187.866 101.358 194.044C105.218 200.21 107.632 208.778 107.632 218.284Z" fill="#EDF6FF" stroke="#259DFF" stroke-width="1.59191"/>
<rect x="50.9692" y="203.975" width="35.1762" height="29.9594" fill="#259DFF"/>
<rect x="80.1831" y="214.26" width="12.893" height="10.9553" fill="#259DFF"/>
<rect x="90.8403" y="203.304" width="35.1762" height="29.9594" fill="#259DFF"/>
</g>
<mask id="path-12-inside-2_4519_10" fill="white">
<path d="M158.924 227.659H339.426V243.5H158.924V227.659Z"/>
</mask>
<path d="M339.426 241.5H158.924V245.5H339.426V241.5Z" fill="#EDF6FF" mask="url(#path-12-inside-2_4519_10)"/>
<mask id="path-14-inside-3_4519_10" fill="white">
<path d="M158.924 253.247H339.426V269.088H158.924V253.247Z"/>
</mask>
<path d="M339.426 267.088H158.924V271.088H339.426V267.088Z" fill="#EDF6FF" mask="url(#path-14-inside-3_4519_10)"/>
<mask id="path-16-inside-4_4519_10" fill="white">
<path d="M158.924 278.835H339.426V294.676H158.924V278.835Z"/>
</mask>
<path d="M339.426 292.676H158.924V296.676H339.426V292.676Z" fill="#EDF6FF" mask="url(#path-16-inside-4_4519_10)"/>
<rect x="294.389" y="384.389" width="232.489" height="232.489" transform="rotate(-46 294.389 384.389)" fill="#78C2FF" stroke="#259DFF" stroke-width="2"/>
<rect x="271.411" y="357.937" width="232.489" height="232.489" transform="rotate(-41 271.411 357.937)" fill="#EDF6FF" stroke="#259DFF" stroke-width="2"/>
<path d="M255.751 476.519L252.944 494.36C252.676 496.064 253.305 497.786 254.608 498.916L268.254 510.746C270.532 512.721 268.801 516.445 265.822 515.977L247.981 513.169C246.278 512.901 244.556 513.53 243.426 514.833L231.596 528.479C229.621 530.757 225.897 529.026 226.365 526.048L229.173 508.207C229.441 506.503 228.812 504.781 227.509 503.652L213.862 491.821C211.585 489.846 213.316 486.122 216.294 486.591L234.135 489.398C235.839 489.666 237.56 489.037 238.69 487.734L250.521 474.088C252.496 471.81 256.22 473.541 255.751 476.519Z" fill="#EDF6FF" stroke="#259DFF" stroke-width="2"/>
<rect x="1297.04" y="640.251" width="56.1957" height="157.245" transform="rotate(54.8724 1297.04 640.251)" fill="#78C2FF" stroke="#259DFF" stroke-width="2"/>
<rect x="999.509" y="622.385" width="43.5994" height="157.245" transform="rotate(56.6464 999.509 622.385)" fill="#78C2FF" stroke="#259DFF" stroke-width="2"/>
<rect x="942.243" y="726.804" width="167.636" height="44.5494" fill="#259DFF"/>
<rect x="847" y="688.4" width="149.01" height="121.359" fill="#259DFF"/>
<rect x="1032.69" y="688.4" width="167.636" height="121.359" fill="#259DFF"/>
<path d="M732 227.733L821.222 150.131C913.445 40.2933 995.76 45.7086 1155.47 83.6149C1291.06 125.727 1312.34 159.576 1308.62 227.733C1299.56 343.727 1056.93 197.8 1219.39 377.395C1381.86 556.989 1126.18 484.93 1071.58 440.585L935.746 334.159C935.746 334.159 637.451 120.199 1071.58 227.733" stroke="#259DFF" stroke-width="22.0827" stroke-linecap="round"/>
<path d="M696.91 267.678L722.83 222.784L748.75 267.678H696.91Z" fill="#EDF6FF" stroke="#259DFF" stroke-width="2"/>
<rect x="691.9" y="262.39" width="61.8595" height="181.249" fill="#EDF6FF" stroke="#259DFF" stroke-width="2"/>
<rect x="684.958" y="431.583" width="75.7421" height="432.696" fill="#EDF6FF" stroke="#259DFF" stroke-width="2"/>
<rect x="684.976" y="825.958" width="75.7421" height="38.2593" fill="#EDF6FF" stroke="#259DFF" stroke-width="2"/>
<rect x="2.68581" y="656.88" width="179.629" height="162.331" transform="rotate(-43 2.68581 656.88)" fill="#EDF6FF" stroke="#259DFF" stroke-width="2"/>
<path d="M139.913 579.447L139.925 579.447L139.937 579.445C144.95 578.571 150.294 579.864 154.443 583.44C161.801 589.782 162.614 600.901 156.257 608.276C153.324 611.68 149.377 613.691 145.253 614.247L145.158 614.259L145.16 614.355C145.218 618.516 143.812 622.717 140.879 626.12C134.522 633.495 123.405 634.332 116.047 627.991C111.945 624.455 109.877 619.435 109.951 614.406L109.951 614.39L109.947 614.374C109.905 614.233 109.884 614.079 109.89 613.913L110.87 585.893C110.892 585.242 111.365 584.693 112.006 584.575L139.575 579.47C139.692 579.448 139.805 579.441 139.913 579.447Z" fill="#259DFF" stroke="#259DFF" stroke-width="0.216225"/>
<path d="M85.7479 637.358L85.76 637.358L85.7718 637.356C90.7841 636.482 96.1281 637.776 100.277 641.351C107.635 647.693 108.448 658.813 102.092 666.188C99.1586 669.591 95.2116 671.602 91.0877 672.158L90.9926 672.171L90.994 672.267C91.0529 676.427 89.6464 680.628 86.7132 684.031C80.357 691.407 69.2392 692.244 61.8811 685.902C57.779 682.367 55.7112 677.347 55.7856 672.318L55.7858 672.301L55.7811 672.285C55.739 672.145 55.7182 671.991 55.724 671.825L56.7041 643.805C56.7269 643.153 57.1998 642.605 57.8405 642.486L85.4091 637.381C85.5263 637.36 85.6396 637.353 85.7479 637.358Z" fill="#259DFF" stroke="#259DFF" stroke-width="0.216225"/>
<path d="M137.042 682.196L137.054 682.197L137.066 682.195C142.078 681.321 147.423 682.614 151.571 686.19C158.93 692.532 159.742 703.651 153.386 711.026C150.453 714.429 146.506 716.441 142.382 716.996L142.287 717.009L142.288 717.105C142.347 721.266 140.941 725.466 138.008 728.87C131.651 736.245 120.534 737.082 113.176 730.74C109.073 727.205 107.006 722.185 107.08 717.156L107.08 717.14L107.076 717.124C107.033 716.983 107.013 716.829 107.018 716.663L107.999 688.643C108.021 687.992 108.494 687.443 109.135 687.325L136.703 682.22C136.821 682.198 136.934 682.191 137.042 682.196Z" fill="#259DFF" stroke="#259DFF" stroke-width="0.216225"/>
<path d="M188.161 625.394L188.173 625.394L188.184 625.392C193.197 624.518 198.541 625.812 202.69 629.387C210.048 635.729 210.861 646.849 204.504 654.224C201.571 657.627 197.624 659.638 193.5 660.194L193.405 660.207L193.407 660.303C193.465 664.463 192.059 668.664 189.126 672.067C182.77 679.442 171.652 680.28 164.294 673.938C160.192 670.403 158.124 665.383 158.198 660.354L158.198 660.337L158.194 660.321C158.152 660.18 158.131 660.026 158.137 659.861L159.117 631.841C159.139 631.189 159.612 630.641 160.253 630.522L187.822 625.417C187.939 625.396 188.052 625.388 188.161 625.394Z" fill="#259DFF" stroke="#259DFF" stroke-width="0.216225"/>
<rect x="193.36" y="580.093" width="425.693" height="207.955" fill="#EDF6FF" stroke="#259DFF" stroke-width="2"/>
<path d="M193.225 709.909L619.621 709.909L620.269 787.967L193.225 787.967L193.225 709.909Z" fill="#78C2FF"/>
<path d="M619.757 683.95L618.682 579.276L644.755 566.239L641.116 765.29L621.024 786.565L619.757 683.952L619.757 683.95Z" fill="#259DFF" stroke="#259DFF" stroke-width="2"/>
<path d="M197.17 578.115L226.483 565.407L641.531 565.621L617.023 578.543L197.17 578.115Z" fill="#259DFF" stroke="#259DFF" stroke-width="2"/>
<path d="M387.357 6.76047L418.059 46.8229C419.423 48.6025 421.607 49.5537 423.839 49.3394L474.082 44.5166C479.583 43.9885 482.34 50.995 477.953 54.3569L437.89 85.0584C436.111 86.4222 435.16 88.6069 435.374 90.8387L440.197 141.081C440.725 146.583 433.718 149.339 430.356 144.952L399.655 104.89C398.291 103.11 396.106 102.159 393.875 102.373L343.632 107.196C338.13 107.724 335.374 100.718 339.761 97.3558L379.823 66.6544C381.603 65.2906 382.554 63.1059 382.34 60.8741L377.517 10.6315C376.989 5.12977 383.996 2.37351 387.357 6.76047Z" fill="#259DFF" stroke="#EDF6FF"/>
<path d="M574.292 91.0332L576.836 115.271C577.052 117.329 578.313 119.131 580.173 120.038L602.08 130.718C605.693 132.48 604.742 137.872 600.744 138.292L576.506 140.835C574.448 141.051 572.646 142.313 571.739 144.173L561.059 166.079C559.298 169.693 553.905 168.742 553.486 164.744L550.942 140.506C550.726 138.448 549.465 136.646 547.604 135.739L525.698 125.059C522.085 123.298 523.036 117.905 527.034 117.485L551.271 114.942C553.33 114.726 555.131 113.464 556.038 111.604L566.718 89.6977C568.48 86.0846 573.873 87.0355 574.292 91.0332Z" fill="#78C2FF" stroke="#259DFF" stroke-width="2"/>
<path d="M137.687 392.041L156.933 406.992C158.568 408.261 160.741 408.599 162.684 407.885L185.559 399.478C189.332 398.091 192.564 402.512 190.098 405.686L175.147 424.933C173.878 426.567 173.54 428.741 174.254 430.683L182.661 453.558C184.048 457.331 179.627 460.563 176.453 458.097L157.206 443.147C155.572 441.877 153.398 441.54 151.456 442.254L128.581 450.661C124.808 452.047 121.576 447.627 124.042 444.452L138.992 425.206C140.262 423.571 140.599 421.398 139.886 419.455L131.478 396.58C130.092 392.807 134.512 389.576 137.687 392.041Z" fill="#259DFF" stroke="#259DFF" stroke-width="2"/>
</g>
<defs>
<clipPath id="clip0_4519_10">
<rect width="1360" height="876" fill="white"/>
</clipPath>
<clipPath id="clip1_4519_10">
<rect width="122.895" height="145.938" fill="white" transform="translate(25.6597 148.738)"/>
</clipPath>
</defs>
</svg>
