<svg width="70" height="70" viewBox="0 0 70 70" fill="none" xmlns="http://www.w3.org/2000/svg">
<path id="Star 3" d="M31.1785 4.74512C32.3404 0.987244 37.6596 0.987245 38.8215 4.74511L44.1293 21.9114C44.7145 23.8041 46.1964 25.286 48.0891 25.8712L65.2554 31.179C69.0132 32.3409 69.0132 37.6601 65.2554 38.822L48.0891 44.1298C46.1964 44.715 44.7145 46.1968 44.1293 48.0896L38.8215 65.2559C37.6596 69.0137 32.3404 69.0137 31.1785 65.2559L25.8707 48.0896C25.2855 46.1968 23.8036 44.715 21.9109 44.1298L4.74463 38.822C0.986756 37.6601 0.986757 32.3409 4.74462 31.179L21.9109 25.8712C23.8036 25.286 25.2855 23.8041 25.8707 21.9114L31.1785 4.74512Z" fill="#EDF6FF" stroke="#259DFF" stroke-width="2"/>
</svg>
